G04 PROTEUS GERBER X2 FILE*
%TF.GenerationSoftware,Labcenter,Proteus,8.11-SP0-Build30052*%
%TF.CreationDate,2022-05-23T09:32:02+00:00*%
%TF.FileFunction,Legend,Bot*%
%TF.FilePolarity,Positive*%
%TF.Part,Single*%
%TF.SameCoordinates,{dbbd143d-ed61-4da2-b447-6c1ffff0ded6}*%
%FSLAX45Y45*%
%MOMM*%
G01*
%TA.AperFunction,Material*%
%ADD18C,0.508000*%
%TD.AperFunction*%
D18*
X-9271400Y+8450000D02*
X-9271531Y+8453158D01*
X-9272597Y+8459476D01*
X-9274828Y+8465794D01*
X-9278473Y+8472112D01*
X-9284048Y+8478351D01*
X-9290366Y+8482947D01*
X-9296684Y+8485880D01*
X-9303002Y+8487542D01*
X-9309320Y+8488100D01*
X-9309500Y+8488100D01*
X-9347600Y+8450000D02*
X-9347469Y+8453158D01*
X-9346403Y+8459476D01*
X-9344172Y+8465794D01*
X-9340527Y+8472112D01*
X-9334952Y+8478351D01*
X-9328634Y+8482947D01*
X-9322316Y+8485880D01*
X-9315998Y+8487542D01*
X-9309680Y+8488100D01*
X-9309500Y+8488100D01*
X-9347600Y+8450000D02*
X-9347469Y+8446842D01*
X-9346403Y+8440524D01*
X-9344172Y+8434206D01*
X-9340527Y+8427888D01*
X-9334952Y+8421649D01*
X-9328634Y+8417053D01*
X-9322316Y+8414120D01*
X-9315998Y+8412458D01*
X-9309680Y+8411900D01*
X-9309500Y+8411900D01*
X-9271400Y+8450000D02*
X-9271531Y+8446842D01*
X-9272597Y+8440524D01*
X-9274828Y+8434206D01*
X-9278473Y+8427888D01*
X-9284048Y+8421649D01*
X-9290366Y+8417053D01*
X-9296684Y+8414120D01*
X-9303002Y+8412458D01*
X-9309320Y+8411900D01*
X-9309500Y+8411900D01*
X-5461900Y+8809500D02*
X-5462031Y+8812658D01*
X-5463097Y+8818976D01*
X-5465328Y+8825294D01*
X-5468973Y+8831612D01*
X-5474548Y+8837851D01*
X-5480866Y+8842447D01*
X-5487184Y+8845380D01*
X-5493502Y+8847042D01*
X-5499820Y+8847600D01*
X-5500000Y+8847600D01*
X-5538100Y+8809500D02*
X-5537969Y+8812658D01*
X-5536903Y+8818976D01*
X-5534672Y+8825294D01*
X-5531027Y+8831612D01*
X-5525452Y+8837851D01*
X-5519134Y+8842447D01*
X-5512816Y+8845380D01*
X-5506498Y+8847042D01*
X-5500180Y+8847600D01*
X-5500000Y+8847600D01*
X-5538100Y+8809500D02*
X-5537969Y+8806342D01*
X-5536903Y+8800024D01*
X-5534672Y+8793706D01*
X-5531027Y+8787388D01*
X-5525452Y+8781149D01*
X-5519134Y+8776553D01*
X-5512816Y+8773620D01*
X-5506498Y+8771958D01*
X-5500180Y+8771400D01*
X-5500000Y+8771400D01*
X-5461900Y+8809500D02*
X-5462031Y+8806342D01*
X-5463097Y+8800024D01*
X-5465328Y+8793706D01*
X-5468973Y+8787388D01*
X-5474548Y+8781149D01*
X-5480866Y+8776553D01*
X-5487184Y+8773620D01*
X-5493502Y+8771958D01*
X-5499820Y+8771400D01*
X-5500000Y+8771400D01*
X-3082229Y+8813223D02*
X-3082360Y+8816381D01*
X-3083426Y+8822699D01*
X-3085657Y+8829017D01*
X-3089302Y+8835335D01*
X-3094877Y+8841574D01*
X-3101195Y+8846170D01*
X-3107513Y+8849103D01*
X-3113831Y+8850765D01*
X-3120149Y+8851323D01*
X-3120329Y+8851323D01*
X-3158429Y+8813223D02*
X-3158298Y+8816381D01*
X-3157232Y+8822699D01*
X-3155001Y+8829017D01*
X-3151356Y+8835335D01*
X-3145781Y+8841574D01*
X-3139463Y+8846170D01*
X-3133145Y+8849103D01*
X-3126827Y+8850765D01*
X-3120509Y+8851323D01*
X-3120329Y+8851323D01*
X-3158429Y+8813223D02*
X-3158298Y+8810065D01*
X-3157232Y+8803747D01*
X-3155001Y+8797429D01*
X-3151356Y+8791111D01*
X-3145781Y+8784872D01*
X-3139463Y+8780276D01*
X-3133145Y+8777343D01*
X-3126827Y+8775681D01*
X-3120509Y+8775123D01*
X-3120329Y+8775123D01*
X-3082229Y+8813223D02*
X-3082360Y+8810065D01*
X-3083426Y+8803747D01*
X-3085657Y+8797429D01*
X-3089302Y+8791111D01*
X-3094877Y+8784872D01*
X-3101195Y+8780276D01*
X-3107513Y+8777343D01*
X-3113831Y+8775681D01*
X-3120149Y+8775123D01*
X-3120329Y+8775123D01*
X+38100Y+8809500D02*
X+37969Y+8812658D01*
X+36903Y+8818976D01*
X+34672Y+8825294D01*
X+31027Y+8831612D01*
X+25452Y+8837851D01*
X+19134Y+8842447D01*
X+12816Y+8845380D01*
X+6498Y+8847042D01*
X+180Y+8847600D01*
X+0Y+8847600D01*
X-38100Y+8809500D02*
X-37969Y+8812658D01*
X-36903Y+8818976D01*
X-34672Y+8825294D01*
X-31027Y+8831612D01*
X-25452Y+8837851D01*
X-19134Y+8842447D01*
X-12816Y+8845380D01*
X-6498Y+8847042D01*
X-180Y+8847600D01*
X+0Y+8847600D01*
X-38100Y+8809500D02*
X-37969Y+8806342D01*
X-36903Y+8800024D01*
X-34672Y+8793706D01*
X-31027Y+8787388D01*
X-25452Y+8781149D01*
X-19134Y+8776553D01*
X-12816Y+8773620D01*
X-6498Y+8771958D01*
X-180Y+8771400D01*
X+0Y+8771400D01*
X+38100Y+8809500D02*
X+37969Y+8806342D01*
X+36903Y+8800024D01*
X+34672Y+8793706D01*
X+31027Y+8787388D01*
X+25452Y+8781149D01*
X+19134Y+8776553D01*
X+12816Y+8773620D01*
X+6498Y+8771958D01*
X+180Y+8771400D01*
X+0Y+8771400D01*
X+4820454Y+8250000D02*
X+4820323Y+8253158D01*
X+4819257Y+8259476D01*
X+4817026Y+8265794D01*
X+4813381Y+8272112D01*
X+4807806Y+8278351D01*
X+4801488Y+8282947D01*
X+4795170Y+8285880D01*
X+4788852Y+8287542D01*
X+4782534Y+8288100D01*
X+4782354Y+8288100D01*
X+4744254Y+8250000D02*
X+4744385Y+8253158D01*
X+4745451Y+8259476D01*
X+4747682Y+8265794D01*
X+4751327Y+8272112D01*
X+4756902Y+8278351D01*
X+4763220Y+8282947D01*
X+4769538Y+8285880D01*
X+4775856Y+8287542D01*
X+4782174Y+8288100D01*
X+4782354Y+8288100D01*
X+4744254Y+8250000D02*
X+4744385Y+8246842D01*
X+4745451Y+8240524D01*
X+4747682Y+8234206D01*
X+4751327Y+8227888D01*
X+4756902Y+8221649D01*
X+4763220Y+8217053D01*
X+4769538Y+8214120D01*
X+4775856Y+8212458D01*
X+4782174Y+8211900D01*
X+4782354Y+8211900D01*
X+4820454Y+8250000D02*
X+4820323Y+8246842D01*
X+4819257Y+8240524D01*
X+4817026Y+8234206D01*
X+4813381Y+8227888D01*
X+4807806Y+8221649D01*
X+4801488Y+8217053D01*
X+4795170Y+8214120D01*
X+4788852Y+8212458D01*
X+4782534Y+8211900D01*
X+4782354Y+8211900D01*
M02*
