G04 PROTEUS GERBER X2 FILE*
%TF.GenerationSoftware,Labcenter,Proteus,8.11-SP0-Build30052*%
%TF.CreationDate,2022-05-23T09:32:02+00:00*%
%TF.FileFunction,Copper,L1,Top*%
%TF.FilePolarity,Positive*%
%TF.Part,Single*%
%TF.SameCoordinates,{dbbd143d-ed61-4da2-b447-6c1ffff0ded6}*%
%FSLAX45Y45*%
%MOMM*%
G01*
%TA.AperFunction,WasherPad*%
%ADD10C,1.397000*%
%TA.AperFunction,ComponentPad*%
%ADD11C,1.778000*%
%TA.AperFunction,ComponentPad*%
%ADD12R,1.270000X1.270000*%
%ADD13C,1.270000*%
%TA.AperFunction,ComponentPad*%
%ADD14C,1.524000*%
%TA.AperFunction,ComponentPad*%
%ADD15C,2.286000*%
%TD.AperFunction*%
D10*
X-9500000Y+8450000D03*
X-9500000Y+8250000D03*
X-9500000Y+8050000D03*
D11*
X-7250000Y+9000000D03*
X-6488000Y+9000000D03*
X-7000000Y+8250000D03*
X-6746000Y+8250000D03*
X-8000000Y+9000000D03*
X-9016000Y+9000000D03*
X-8000000Y+8250000D03*
X-9016000Y+8250000D03*
X-9000000Y+7500000D03*
X-7984000Y+7500000D03*
X-6754000Y+7500000D03*
X-7008000Y+7500000D03*
D10*
X-5500000Y+9000000D03*
X-5300000Y+9000000D03*
D12*
X-5000000Y+7750000D03*
D13*
X-5000000Y+8004000D03*
X-5762000Y+8004000D03*
X-5762000Y+7750000D03*
D10*
X-3120329Y+9003723D03*
X-2920329Y+9003723D03*
D11*
X-3620329Y+8253723D03*
X-2604329Y+8253723D03*
X-2620329Y+7503723D03*
X-3636329Y+7503723D03*
X-1620329Y+9003723D03*
X-1366329Y+9003723D03*
D14*
X-1620329Y+8253723D03*
X-1417129Y+8253723D03*
X-1213929Y+8253723D03*
D15*
X-1886329Y+7503723D03*
X-870329Y+7503723D03*
D10*
X+0Y+9000000D03*
X+200000Y+9000000D03*
D11*
X+1841854Y+9000000D03*
X+2603854Y+9000000D03*
X+1841854Y+8250000D03*
X+2603854Y+8250000D03*
X+1841854Y+7500000D03*
X+2857854Y+7500000D03*
X+3341854Y+8750000D03*
X+3595854Y+8750000D03*
X+3341854Y+7750000D03*
X+3595854Y+7750000D03*
D10*
X+4591854Y+8250000D03*
X+4591854Y+8450000D03*
M02*
