G04 PROTEUS GERBER X2 FILE*
%TF.GenerationSoftware,Labcenter,Proteus,8.11-SP0-Build30052*%
%TF.CreationDate,2022-05-23T09:32:02+00:00*%
%TF.FileFunction,Legend,Top*%
%TF.FilePolarity,Positive*%
%TF.Part,Single*%
%TF.SameCoordinates,{dbbd143d-ed61-4da2-b447-6c1ffff0ded6}*%
%FSLAX45Y45*%
%MOMM*%
G01*
%TA.AperFunction,Material*%
%ADD18C,0.508000*%
%ADD19C,0.152400*%
%ADD70C,0.203200*%
%ADD71C,0.063500*%
%TD.AperFunction*%
D18*
X-9271400Y+8450000D02*
X-9271531Y+8453158D01*
X-9272597Y+8459476D01*
X-9274828Y+8465794D01*
X-9278473Y+8472112D01*
X-9284048Y+8478351D01*
X-9290366Y+8482947D01*
X-9296684Y+8485880D01*
X-9303002Y+8487542D01*
X-9309320Y+8488100D01*
X-9309500Y+8488100D01*
X-9347600Y+8450000D02*
X-9347469Y+8453158D01*
X-9346403Y+8459476D01*
X-9344172Y+8465794D01*
X-9340527Y+8472112D01*
X-9334952Y+8478351D01*
X-9328634Y+8482947D01*
X-9322316Y+8485880D01*
X-9315998Y+8487542D01*
X-9309680Y+8488100D01*
X-9309500Y+8488100D01*
X-9347600Y+8450000D02*
X-9347469Y+8446842D01*
X-9346403Y+8440524D01*
X-9344172Y+8434206D01*
X-9340527Y+8427888D01*
X-9334952Y+8421649D01*
X-9328634Y+8417053D01*
X-9322316Y+8414120D01*
X-9315998Y+8412458D01*
X-9309680Y+8411900D01*
X-9309500Y+8411900D01*
X-9271400Y+8450000D02*
X-9271531Y+8446842D01*
X-9272597Y+8440524D01*
X-9274828Y+8434206D01*
X-9278473Y+8427888D01*
X-9284048Y+8421649D01*
X-9290366Y+8417053D01*
X-9296684Y+8414120D01*
X-9303002Y+8412458D01*
X-9309320Y+8411900D01*
X-9309500Y+8411900D01*
D19*
X-9380620Y+7980150D02*
X-9380620Y+8519850D01*
X-9424135Y+8519850D01*
X-9619380Y+8519850D02*
X-9619380Y+7980150D01*
X-9575865Y+7980150D01*
X-9424135Y+7980150D02*
X-9380620Y+7980150D01*
X-9575865Y+8519850D02*
X-9619380Y+8519850D01*
D70*
X-9672720Y+7869000D02*
X-9657480Y+7884875D01*
X-9657480Y+7948375D01*
X-9672720Y+7964250D01*
X-9687960Y+7964250D01*
X-9703200Y+7948375D01*
X-9703200Y+7884875D01*
X-9718440Y+7869000D01*
X-9733680Y+7869000D01*
X-9748920Y+7884875D01*
X-9748920Y+7948375D01*
X-9733680Y+7964250D01*
X-9748920Y+8011875D02*
X-9748920Y+8075375D01*
X-9748920Y+8043625D02*
X-9657480Y+8043625D01*
X-9657480Y+8011875D02*
X-9657480Y+8075375D01*
X-9687960Y+8186500D02*
X-9687960Y+8218250D01*
X-9657480Y+8218250D01*
X-9657480Y+8154750D01*
X-9687960Y+8123000D01*
X-9718440Y+8123000D01*
X-9748920Y+8154750D01*
X-9748920Y+8202375D01*
X-9733680Y+8218250D01*
X-9657480Y+8250000D02*
X-9748920Y+8250000D01*
X-9657480Y+8345250D01*
X-9748920Y+8345250D01*
X-9657480Y+8377000D02*
X-9718440Y+8377000D01*
X-9748920Y+8408750D01*
X-9748920Y+8440500D01*
X-9718440Y+8472250D01*
X-9657480Y+8472250D01*
X-9687960Y+8377000D02*
X-9687960Y+8472250D01*
X-9748920Y+8504000D02*
X-9657480Y+8504000D01*
X-9657480Y+8599250D01*
X-6919800Y+9063500D02*
X-6919800Y+8936500D01*
X-6919800Y+9063500D02*
X-6792800Y+9000000D01*
X-6919800Y+8936500D02*
X-6792800Y+9000000D01*
X-6792800Y+9063500D02*
X-6792800Y+8936500D01*
X-7123000Y+9000000D02*
X-6919800Y+9000000D01*
X-6792800Y+9000000D02*
X-6615000Y+9000000D01*
X-6872527Y+8778877D02*
X-6872527Y+8870317D01*
X-6809027Y+8870317D01*
X-6777277Y+8839837D01*
X-6777277Y+8809357D01*
X-6809027Y+8778877D01*
X-6872527Y+8778877D01*
X-6713777Y+8839837D02*
X-6682027Y+8870317D01*
X-6682027Y+8778877D01*
X-7127000Y+8250000D02*
X-7121920Y+8275876D01*
X-7107315Y+8299848D01*
X-7084138Y+8321438D01*
X-7053340Y+8340170D01*
X-7015875Y+8355569D01*
X-6972695Y+8367158D01*
X-6924752Y+8374460D01*
X-6873000Y+8377000D01*
X-6619000Y+8250000D02*
X-6624080Y+8275876D01*
X-6638685Y+8299848D01*
X-6661862Y+8321438D01*
X-6692660Y+8340170D01*
X-6730125Y+8355569D01*
X-6773305Y+8367158D01*
X-6821248Y+8374460D01*
X-6873000Y+8377000D01*
X-7127000Y+8250000D02*
X-7121920Y+8224124D01*
X-7107315Y+8200152D01*
X-7084138Y+8178562D01*
X-7053340Y+8159830D01*
X-7015875Y+8144431D01*
X-6972695Y+8132842D01*
X-6924752Y+8125540D01*
X-6873000Y+8123000D01*
X-6619000Y+8250000D02*
X-6624080Y+8224124D01*
X-6638685Y+8200152D01*
X-6661862Y+8178562D01*
X-6692660Y+8159830D01*
X-6730125Y+8144431D01*
X-6773305Y+8132842D01*
X-6821248Y+8125540D01*
X-6873000Y+8123000D01*
X-6904750Y+8432880D02*
X-6920625Y+8417640D01*
X-6968250Y+8417640D01*
X-7000000Y+8448120D01*
X-7000000Y+8478600D01*
X-6968250Y+8509080D01*
X-6920625Y+8509080D01*
X-6904750Y+8493840D01*
X-6841250Y+8478600D02*
X-6809500Y+8509080D01*
X-6809500Y+8417640D01*
X-8127000Y+9000000D02*
X-8254000Y+9000000D01*
X-8762000Y+8936500D02*
X-8254000Y+8936500D01*
X-8254000Y+9063500D01*
X-8762000Y+9063500D01*
X-8762000Y+8936500D01*
X-8762000Y+9000000D02*
X-8889000Y+9000000D01*
X-8635000Y+8804420D02*
X-8635000Y+8895860D01*
X-8555625Y+8895860D01*
X-8539750Y+8880620D01*
X-8539750Y+8865380D01*
X-8555625Y+8850140D01*
X-8635000Y+8850140D01*
X-8555625Y+8850140D02*
X-8539750Y+8834900D01*
X-8539750Y+8804420D01*
X-8476250Y+8865380D02*
X-8444500Y+8895860D01*
X-8444500Y+8804420D01*
X-8127000Y+8250000D02*
X-8254000Y+8250000D01*
X-8762000Y+8186500D02*
X-8254000Y+8186500D01*
X-8254000Y+8313500D01*
X-8762000Y+8313500D01*
X-8762000Y+8186500D01*
X-8762000Y+8250000D02*
X-8889000Y+8250000D01*
X-8635000Y+8054420D02*
X-8635000Y+8145860D01*
X-8555625Y+8145860D01*
X-8539750Y+8130620D01*
X-8539750Y+8115380D01*
X-8555625Y+8100140D01*
X-8635000Y+8100140D01*
X-8555625Y+8100140D02*
X-8539750Y+8084900D01*
X-8539750Y+8054420D01*
X-8492125Y+8130620D02*
X-8476250Y+8145860D01*
X-8428625Y+8145860D01*
X-8412750Y+8130620D01*
X-8412750Y+8115380D01*
X-8428625Y+8100140D01*
X-8476250Y+8100140D01*
X-8492125Y+8084900D01*
X-8492125Y+8054420D01*
X-8412750Y+8054420D01*
X-8873000Y+7500000D02*
X-8746000Y+7500000D01*
X-8746000Y+7436500D02*
X-8238000Y+7436500D01*
X-8238000Y+7563500D01*
X-8746000Y+7563500D01*
X-8746000Y+7436500D01*
X-8238000Y+7500000D02*
X-8111000Y+7500000D01*
X-8619000Y+7604140D02*
X-8619000Y+7695580D01*
X-8539625Y+7695580D01*
X-8523750Y+7680340D01*
X-8523750Y+7665100D01*
X-8539625Y+7649860D01*
X-8619000Y+7649860D01*
X-8539625Y+7649860D02*
X-8523750Y+7634620D01*
X-8523750Y+7604140D01*
X-8476125Y+7680340D02*
X-8460250Y+7695580D01*
X-8412625Y+7695580D01*
X-8396750Y+7680340D01*
X-8396750Y+7665100D01*
X-8412625Y+7649860D01*
X-8396750Y+7634620D01*
X-8396750Y+7619380D01*
X-8412625Y+7604140D01*
X-8460250Y+7604140D01*
X-8476125Y+7619380D01*
X-8444375Y+7649860D02*
X-8412625Y+7649860D01*
X-6627000Y+7500000D02*
X-6632080Y+7474124D01*
X-6646685Y+7450152D01*
X-6669862Y+7428562D01*
X-6700660Y+7409830D01*
X-6738125Y+7394431D01*
X-6781305Y+7382842D01*
X-6829248Y+7375540D01*
X-6881000Y+7373000D01*
X-7135000Y+7500000D02*
X-7129920Y+7474124D01*
X-7115315Y+7450152D01*
X-7092138Y+7428562D01*
X-7061340Y+7409830D01*
X-7023875Y+7394431D01*
X-6980695Y+7382842D01*
X-6932752Y+7375540D01*
X-6881000Y+7373000D01*
X-6627000Y+7500000D02*
X-6632080Y+7525876D01*
X-6646685Y+7549848D01*
X-6669862Y+7571438D01*
X-6700660Y+7590170D01*
X-6738125Y+7605569D01*
X-6781305Y+7617158D01*
X-6829248Y+7624460D01*
X-6881000Y+7627000D01*
X-7135000Y+7500000D02*
X-7129920Y+7525876D01*
X-7115315Y+7549848D01*
X-7092138Y+7571438D01*
X-7061340Y+7590170D01*
X-7023875Y+7605569D01*
X-6980695Y+7617158D01*
X-6932752Y+7624460D01*
X-6881000Y+7627000D01*
X-6912750Y+7256160D02*
X-6928625Y+7240920D01*
X-6976250Y+7240920D01*
X-7008000Y+7271400D01*
X-7008000Y+7301880D01*
X-6976250Y+7332360D01*
X-6928625Y+7332360D01*
X-6912750Y+7317120D01*
X-6865125Y+7317120D02*
X-6849250Y+7332360D01*
X-6801625Y+7332360D01*
X-6785750Y+7317120D01*
X-6785750Y+7301880D01*
X-6801625Y+7286640D01*
X-6849250Y+7286640D01*
X-6865125Y+7271400D01*
X-6865125Y+7240920D01*
X-6785750Y+7240920D01*
D18*
X-5461900Y+8809500D02*
X-5462031Y+8812658D01*
X-5463097Y+8818976D01*
X-5465328Y+8825294D01*
X-5468973Y+8831612D01*
X-5474548Y+8837851D01*
X-5480866Y+8842447D01*
X-5487184Y+8845380D01*
X-5493502Y+8847042D01*
X-5499820Y+8847600D01*
X-5500000Y+8847600D01*
X-5538100Y+8809500D02*
X-5537969Y+8812658D01*
X-5536903Y+8818976D01*
X-5534672Y+8825294D01*
X-5531027Y+8831612D01*
X-5525452Y+8837851D01*
X-5519134Y+8842447D01*
X-5512816Y+8845380D01*
X-5506498Y+8847042D01*
X-5500180Y+8847600D01*
X-5500000Y+8847600D01*
X-5538100Y+8809500D02*
X-5537969Y+8806342D01*
X-5536903Y+8800024D01*
X-5534672Y+8793706D01*
X-5531027Y+8787388D01*
X-5525452Y+8781149D01*
X-5519134Y+8776553D01*
X-5512816Y+8773620D01*
X-5506498Y+8771958D01*
X-5500180Y+8771400D01*
X-5500000Y+8771400D01*
X-5461900Y+8809500D02*
X-5462031Y+8806342D01*
X-5463097Y+8800024D01*
X-5465328Y+8793706D01*
X-5468973Y+8787388D01*
X-5474548Y+8781149D01*
X-5480866Y+8776553D01*
X-5487184Y+8773620D01*
X-5493502Y+8771958D01*
X-5499820Y+8771400D01*
X-5500000Y+8771400D01*
D19*
X-5648920Y+8899340D02*
X-5522407Y+8899340D01*
X-5151080Y+8899340D02*
X-5151080Y+9100000D01*
X-5274809Y+9100000D01*
X-5648920Y+9100000D02*
X-5648920Y+8899340D01*
X-5277593Y+8899340D02*
X-5151080Y+8899340D01*
X-5325191Y+9100000D02*
X-5474809Y+9100000D01*
X-5525191Y+9100000D02*
X-5648920Y+9100000D01*
X-5477593Y+8899340D02*
X-5322407Y+8899340D01*
D70*
X-5781000Y+9199060D02*
X-5749250Y+9229540D01*
X-5717500Y+9229540D01*
X-5685750Y+9199060D01*
X-5685750Y+9168580D01*
X-5717500Y+9138100D01*
X-5749250Y+9138100D01*
X-5781000Y+9168580D01*
X-5781000Y+9199060D01*
X-5654000Y+9138100D02*
X-5654000Y+9229540D01*
X-5574625Y+9229540D01*
X-5558750Y+9214300D01*
X-5558750Y+9199060D01*
X-5574625Y+9183820D01*
X-5654000Y+9183820D01*
X-5400000Y+9138100D02*
X-5400000Y+9229540D01*
X-5352375Y+9183820D01*
X-5304750Y+9229540D01*
X-5304750Y+9138100D01*
X-5273000Y+9199060D02*
X-5241250Y+9229540D01*
X-5209500Y+9229540D01*
X-5177750Y+9199060D01*
X-5177750Y+9168580D01*
X-5209500Y+9138100D01*
X-5241250Y+9138100D01*
X-5273000Y+9168580D01*
X-5273000Y+9199060D01*
X-5146000Y+9138100D02*
X-5146000Y+9229540D01*
X-5082500Y+9229540D01*
X-5050750Y+9199060D01*
X-5050750Y+9168580D01*
X-5082500Y+9138100D01*
X-5146000Y+9138100D01*
X-5508000Y+7623000D02*
X-5635000Y+7623000D01*
X-5635000Y+8131000D01*
X-5127000Y+8131000D01*
X-5127000Y+7623000D01*
X-5254000Y+7623000D01*
X-5381000Y+7750000D02*
X-5406876Y+7747564D01*
X-5430848Y+7740515D01*
X-5452438Y+7729238D01*
X-5471170Y+7714122D01*
X-5486569Y+7695554D01*
X-5498158Y+7673919D01*
X-5505460Y+7649606D01*
X-5508000Y+7623000D01*
X-5381000Y+7750000D02*
X-5354394Y+7747564D01*
X-5330081Y+7740515D01*
X-5308446Y+7729238D01*
X-5289878Y+7714122D01*
X-5274762Y+7695554D01*
X-5263485Y+7673919D01*
X-5256436Y+7649606D01*
X-5254000Y+7623000D01*
X-5571500Y+7490920D02*
X-5571500Y+7582360D01*
X-5508000Y+7582360D01*
X-5476250Y+7551880D01*
X-5476250Y+7521400D01*
X-5508000Y+7490920D01*
X-5571500Y+7490920D01*
X-5444500Y+7506160D02*
X-5428625Y+7490920D01*
X-5365125Y+7490920D01*
X-5349250Y+7506160D01*
X-5349250Y+7521400D01*
X-5365125Y+7536640D01*
X-5428625Y+7536640D01*
X-5444500Y+7551880D01*
X-5444500Y+7567120D01*
X-5428625Y+7582360D01*
X-5365125Y+7582360D01*
X-5349250Y+7567120D01*
X-5317500Y+7582360D02*
X-5317500Y+7490920D01*
X-5269875Y+7536640D01*
X-5222250Y+7490920D01*
X-5222250Y+7582360D01*
D18*
X-3082229Y+8813223D02*
X-3082360Y+8816381D01*
X-3083426Y+8822699D01*
X-3085657Y+8829017D01*
X-3089302Y+8835335D01*
X-3094877Y+8841574D01*
X-3101195Y+8846170D01*
X-3107513Y+8849103D01*
X-3113831Y+8850765D01*
X-3120149Y+8851323D01*
X-3120329Y+8851323D01*
X-3158429Y+8813223D02*
X-3158298Y+8816381D01*
X-3157232Y+8822699D01*
X-3155001Y+8829017D01*
X-3151356Y+8835335D01*
X-3145781Y+8841574D01*
X-3139463Y+8846170D01*
X-3133145Y+8849103D01*
X-3126827Y+8850765D01*
X-3120509Y+8851323D01*
X-3120329Y+8851323D01*
X-3158429Y+8813223D02*
X-3158298Y+8810065D01*
X-3157232Y+8803747D01*
X-3155001Y+8797429D01*
X-3151356Y+8791111D01*
X-3145781Y+8784872D01*
X-3139463Y+8780276D01*
X-3133145Y+8777343D01*
X-3126827Y+8775681D01*
X-3120509Y+8775123D01*
X-3120329Y+8775123D01*
X-3082229Y+8813223D02*
X-3082360Y+8810065D01*
X-3083426Y+8803747D01*
X-3085657Y+8797429D01*
X-3089302Y+8791111D01*
X-3094877Y+8784872D01*
X-3101195Y+8780276D01*
X-3107513Y+8777343D01*
X-3113831Y+8775681D01*
X-3120149Y+8775123D01*
X-3120329Y+8775123D01*
D19*
X-3269249Y+8903063D02*
X-3142736Y+8903063D01*
X-2771409Y+8903063D02*
X-2771409Y+9103723D01*
X-2895138Y+9103723D01*
X-3269249Y+9103723D02*
X-3269249Y+8903063D01*
X-2897922Y+8903063D02*
X-2771409Y+8903063D01*
X-2945520Y+9103723D02*
X-3095138Y+9103723D01*
X-3145520Y+9103723D02*
X-3269249Y+9103723D01*
X-3097922Y+8903063D02*
X-2942736Y+8903063D01*
D70*
X-3194954Y+9218023D02*
X-3179079Y+9233263D01*
X-3131454Y+9233263D01*
X-3115579Y+9218023D01*
X-3115579Y+9202783D01*
X-3131454Y+9187543D01*
X-3179079Y+9187543D01*
X-3194954Y+9172303D01*
X-3194954Y+9141823D01*
X-3115579Y+9141823D01*
X-2988579Y+9218023D02*
X-3004454Y+9233263D01*
X-3052079Y+9233263D01*
X-3067954Y+9218023D01*
X-3067954Y+9157063D01*
X-3052079Y+9141823D01*
X-3004454Y+9141823D01*
X-2988579Y+9157063D01*
X-2988579Y+9172303D01*
X-3004454Y+9187543D01*
X-3067954Y+9187543D01*
X-2956829Y+9233263D02*
X-2956829Y+9187543D01*
X-2909204Y+9141823D01*
X-2861579Y+9187543D01*
X-2861579Y+9233263D01*
X-3493329Y+8253723D02*
X-3366329Y+8253723D01*
X-3366329Y+8190223D02*
X-2858329Y+8190223D01*
X-2858329Y+8317223D01*
X-3366329Y+8317223D01*
X-3366329Y+8190223D01*
X-2858329Y+8253723D02*
X-2731329Y+8253723D01*
X-3239329Y+8357863D02*
X-3239329Y+8449303D01*
X-3159954Y+8449303D01*
X-3144079Y+8434063D01*
X-3144079Y+8418823D01*
X-3159954Y+8403583D01*
X-3239329Y+8403583D01*
X-3159954Y+8403583D02*
X-3144079Y+8388343D01*
X-3144079Y+8357863D01*
X-3017079Y+8388343D02*
X-3112329Y+8388343D01*
X-3048829Y+8449303D01*
X-3048829Y+8357863D01*
X-2747329Y+7503723D02*
X-2874329Y+7503723D01*
X-3382329Y+7440223D02*
X-2874329Y+7440223D01*
X-2874329Y+7567223D01*
X-3382329Y+7567223D01*
X-3382329Y+7440223D01*
X-3382329Y+7503723D02*
X-3509329Y+7503723D01*
X-3255329Y+7308143D02*
X-3255329Y+7399583D01*
X-3175954Y+7399583D01*
X-3160079Y+7384343D01*
X-3160079Y+7369103D01*
X-3175954Y+7353863D01*
X-3255329Y+7353863D01*
X-3175954Y+7353863D02*
X-3160079Y+7338623D01*
X-3160079Y+7308143D01*
X-3033079Y+7399583D02*
X-3112454Y+7399583D01*
X-3112454Y+7369103D01*
X-3048954Y+7369103D01*
X-3033079Y+7353863D01*
X-3033079Y+7323383D01*
X-3048954Y+7308143D01*
X-3096579Y+7308143D01*
X-3112454Y+7323383D01*
X-1747329Y+9003723D02*
X-1742249Y+9029599D01*
X-1727644Y+9053570D01*
X-1704466Y+9075160D01*
X-1673669Y+9093893D01*
X-1636204Y+9109292D01*
X-1593024Y+9120880D01*
X-1545082Y+9128183D01*
X-1493329Y+9130723D01*
X-1239329Y+9003723D02*
X-1244409Y+9029599D01*
X-1259014Y+9053570D01*
X-1282192Y+9075160D01*
X-1312989Y+9093893D01*
X-1350454Y+9109292D01*
X-1393634Y+9120880D01*
X-1441576Y+9128183D01*
X-1493329Y+9130723D01*
X-1747329Y+9003723D02*
X-1742249Y+8977847D01*
X-1727644Y+8953876D01*
X-1704466Y+8932286D01*
X-1673669Y+8913553D01*
X-1636204Y+8898154D01*
X-1593024Y+8886566D01*
X-1545082Y+8879263D01*
X-1493329Y+8876723D01*
X-1239329Y+9003723D02*
X-1244409Y+8977847D01*
X-1259014Y+8953876D01*
X-1282192Y+8932286D01*
X-1312989Y+8913553D01*
X-1350454Y+8898154D01*
X-1393634Y+8886566D01*
X-1441576Y+8879263D01*
X-1493329Y+8876723D01*
X-1566070Y+8730663D02*
X-1581945Y+8715423D01*
X-1629570Y+8715423D01*
X-1661320Y+8745903D01*
X-1661320Y+8776383D01*
X-1629570Y+8806863D01*
X-1581945Y+8806863D01*
X-1566070Y+8791623D01*
X-1518445Y+8791623D02*
X-1502570Y+8806863D01*
X-1454945Y+8806863D01*
X-1439070Y+8791623D01*
X-1439070Y+8776383D01*
X-1454945Y+8761143D01*
X-1439070Y+8745903D01*
X-1439070Y+8730663D01*
X-1454945Y+8715423D01*
X-1502570Y+8715423D01*
X-1518445Y+8730663D01*
X-1486695Y+8761143D02*
X-1454945Y+8761143D01*
X-1734629Y+8380723D02*
X-1099629Y+8380723D01*
X-1734629Y+8380723D02*
X-1734629Y+8253723D01*
X-1732102Y+8227755D01*
X-1724831Y+8203741D01*
X-1713281Y+8182146D01*
X-1697918Y+8163434D01*
X-1679206Y+8148070D01*
X-1657610Y+8136521D01*
X-1633596Y+8129250D01*
X-1607629Y+8126723D01*
X-1099629Y+8253723D02*
X-1102156Y+8227755D01*
X-1109427Y+8203741D01*
X-1120977Y+8182146D01*
X-1136340Y+8163434D01*
X-1155052Y+8148070D01*
X-1176647Y+8136521D01*
X-1200661Y+8129250D01*
X-1226629Y+8126723D01*
X-1099629Y+8380723D02*
X-1099629Y+8253723D01*
X-1226629Y+8126723D02*
X-1607629Y+8126723D01*
X-1544129Y+8482323D02*
X-1512379Y+8512803D01*
X-1480629Y+8512803D01*
X-1448879Y+8482323D01*
X-1448879Y+8451843D01*
X-1480629Y+8421363D01*
X-1512379Y+8421363D01*
X-1544129Y+8451843D01*
X-1544129Y+8482323D01*
X-1480629Y+8451843D02*
X-1448879Y+8421363D01*
X-1385379Y+8482323D02*
X-1353629Y+8512803D01*
X-1353629Y+8421363D01*
X-1637409Y+7369103D02*
X-1119249Y+7369103D01*
X-1119249Y+7635803D01*
X-1637409Y+7635803D01*
X-1637409Y+7369103D01*
X-1200529Y+7371643D02*
X-1200529Y+7633263D01*
X-1048129Y+7503723D02*
X-1119249Y+7503723D01*
X-1637409Y+7503723D02*
X-1708529Y+7503723D01*
X-1505329Y+7237023D02*
X-1505329Y+7328463D01*
X-1441829Y+7328463D01*
X-1410079Y+7297983D01*
X-1410079Y+7267503D01*
X-1441829Y+7237023D01*
X-1505329Y+7237023D01*
X-1362454Y+7313223D02*
X-1346579Y+7328463D01*
X-1298954Y+7328463D01*
X-1283079Y+7313223D01*
X-1283079Y+7297983D01*
X-1298954Y+7282743D01*
X-1346579Y+7282743D01*
X-1362454Y+7267503D01*
X-1362454Y+7237023D01*
X-1283079Y+7237023D01*
D18*
X+38100Y+8809500D02*
X+37969Y+8812658D01*
X+36903Y+8818976D01*
X+34672Y+8825294D01*
X+31027Y+8831612D01*
X+25452Y+8837851D01*
X+19134Y+8842447D01*
X+12816Y+8845380D01*
X+6498Y+8847042D01*
X+180Y+8847600D01*
X+0Y+8847600D01*
X-38100Y+8809500D02*
X-37969Y+8812658D01*
X-36903Y+8818976D01*
X-34672Y+8825294D01*
X-31027Y+8831612D01*
X-25452Y+8837851D01*
X-19134Y+8842447D01*
X-12816Y+8845380D01*
X-6498Y+8847042D01*
X-180Y+8847600D01*
X+0Y+8847600D01*
X-38100Y+8809500D02*
X-37969Y+8806342D01*
X-36903Y+8800024D01*
X-34672Y+8793706D01*
X-31027Y+8787388D01*
X-25452Y+8781149D01*
X-19134Y+8776553D01*
X-12816Y+8773620D01*
X-6498Y+8771958D01*
X-180Y+8771400D01*
X+0Y+8771400D01*
X+38100Y+8809500D02*
X+37969Y+8806342D01*
X+36903Y+8800024D01*
X+34672Y+8793706D01*
X+31027Y+8787388D01*
X+25452Y+8781149D01*
X+19134Y+8776553D01*
X+12816Y+8773620D01*
X+6498Y+8771958D01*
X+180Y+8771400D01*
X+0Y+8771400D01*
D19*
X-148920Y+8899340D02*
X-22407Y+8899340D01*
X+348920Y+8899340D02*
X+348920Y+9100000D01*
X+225191Y+9100000D01*
X-148920Y+9100000D02*
X-148920Y+8899340D01*
X+222407Y+8899340D02*
X+348920Y+8899340D01*
X+174809Y+9100000D02*
X+25191Y+9100000D01*
X-25191Y+9100000D02*
X-148920Y+9100000D01*
X+22407Y+8899340D02*
X+177593Y+8899340D01*
D70*
X-598500Y+9229540D02*
X-598500Y+9138100D01*
X-550875Y+9183820D01*
X-503250Y+9138100D01*
X-503250Y+9229540D01*
X-471500Y+9138100D02*
X-471500Y+9229540D01*
X-376250Y+9229540D02*
X-376250Y+9138100D01*
X-471500Y+9183820D02*
X-376250Y+9183820D01*
X-328625Y+9229540D02*
X-265125Y+9229540D01*
X-296875Y+9229540D02*
X-296875Y+9138100D01*
X-328625Y+9138100D02*
X-265125Y+9138100D01*
X-217500Y+9229540D02*
X-122250Y+9229540D01*
X-169875Y+9229540D02*
X-169875Y+9138100D01*
X+4750Y+9138100D02*
X-90500Y+9138100D01*
X-90500Y+9229540D01*
X+4750Y+9229540D01*
X-90500Y+9183820D02*
X-27000Y+9183820D01*
X+163500Y+9138100D02*
X+163500Y+9229540D01*
X+258750Y+9138100D01*
X+258750Y+9229540D01*
X+290500Y+9199060D02*
X+322250Y+9229540D01*
X+354000Y+9229540D01*
X+385750Y+9199060D01*
X+385750Y+9168580D01*
X+354000Y+9138100D01*
X+322250Y+9138100D01*
X+290500Y+9168580D01*
X+290500Y+9199060D01*
X+433375Y+9229540D02*
X+496875Y+9229540D01*
X+465125Y+9229540D02*
X+465125Y+9138100D01*
X+433375Y+9138100D02*
X+496875Y+9138100D01*
X+544500Y+9153340D02*
X+560375Y+9138100D01*
X+623875Y+9138100D01*
X+639750Y+9153340D01*
X+639750Y+9168580D01*
X+623875Y+9183820D01*
X+560375Y+9183820D01*
X+544500Y+9199060D01*
X+544500Y+9214300D01*
X+560375Y+9229540D01*
X+623875Y+9229540D01*
X+639750Y+9214300D01*
X+766750Y+9138100D02*
X+671500Y+9138100D01*
X+671500Y+9229540D01*
X+766750Y+9229540D01*
X+671500Y+9183820D02*
X+735000Y+9183820D01*
X+2172054Y+9063500D02*
X+2172054Y+8936500D01*
X+2172054Y+9063500D02*
X+2299054Y+9000000D01*
X+2172054Y+8936500D02*
X+2299054Y+9000000D01*
X+2299054Y+9063500D02*
X+2299054Y+8936500D01*
X+1968854Y+9000000D02*
X+2172054Y+9000000D01*
X+2299054Y+9000000D02*
X+2476854Y+9000000D01*
X+2095854Y+9104140D02*
X+2095854Y+9195580D01*
X+2159354Y+9195580D01*
X+2191104Y+9165100D01*
X+2191104Y+9134620D01*
X+2159354Y+9104140D01*
X+2095854Y+9104140D01*
X+2238729Y+9180340D02*
X+2254604Y+9195580D01*
X+2302229Y+9195580D01*
X+2318104Y+9180340D01*
X+2318104Y+9165100D01*
X+2302229Y+9149860D01*
X+2318104Y+9134620D01*
X+2318104Y+9119380D01*
X+2302229Y+9104140D01*
X+2254604Y+9104140D01*
X+2238729Y+9119380D01*
X+2270479Y+9149860D02*
X+2302229Y+9149860D01*
X+2172054Y+8313500D02*
X+2172054Y+8186500D01*
X+2172054Y+8313500D02*
X+2299054Y+8250000D01*
X+2172054Y+8186500D02*
X+2299054Y+8250000D01*
X+2299054Y+8313500D02*
X+2299054Y+8186500D01*
X+1968854Y+8250000D02*
X+2172054Y+8250000D01*
X+2299054Y+8250000D02*
X+2476854Y+8250000D01*
X+2095854Y+8354140D02*
X+2095854Y+8445580D01*
X+2159354Y+8445580D01*
X+2191104Y+8415100D01*
X+2191104Y+8384620D01*
X+2159354Y+8354140D01*
X+2095854Y+8354140D01*
X+2318104Y+8384620D02*
X+2222854Y+8384620D01*
X+2286354Y+8445580D01*
X+2286354Y+8354140D01*
X+1968854Y+7500000D02*
X+2095854Y+7500000D01*
X+2095854Y+7436500D02*
X+2603854Y+7436500D01*
X+2603854Y+7563500D01*
X+2095854Y+7563500D01*
X+2095854Y+7436500D01*
X+2603854Y+7500000D02*
X+2730854Y+7500000D01*
X+2222854Y+7604140D02*
X+2222854Y+7695580D01*
X+2302229Y+7695580D01*
X+2318104Y+7680340D01*
X+2318104Y+7665100D01*
X+2302229Y+7649860D01*
X+2222854Y+7649860D01*
X+2302229Y+7649860D02*
X+2318104Y+7634620D01*
X+2318104Y+7604140D01*
X+2445104Y+7680340D02*
X+2429229Y+7695580D01*
X+2381604Y+7695580D01*
X+2365729Y+7680340D01*
X+2365729Y+7619380D01*
X+2381604Y+7604140D01*
X+2429229Y+7604140D01*
X+2445104Y+7619380D01*
X+2445104Y+7634620D01*
X+2429229Y+7649860D01*
X+2365729Y+7649860D01*
X+3214854Y+8750000D02*
X+3219934Y+8775876D01*
X+3234539Y+8799848D01*
X+3257716Y+8821438D01*
X+3288514Y+8840170D01*
X+3325979Y+8855569D01*
X+3369159Y+8867158D01*
X+3417102Y+8874460D01*
X+3468854Y+8877000D01*
X+3722854Y+8750000D02*
X+3717774Y+8775876D01*
X+3703169Y+8799848D01*
X+3679992Y+8821438D01*
X+3649194Y+8840170D01*
X+3611729Y+8855569D01*
X+3568549Y+8867158D01*
X+3520606Y+8874460D01*
X+3468854Y+8877000D01*
X+3214854Y+8750000D02*
X+3219934Y+8724124D01*
X+3234539Y+8700152D01*
X+3257716Y+8678562D01*
X+3288514Y+8659830D01*
X+3325979Y+8644431D01*
X+3369159Y+8632842D01*
X+3417102Y+8625540D01*
X+3468854Y+8623000D01*
X+3722854Y+8750000D02*
X+3717774Y+8724124D01*
X+3703169Y+8700152D01*
X+3679992Y+8678562D01*
X+3649194Y+8659830D01*
X+3611729Y+8644431D01*
X+3568549Y+8632842D01*
X+3520606Y+8625540D01*
X+3468854Y+8623000D01*
X+3437104Y+8932880D02*
X+3421229Y+8917640D01*
X+3373604Y+8917640D01*
X+3341854Y+8948120D01*
X+3341854Y+8978600D01*
X+3373604Y+9009080D01*
X+3421229Y+9009080D01*
X+3437104Y+8993840D01*
X+3564104Y+8948120D02*
X+3468854Y+8948120D01*
X+3532354Y+9009080D01*
X+3532354Y+8917640D01*
X+3214854Y+7750000D02*
X+3219934Y+7775876D01*
X+3234539Y+7799848D01*
X+3257716Y+7821438D01*
X+3288514Y+7840170D01*
X+3325979Y+7855569D01*
X+3369159Y+7867158D01*
X+3417102Y+7874460D01*
X+3468854Y+7877000D01*
X+3722854Y+7750000D02*
X+3717774Y+7775876D01*
X+3703169Y+7799848D01*
X+3679992Y+7821438D01*
X+3649194Y+7840170D01*
X+3611729Y+7855569D01*
X+3568549Y+7867158D01*
X+3520606Y+7874460D01*
X+3468854Y+7877000D01*
X+3214854Y+7750000D02*
X+3219934Y+7724124D01*
X+3234539Y+7700152D01*
X+3257716Y+7678562D01*
X+3288514Y+7659830D01*
X+3325979Y+7644431D01*
X+3369159Y+7632842D01*
X+3417102Y+7625540D01*
X+3468854Y+7623000D01*
X+3722854Y+7750000D02*
X+3717774Y+7724124D01*
X+3703169Y+7700152D01*
X+3679992Y+7678562D01*
X+3649194Y+7659830D01*
X+3611729Y+7644431D01*
X+3568549Y+7632842D01*
X+3520606Y+7625540D01*
X+3468854Y+7623000D01*
X+3437104Y+7932880D02*
X+3421229Y+7917640D01*
X+3373604Y+7917640D01*
X+3341854Y+7948120D01*
X+3341854Y+7978600D01*
X+3373604Y+8009080D01*
X+3421229Y+8009080D01*
X+3437104Y+7993840D01*
X+3564104Y+8009080D02*
X+3484729Y+8009080D01*
X+3484729Y+7978600D01*
X+3548229Y+7978600D01*
X+3564104Y+7963360D01*
X+3564104Y+7932880D01*
X+3548229Y+7917640D01*
X+3500604Y+7917640D01*
X+3484729Y+7932880D01*
D18*
X+4820454Y+8250000D02*
X+4820323Y+8253158D01*
X+4819257Y+8259476D01*
X+4817026Y+8265794D01*
X+4813381Y+8272112D01*
X+4807806Y+8278351D01*
X+4801488Y+8282947D01*
X+4795170Y+8285880D01*
X+4788852Y+8287542D01*
X+4782534Y+8288100D01*
X+4782354Y+8288100D01*
X+4744254Y+8250000D02*
X+4744385Y+8253158D01*
X+4745451Y+8259476D01*
X+4747682Y+8265794D01*
X+4751327Y+8272112D01*
X+4756902Y+8278351D01*
X+4763220Y+8282947D01*
X+4769538Y+8285880D01*
X+4775856Y+8287542D01*
X+4782174Y+8288100D01*
X+4782354Y+8288100D01*
X+4744254Y+8250000D02*
X+4744385Y+8246842D01*
X+4745451Y+8240524D01*
X+4747682Y+8234206D01*
X+4751327Y+8227888D01*
X+4756902Y+8221649D01*
X+4763220Y+8217053D01*
X+4769538Y+8214120D01*
X+4775856Y+8212458D01*
X+4782174Y+8211900D01*
X+4782354Y+8211900D01*
X+4820454Y+8250000D02*
X+4820323Y+8246842D01*
X+4819257Y+8240524D01*
X+4817026Y+8234206D01*
X+4813381Y+8227888D01*
X+4807806Y+8221649D01*
X+4801488Y+8217053D01*
X+4795170Y+8214120D01*
X+4788852Y+8212458D01*
X+4782534Y+8211900D01*
X+4782354Y+8211900D01*
D19*
X+4692514Y+8101080D02*
X+4692514Y+8227593D01*
X+4692514Y+8598920D02*
X+4491854Y+8598920D01*
X+4491854Y+8475191D01*
X+4491854Y+8101080D02*
X+4692514Y+8101080D01*
X+4692514Y+8472407D02*
X+4692514Y+8598920D01*
X+4491854Y+8424809D02*
X+4491854Y+8275191D01*
X+4491854Y+8224809D02*
X+4491854Y+8101080D01*
X+4692514Y+8272407D02*
X+4692514Y+8427593D01*
D70*
X+4392794Y+7842000D02*
X+4362314Y+7873750D01*
X+4362314Y+7905500D01*
X+4392794Y+7937250D01*
X+4423274Y+7937250D01*
X+4453754Y+7905500D01*
X+4453754Y+7873750D01*
X+4423274Y+7842000D01*
X+4392794Y+7842000D01*
X+4453754Y+7969000D02*
X+4362314Y+7969000D01*
X+4362314Y+8048375D01*
X+4377554Y+8064250D01*
X+4392794Y+8064250D01*
X+4408034Y+8048375D01*
X+4408034Y+7969000D01*
X+4453754Y+8223000D02*
X+4362314Y+8223000D01*
X+4362314Y+8286500D01*
X+4392794Y+8318250D01*
X+4423274Y+8318250D01*
X+4453754Y+8286500D01*
X+4453754Y+8223000D01*
X+4453754Y+8445250D02*
X+4453754Y+8350000D01*
X+4362314Y+8350000D01*
X+4362314Y+8445250D01*
X+4408034Y+8350000D02*
X+4408034Y+8413500D01*
X+4453754Y+8477000D02*
X+4362314Y+8477000D01*
X+4408034Y+8524625D01*
X+4362314Y+8572250D01*
X+4453754Y+8572250D01*
X+4392794Y+8604000D02*
X+4362314Y+8635750D01*
X+4362314Y+8667500D01*
X+4392794Y+8699250D01*
X+4423274Y+8699250D01*
X+4453754Y+8667500D01*
X+4453754Y+8635750D01*
X+4423274Y+8604000D01*
X+4392794Y+8604000D01*
X+4453754Y+8731000D02*
X+4362314Y+8731000D01*
X+4362314Y+8794500D01*
X+4392794Y+8826250D01*
X+4423274Y+8826250D01*
X+4453754Y+8794500D01*
X+4453754Y+8731000D01*
X-10000000Y+6500000D02*
X-4500000Y+6500000D01*
X-4500000Y+9750000D01*
X-10000000Y+9750000D01*
X-10000000Y+6500000D01*
D71*
X-7734760Y+9216536D02*
X-7719520Y+9216536D01*
X-7673800Y+9216536D02*
X-7668720Y+9216536D01*
X-7617920Y+9216536D02*
X-7602680Y+9216536D01*
X-7546800Y+9216536D02*
X-7516320Y+9216536D01*
X-7450280Y+9216536D02*
X-7419800Y+9216536D01*
X-7404560Y+9216536D02*
X-7389320Y+9216536D01*
X-7338520Y+9216536D02*
X-7313120Y+9216536D01*
X-7297880Y+9216536D02*
X-7282640Y+9216536D01*
X-7257240Y+9216536D02*
X-7242000Y+9216536D01*
X-7201360Y+9216536D02*
X-7175960Y+9216536D01*
X-7160720Y+9216536D02*
X-7145480Y+9216536D01*
X-7104840Y+9216536D02*
X-7079440Y+9216536D01*
X-7059120Y+9216536D02*
X-7043880Y+9216536D01*
X-6988000Y+9216536D02*
X-6957520Y+9216536D01*
X-6906720Y+9216536D02*
X-6891480Y+9216536D01*
X-6845760Y+9216536D02*
X-6830520Y+9216536D01*
X-7734760Y+9221616D02*
X-7719520Y+9221616D01*
X-7678880Y+9221616D02*
X-7663640Y+9221616D01*
X-7617920Y+9221616D02*
X-7602680Y+9221616D01*
X-7556960Y+9221616D02*
X-7506160Y+9221616D01*
X-7455360Y+9221616D02*
X-7414720Y+9221616D01*
X-7404560Y+9221616D02*
X-7389320Y+9221616D01*
X-7348680Y+9221616D02*
X-7302960Y+9221616D01*
X-7297880Y+9221616D02*
X-7282640Y+9221616D01*
X-7257240Y+9221616D02*
X-7242000Y+9221616D01*
X-7211520Y+9221616D02*
X-7165800Y+9221616D01*
X-7160720Y+9221616D02*
X-7145480Y+9221616D01*
X-7109920Y+9221616D02*
X-7074360Y+9221616D01*
X-7059120Y+9221616D02*
X-7043880Y+9221616D01*
X-6998160Y+9221616D02*
X-6947360Y+9221616D01*
X-6906720Y+9221616D02*
X-6891480Y+9221616D01*
X-6845760Y+9221616D02*
X-6830520Y+9221616D01*
X-7734760Y+9226696D02*
X-7719520Y+9226696D01*
X-7678880Y+9226696D02*
X-7663640Y+9226696D01*
X-7617920Y+9226696D02*
X-7602680Y+9226696D01*
X-7567120Y+9226696D02*
X-7541720Y+9226696D01*
X-7516320Y+9226696D02*
X-7496000Y+9226696D01*
X-7460440Y+9226696D02*
X-7440120Y+9226696D01*
X-7419800Y+9226696D02*
X-7409640Y+9226696D01*
X-7404560Y+9226696D02*
X-7389320Y+9226696D01*
X-7353760Y+9226696D02*
X-7333440Y+9226696D01*
X-7313120Y+9226696D02*
X-7302960Y+9226696D01*
X-7297880Y+9226696D02*
X-7282640Y+9226696D01*
X-7257240Y+9226696D02*
X-7242000Y+9226696D01*
X-7211520Y+9226696D02*
X-7196280Y+9226696D01*
X-7175960Y+9226696D02*
X-7145480Y+9226696D01*
X-7115000Y+9226696D02*
X-7094680Y+9226696D01*
X-7079440Y+9226696D02*
X-7074360Y+9226696D01*
X-7059120Y+9226696D02*
X-7043880Y+9226696D01*
X-7008320Y+9226696D02*
X-6982920Y+9226696D01*
X-6957520Y+9226696D02*
X-6937200Y+9226696D01*
X-6906720Y+9226696D02*
X-6891480Y+9226696D01*
X-6845760Y+9226696D02*
X-6830520Y+9226696D01*
X-7734760Y+9231776D02*
X-7719520Y+9231776D01*
X-7678880Y+9231776D02*
X-7658560Y+9231776D01*
X-7617920Y+9231776D02*
X-7602680Y+9231776D01*
X-7567120Y+9231776D02*
X-7551880Y+9231776D01*
X-7511240Y+9231776D02*
X-7496000Y+9231776D01*
X-7465520Y+9231776D02*
X-7445200Y+9231776D01*
X-7414720Y+9231776D02*
X-7389320Y+9231776D01*
X-7353760Y+9231776D02*
X-7338520Y+9231776D01*
X-7302960Y+9231776D02*
X-7282640Y+9231776D01*
X-7257240Y+9231776D02*
X-7242000Y+9231776D01*
X-7216600Y+9231776D02*
X-7201360Y+9231776D01*
X-7165800Y+9231776D02*
X-7145480Y+9231776D01*
X-7115000Y+9231776D02*
X-7099760Y+9231776D01*
X-7059120Y+9231776D02*
X-7043880Y+9231776D01*
X-7008320Y+9231776D02*
X-6993080Y+9231776D01*
X-6952440Y+9231776D02*
X-6937200Y+9231776D01*
X-6906720Y+9231776D02*
X-6891480Y+9231776D01*
X-6845760Y+9231776D02*
X-6830520Y+9231776D01*
X-7734760Y+9236856D02*
X-7719520Y+9236856D01*
X-7683960Y+9236856D02*
X-7673800Y+9236856D01*
X-7668720Y+9236856D02*
X-7658560Y+9236856D01*
X-7617920Y+9236856D02*
X-7602680Y+9236856D01*
X-7572200Y+9236856D02*
X-7556960Y+9236856D01*
X-7506160Y+9236856D02*
X-7490920Y+9236856D01*
X-7465520Y+9236856D02*
X-7450280Y+9236856D01*
X-7409640Y+9236856D02*
X-7389320Y+9236856D01*
X-7358840Y+9236856D02*
X-7343600Y+9236856D01*
X-7302960Y+9236856D02*
X-7282640Y+9236856D01*
X-7257240Y+9236856D02*
X-7242000Y+9236856D01*
X-7216600Y+9236856D02*
X-7201360Y+9236856D01*
X-7165800Y+9236856D02*
X-7145480Y+9236856D01*
X-7115000Y+9236856D02*
X-7099760Y+9236856D01*
X-7059120Y+9236856D02*
X-7043880Y+9236856D01*
X-7013400Y+9236856D02*
X-6998160Y+9236856D01*
X-6947360Y+9236856D02*
X-6932120Y+9236856D01*
X-6906720Y+9236856D02*
X-6891480Y+9236856D01*
X-6845760Y+9236856D02*
X-6830520Y+9236856D01*
X-7734760Y+9241936D02*
X-7719520Y+9241936D01*
X-7683960Y+9241936D02*
X-7673800Y+9241936D01*
X-7668720Y+9241936D02*
X-7653480Y+9241936D01*
X-7617920Y+9241936D02*
X-7602680Y+9241936D01*
X-7572200Y+9241936D02*
X-7556960Y+9241936D01*
X-7506160Y+9241936D02*
X-7490920Y+9241936D01*
X-7470600Y+9241936D02*
X-7455360Y+9241936D01*
X-7404560Y+9241936D02*
X-7389320Y+9241936D01*
X-7358840Y+9241936D02*
X-7343600Y+9241936D01*
X-7297880Y+9241936D02*
X-7282640Y+9241936D01*
X-7257240Y+9241936D02*
X-7242000Y+9241936D01*
X-7216600Y+9241936D02*
X-7201360Y+9241936D01*
X-7160720Y+9241936D02*
X-7145480Y+9241936D01*
X-7115000Y+9241936D02*
X-7099760Y+9241936D01*
X-7059120Y+9241936D02*
X-7043880Y+9241936D01*
X-7013400Y+9241936D02*
X-6998160Y+9241936D01*
X-6947360Y+9241936D02*
X-6932120Y+9241936D01*
X-6906720Y+9241936D02*
X-6891480Y+9241936D01*
X-6845760Y+9241936D02*
X-6830520Y+9241936D01*
X-7734760Y+9247016D02*
X-7719520Y+9247016D01*
X-7689040Y+9247016D02*
X-7673800Y+9247016D01*
X-7668720Y+9247016D02*
X-7653480Y+9247016D01*
X-7617920Y+9247016D02*
X-7602680Y+9247016D01*
X-7577280Y+9247016D02*
X-7562040Y+9247016D01*
X-7501080Y+9247016D02*
X-7485840Y+9247016D01*
X-7470600Y+9247016D02*
X-7455360Y+9247016D01*
X-7404560Y+9247016D02*
X-7389320Y+9247016D01*
X-7358840Y+9247016D02*
X-7343600Y+9247016D01*
X-7297880Y+9247016D02*
X-7282640Y+9247016D01*
X-7257240Y+9247016D02*
X-7242000Y+9247016D01*
X-7216600Y+9247016D02*
X-7201360Y+9247016D01*
X-7160720Y+9247016D02*
X-7145480Y+9247016D01*
X-7115000Y+9247016D02*
X-7099760Y+9247016D01*
X-7059120Y+9247016D02*
X-7043880Y+9247016D01*
X-7018480Y+9247016D02*
X-7003240Y+9247016D01*
X-6942280Y+9247016D02*
X-6927040Y+9247016D01*
X-6906720Y+9247016D02*
X-6891480Y+9247016D01*
X-6845760Y+9247016D02*
X-6830520Y+9247016D01*
X-7734760Y+9252096D02*
X-7719520Y+9252096D01*
X-7689040Y+9252096D02*
X-7678880Y+9252096D01*
X-7663640Y+9252096D02*
X-7653480Y+9252096D01*
X-7617920Y+9252096D02*
X-7602680Y+9252096D01*
X-7577280Y+9252096D02*
X-7562040Y+9252096D01*
X-7501080Y+9252096D02*
X-7485840Y+9252096D01*
X-7470600Y+9252096D02*
X-7455360Y+9252096D01*
X-7404560Y+9252096D02*
X-7389320Y+9252096D01*
X-7358840Y+9252096D02*
X-7343600Y+9252096D01*
X-7297880Y+9252096D02*
X-7282640Y+9252096D01*
X-7257240Y+9252096D02*
X-7242000Y+9252096D01*
X-7211520Y+9252096D02*
X-7196280Y+9252096D01*
X-7160720Y+9252096D02*
X-7145480Y+9252096D01*
X-7115000Y+9252096D02*
X-7099760Y+9252096D01*
X-7059120Y+9252096D02*
X-7043880Y+9252096D01*
X-7018480Y+9252096D02*
X-7003240Y+9252096D01*
X-6942280Y+9252096D02*
X-6927040Y+9252096D01*
X-6906720Y+9252096D02*
X-6891480Y+9252096D01*
X-6845760Y+9252096D02*
X-6830520Y+9252096D01*
X-7734760Y+9257176D02*
X-7719520Y+9257176D01*
X-7689040Y+9257176D02*
X-7678880Y+9257176D01*
X-7663640Y+9257176D02*
X-7648400Y+9257176D01*
X-7617920Y+9257176D02*
X-7602680Y+9257176D01*
X-7577280Y+9257176D02*
X-7562040Y+9257176D01*
X-7501080Y+9257176D02*
X-7485840Y+9257176D01*
X-7470600Y+9257176D02*
X-7455360Y+9257176D01*
X-7404560Y+9257176D02*
X-7389320Y+9257176D01*
X-7358840Y+9257176D02*
X-7343600Y+9257176D01*
X-7297880Y+9257176D02*
X-7282640Y+9257176D01*
X-7257240Y+9257176D02*
X-7242000Y+9257176D01*
X-7211520Y+9257176D02*
X-7181040Y+9257176D01*
X-7160720Y+9257176D02*
X-7145480Y+9257176D01*
X-7115000Y+9257176D02*
X-7099760Y+9257176D01*
X-7059120Y+9257176D02*
X-7043880Y+9257176D01*
X-7018480Y+9257176D02*
X-7003240Y+9257176D01*
X-6942280Y+9257176D02*
X-6927040Y+9257176D01*
X-6906720Y+9257176D02*
X-6891480Y+9257176D01*
X-6845760Y+9257176D02*
X-6830520Y+9257176D01*
X-7734760Y+9262256D02*
X-7719520Y+9262256D01*
X-7694120Y+9262256D02*
X-7683960Y+9262256D01*
X-7658560Y+9262256D02*
X-7648400Y+9262256D01*
X-7617920Y+9262256D02*
X-7602680Y+9262256D01*
X-7577280Y+9262256D02*
X-7562040Y+9262256D01*
X-7501080Y+9262256D02*
X-7485840Y+9262256D01*
X-7470600Y+9262256D02*
X-7455360Y+9262256D01*
X-7404560Y+9262256D02*
X-7389320Y+9262256D01*
X-7358840Y+9262256D02*
X-7343600Y+9262256D01*
X-7297880Y+9262256D02*
X-7282640Y+9262256D01*
X-7257240Y+9262256D02*
X-7242000Y+9262256D01*
X-7201360Y+9262256D02*
X-7145480Y+9262256D01*
X-7115000Y+9262256D02*
X-7099760Y+9262256D01*
X-7059120Y+9262256D02*
X-7043880Y+9262256D01*
X-7018480Y+9262256D02*
X-7003240Y+9262256D01*
X-6942280Y+9262256D02*
X-6927040Y+9262256D01*
X-6906720Y+9262256D02*
X-6891480Y+9262256D01*
X-6845760Y+9262256D02*
X-6830520Y+9262256D01*
X-7734760Y+9267336D02*
X-7719520Y+9267336D01*
X-7694120Y+9267336D02*
X-7683960Y+9267336D01*
X-7658560Y+9267336D02*
X-7643320Y+9267336D01*
X-7617920Y+9267336D02*
X-7602680Y+9267336D01*
X-7577280Y+9267336D02*
X-7562040Y+9267336D01*
X-7501080Y+9267336D02*
X-7485840Y+9267336D01*
X-7470600Y+9267336D02*
X-7455360Y+9267336D01*
X-7404560Y+9267336D02*
X-7389320Y+9267336D01*
X-7358840Y+9267336D02*
X-7343600Y+9267336D01*
X-7297880Y+9267336D02*
X-7282640Y+9267336D01*
X-7257240Y+9267336D02*
X-7242000Y+9267336D01*
X-7181040Y+9267336D02*
X-7145480Y+9267336D01*
X-7115000Y+9267336D02*
X-7099760Y+9267336D01*
X-7059120Y+9267336D02*
X-7043880Y+9267336D01*
X-7018480Y+9267336D02*
X-7003240Y+9267336D01*
X-6942280Y+9267336D02*
X-6927040Y+9267336D01*
X-6906720Y+9267336D02*
X-6891480Y+9267336D01*
X-6845760Y+9267336D02*
X-6830520Y+9267336D01*
X-7734760Y+9272416D02*
X-7719520Y+9272416D01*
X-7699200Y+9272416D02*
X-7683960Y+9272416D01*
X-7653480Y+9272416D02*
X-7643320Y+9272416D01*
X-7617920Y+9272416D02*
X-7602680Y+9272416D01*
X-7577280Y+9272416D02*
X-7562040Y+9272416D01*
X-7501080Y+9272416D02*
X-7485840Y+9272416D01*
X-7470600Y+9272416D02*
X-7455360Y+9272416D01*
X-7404560Y+9272416D02*
X-7389320Y+9272416D01*
X-7358840Y+9272416D02*
X-7343600Y+9272416D01*
X-7297880Y+9272416D02*
X-7282640Y+9272416D01*
X-7257240Y+9272416D02*
X-7242000Y+9272416D01*
X-7160720Y+9272416D02*
X-7145480Y+9272416D01*
X-7115000Y+9272416D02*
X-7099760Y+9272416D01*
X-7059120Y+9272416D02*
X-7043880Y+9272416D01*
X-7018480Y+9272416D02*
X-7003240Y+9272416D01*
X-6942280Y+9272416D02*
X-6927040Y+9272416D01*
X-6906720Y+9272416D02*
X-6891480Y+9272416D01*
X-6845760Y+9272416D02*
X-6830520Y+9272416D01*
X-7734760Y+9277496D02*
X-7719520Y+9277496D01*
X-7699200Y+9277496D02*
X-7689040Y+9277496D01*
X-7653480Y+9277496D02*
X-7638240Y+9277496D01*
X-7617920Y+9277496D02*
X-7602680Y+9277496D01*
X-7572200Y+9277496D02*
X-7556960Y+9277496D01*
X-7506160Y+9277496D02*
X-7485840Y+9277496D01*
X-7465520Y+9277496D02*
X-7450280Y+9277496D01*
X-7404560Y+9277496D02*
X-7389320Y+9277496D01*
X-7358840Y+9277496D02*
X-7343600Y+9277496D01*
X-7297880Y+9277496D02*
X-7282640Y+9277496D01*
X-7257240Y+9277496D02*
X-7242000Y+9277496D01*
X-7160720Y+9277496D02*
X-7145480Y+9277496D01*
X-7115000Y+9277496D02*
X-7099760Y+9277496D01*
X-7059120Y+9277496D02*
X-7043880Y+9277496D01*
X-7013400Y+9277496D02*
X-6998160Y+9277496D01*
X-6947360Y+9277496D02*
X-6927040Y+9277496D01*
X-6906720Y+9277496D02*
X-6891480Y+9277496D01*
X-6845760Y+9277496D02*
X-6830520Y+9277496D01*
X-7734760Y+9282576D02*
X-7719520Y+9282576D01*
X-7704280Y+9282576D02*
X-7689040Y+9282576D01*
X-7648400Y+9282576D02*
X-7638240Y+9282576D01*
X-7617920Y+9282576D02*
X-7602680Y+9282576D01*
X-7572200Y+9282576D02*
X-7556960Y+9282576D01*
X-7506160Y+9282576D02*
X-7490920Y+9282576D01*
X-7465520Y+9282576D02*
X-7450280Y+9282576D01*
X-7409640Y+9282576D02*
X-7389320Y+9282576D01*
X-7358840Y+9282576D02*
X-7343600Y+9282576D01*
X-7297880Y+9282576D02*
X-7282640Y+9282576D01*
X-7257240Y+9282576D02*
X-7242000Y+9282576D01*
X-7160720Y+9282576D02*
X-7145480Y+9282576D01*
X-7115000Y+9282576D02*
X-7099760Y+9282576D01*
X-7059120Y+9282576D02*
X-7043880Y+9282576D01*
X-7013400Y+9282576D02*
X-6998160Y+9282576D01*
X-6947360Y+9282576D02*
X-6932120Y+9282576D01*
X-6906720Y+9282576D02*
X-6886400Y+9282576D01*
X-6845760Y+9282576D02*
X-6830520Y+9282576D01*
X-7734760Y+9287656D02*
X-7719520Y+9287656D01*
X-7704280Y+9287656D02*
X-7694120Y+9287656D01*
X-7648400Y+9287656D02*
X-7633160Y+9287656D01*
X-7617920Y+9287656D02*
X-7602680Y+9287656D01*
X-7567120Y+9287656D02*
X-7551880Y+9287656D01*
X-7511240Y+9287656D02*
X-7490920Y+9287656D01*
X-7465520Y+9287656D02*
X-7445200Y+9287656D01*
X-7409640Y+9287656D02*
X-7389320Y+9287656D01*
X-7358840Y+9287656D02*
X-7343600Y+9287656D01*
X-7297880Y+9287656D02*
X-7282640Y+9287656D01*
X-7257240Y+9287656D02*
X-7242000Y+9287656D01*
X-7165800Y+9287656D02*
X-7145480Y+9287656D01*
X-7115000Y+9287656D02*
X-7099760Y+9287656D01*
X-7059120Y+9287656D02*
X-7043880Y+9287656D01*
X-7008320Y+9287656D02*
X-6993080Y+9287656D01*
X-6952440Y+9287656D02*
X-6932120Y+9287656D01*
X-6906720Y+9287656D02*
X-6881320Y+9287656D01*
X-6850840Y+9287656D02*
X-6835600Y+9287656D01*
X-7734760Y+9292736D02*
X-7719520Y+9292736D01*
X-7704280Y+9292736D02*
X-7694120Y+9292736D01*
X-7648400Y+9292736D02*
X-7633160Y+9292736D01*
X-7617920Y+9292736D02*
X-7602680Y+9292736D01*
X-7567120Y+9292736D02*
X-7541720Y+9292736D01*
X-7516320Y+9292736D02*
X-7496000Y+9292736D01*
X-7460440Y+9292736D02*
X-7440120Y+9292736D01*
X-7419800Y+9292736D02*
X-7389320Y+9292736D01*
X-7358840Y+9292736D02*
X-7343600Y+9292736D01*
X-7297880Y+9292736D02*
X-7282640Y+9292736D01*
X-7257240Y+9292736D02*
X-7242000Y+9292736D01*
X-7206440Y+9292736D02*
X-7196280Y+9292736D01*
X-7170880Y+9292736D02*
X-7150560Y+9292736D01*
X-7115000Y+9292736D02*
X-7099760Y+9292736D01*
X-7059120Y+9292736D02*
X-7043880Y+9292736D01*
X-7008320Y+9292736D02*
X-6982920Y+9292736D01*
X-6957520Y+9292736D02*
X-6937200Y+9292736D01*
X-6906720Y+9292736D02*
X-6891480Y+9292736D01*
X-6886400Y+9292736D02*
X-6876240Y+9292736D01*
X-6855920Y+9292736D02*
X-6835600Y+9292736D01*
X-7734760Y+9297816D02*
X-7719520Y+9297816D01*
X-7709360Y+9297816D02*
X-7694120Y+9297816D01*
X-7643320Y+9297816D02*
X-7628080Y+9297816D01*
X-7617920Y+9297816D02*
X-7602680Y+9297816D01*
X-7556960Y+9297816D02*
X-7501080Y+9297816D01*
X-7455360Y+9297816D02*
X-7409640Y+9297816D01*
X-7404560Y+9297816D02*
X-7389320Y+9297816D01*
X-7358840Y+9297816D02*
X-7343600Y+9297816D01*
X-7297880Y+9297816D02*
X-7282640Y+9297816D01*
X-7257240Y+9297816D02*
X-7242000Y+9297816D01*
X-7206440Y+9297816D02*
X-7155640Y+9297816D01*
X-7130240Y+9297816D02*
X-7074360Y+9297816D01*
X-7059120Y+9297816D02*
X-7043880Y+9297816D01*
X-6998160Y+9297816D02*
X-6942280Y+9297816D01*
X-6906720Y+9297816D02*
X-6891480Y+9297816D01*
X-6881320Y+9297816D02*
X-6840680Y+9297816D01*
X-7734760Y+9302896D02*
X-7719520Y+9302896D01*
X-7709360Y+9302896D02*
X-7699200Y+9302896D01*
X-7643320Y+9302896D02*
X-7628080Y+9302896D01*
X-7617920Y+9302896D02*
X-7602680Y+9302896D01*
X-7546800Y+9302896D02*
X-7511240Y+9302896D01*
X-7445200Y+9302896D02*
X-7419800Y+9302896D01*
X-7404560Y+9302896D02*
X-7389320Y+9302896D01*
X-7358840Y+9302896D02*
X-7343600Y+9302896D01*
X-7297880Y+9302896D02*
X-7282640Y+9302896D01*
X-7257240Y+9302896D02*
X-7242000Y+9302896D01*
X-7191200Y+9302896D02*
X-7160720Y+9302896D01*
X-7130240Y+9302896D02*
X-7074360Y+9302896D01*
X-7059120Y+9302896D02*
X-7043880Y+9302896D01*
X-6988000Y+9302896D02*
X-6952440Y+9302896D01*
X-6906720Y+9302896D02*
X-6891480Y+9302896D01*
X-6876240Y+9302896D02*
X-6845760Y+9302896D01*
X-7734760Y+9307976D02*
X-7719520Y+9307976D01*
X-7714440Y+9307976D02*
X-7699200Y+9307976D01*
X-7638240Y+9307976D02*
X-7628080Y+9307976D01*
X-7617920Y+9307976D02*
X-7602680Y+9307976D01*
X-7404560Y+9307976D02*
X-7389320Y+9307976D01*
X-7257240Y+9307976D02*
X-7242000Y+9307976D01*
X-7115000Y+9307976D02*
X-7099760Y+9307976D01*
X-7734760Y+9313056D02*
X-7719520Y+9313056D01*
X-7714440Y+9313056D02*
X-7699200Y+9313056D01*
X-7638240Y+9313056D02*
X-7623000Y+9313056D01*
X-7617920Y+9313056D02*
X-7602680Y+9313056D01*
X-7404560Y+9313056D02*
X-7389320Y+9313056D01*
X-7257240Y+9313056D02*
X-7242000Y+9313056D01*
X-7115000Y+9313056D02*
X-7099760Y+9313056D01*
X-7734760Y+9318136D02*
X-7719520Y+9318136D01*
X-7714440Y+9318136D02*
X-7704280Y+9318136D01*
X-7633160Y+9318136D02*
X-7623000Y+9318136D01*
X-7617920Y+9318136D02*
X-7602680Y+9318136D01*
X-7404560Y+9318136D02*
X-7389320Y+9318136D01*
X-7257240Y+9318136D02*
X-7242000Y+9318136D01*
X-7115000Y+9318136D02*
X-7099760Y+9318136D01*
X-7734760Y+9323216D02*
X-7704280Y+9323216D01*
X-7633160Y+9323216D02*
X-7602680Y+9323216D01*
X-7404560Y+9323216D02*
X-7389320Y+9323216D01*
X-7257240Y+9323216D02*
X-7242000Y+9323216D01*
X-7115000Y+9323216D02*
X-7099760Y+9323216D01*
X-7734760Y+9328296D02*
X-7709360Y+9328296D01*
X-7633160Y+9328296D02*
X-7602680Y+9328296D01*
X-7404560Y+9328296D02*
X-7389320Y+9328296D01*
X-7257240Y+9328296D02*
X-7242000Y+9328296D01*
X-7109920Y+9328296D02*
X-7099760Y+9328296D01*
X-7054040Y+9328296D02*
X-7043880Y+9328296D01*
X-7734760Y+9333376D02*
X-7709360Y+9333376D01*
X-7628080Y+9333376D02*
X-7602680Y+9333376D01*
X-7404560Y+9333376D02*
X-7389320Y+9333376D01*
X-7257240Y+9333376D02*
X-7242000Y+9333376D01*
X-7059120Y+9333376D02*
X-7038800Y+9333376D01*
X-7734760Y+9338456D02*
X-7709360Y+9338456D01*
X-7628080Y+9338456D02*
X-7602680Y+9338456D01*
X-7404560Y+9338456D02*
X-7389320Y+9338456D01*
X-7257240Y+9338456D02*
X-7242000Y+9338456D01*
X-7059120Y+9338456D02*
X-7038800Y+9338456D01*
X-7734760Y+9343536D02*
X-7714440Y+9343536D01*
X-7623000Y+9343536D02*
X-7602680Y+9343536D01*
X-7404560Y+9343536D02*
X-7389320Y+9343536D01*
X-7257240Y+9343536D02*
X-7242000Y+9343536D01*
X-7054040Y+9343536D02*
X-7043880Y+9343536D01*
X-7404560Y+9348616D02*
X-7389320Y+9348616D01*
X-7257240Y+9348616D02*
X-7242000Y+9348616D01*
X-9497444Y+8699801D02*
X-9487284Y+8699801D01*
X-9461884Y+8699801D02*
X-9451724Y+8699801D01*
X-9431404Y+8699801D02*
X-9421244Y+8699801D01*
X-9497444Y+8704881D02*
X-9487284Y+8704881D01*
X-9461884Y+8704881D02*
X-9451724Y+8704881D01*
X-9431404Y+8704881D02*
X-9421244Y+8704881D01*
X-9548244Y+8709961D02*
X-9543164Y+8709961D01*
X-9497444Y+8709961D02*
X-9487284Y+8709961D01*
X-9461884Y+8709961D02*
X-9451724Y+8709961D01*
X-9431404Y+8709961D02*
X-9421244Y+8709961D01*
X-9548244Y+8715041D02*
X-9543164Y+8715041D01*
X-9497444Y+8715041D02*
X-9487284Y+8715041D01*
X-9461884Y+8715041D02*
X-9451724Y+8715041D01*
X-9431404Y+8715041D02*
X-9421244Y+8715041D01*
X-9548244Y+8720121D02*
X-9543164Y+8720121D01*
X-9497444Y+8720121D02*
X-9487284Y+8720121D01*
X-9461884Y+8720121D02*
X-9451724Y+8720121D01*
X-9431404Y+8720121D02*
X-9421244Y+8720121D01*
X-9548244Y+8725201D02*
X-9543164Y+8725201D01*
X-9497444Y+8725201D02*
X-9487284Y+8725201D01*
X-9461884Y+8725201D02*
X-9451724Y+8725201D01*
X-9431404Y+8725201D02*
X-9421244Y+8725201D01*
X-9568564Y+8730281D02*
X-9522844Y+8730281D01*
X-9497444Y+8730281D02*
X-9487284Y+8730281D01*
X-9461884Y+8730281D02*
X-9451724Y+8730281D01*
X-9431404Y+8730281D02*
X-9421244Y+8730281D01*
X-9548244Y+8735361D02*
X-9543164Y+8735361D01*
X-9497444Y+8735361D02*
X-9487284Y+8735361D01*
X-9461884Y+8735361D02*
X-9451724Y+8735361D01*
X-9431404Y+8735361D02*
X-9421244Y+8735361D01*
X-9548244Y+8740441D02*
X-9543164Y+8740441D01*
X-9497444Y+8740441D02*
X-9482204Y+8740441D01*
X-9466964Y+8740441D02*
X-9446644Y+8740441D01*
X-9436484Y+8740441D02*
X-9421244Y+8740441D01*
X-9548244Y+8745521D02*
X-9543164Y+8745521D01*
X-9497444Y+8745521D02*
X-9456804Y+8745521D01*
X-9451724Y+8745521D02*
X-9426324Y+8745521D01*
X-9548244Y+8750601D02*
X-9543164Y+8750601D01*
X-9497444Y+8750601D02*
X-9487284Y+8750601D01*
X-9482204Y+8750601D02*
X-9461884Y+8750601D01*
X-9446644Y+8750601D02*
X-9426324Y+8750601D01*
X-9536646Y+7725201D02*
X-9536646Y+7735361D01*
X-9531566Y+7725201D02*
X-9531566Y+7735361D01*
X-9526486Y+7725201D02*
X-9526486Y+7735361D01*
X-9521406Y+7725201D02*
X-9521406Y+7735361D01*
X-9516326Y+7725201D02*
X-9516326Y+7735361D01*
X-9511246Y+7725201D02*
X-9511246Y+7735361D01*
X-9496006Y+7715041D02*
X-9496006Y+7740441D01*
X-9490926Y+7704881D02*
X-9490926Y+7745521D01*
X-9485846Y+7704881D02*
X-9485846Y+7715041D01*
X-9485846Y+7735361D02*
X-9485846Y+7750601D01*
X-9480766Y+7699801D02*
X-9480766Y+7709961D01*
X-9480766Y+7740441D02*
X-9480766Y+7755681D01*
X-9475686Y+7699801D02*
X-9475686Y+7709961D01*
X-9475686Y+7745521D02*
X-9475686Y+7755681D01*
X-9470606Y+7699801D02*
X-9470606Y+7709961D01*
X-9470606Y+7745521D02*
X-9470606Y+7755681D01*
X-9465526Y+7699801D02*
X-9465526Y+7709961D01*
X-9465526Y+7745521D02*
X-9465526Y+7755681D01*
X-9460446Y+7704881D02*
X-9460446Y+7715041D01*
X-9460446Y+7740441D02*
X-9460446Y+7750601D01*
D70*
X-4000000Y+6500000D02*
X+1000000Y+6500000D01*
X+1000000Y+9750000D01*
X-4000000Y+9750000D01*
X-4000000Y+6500000D01*
D71*
X-1950165Y+9299449D02*
X-1934925Y+9299449D01*
X-1873965Y+9299449D02*
X-1858725Y+9299449D01*
X-1807925Y+9299449D02*
X-1792685Y+9299449D01*
X-1746965Y+9299449D02*
X-1731725Y+9299449D01*
X-1706325Y+9299449D02*
X-1691085Y+9299449D01*
X-1645365Y+9299449D02*
X-1619965Y+9299449D01*
X-1579325Y+9299449D02*
X-1543765Y+9299449D01*
X-1442165Y+9299449D02*
X-1426925Y+9299449D01*
X-1381205Y+9299449D02*
X-1365965Y+9299449D01*
X-1315165Y+9299449D02*
X-1284685Y+9299449D01*
X-1233885Y+9299449D02*
X-1218645Y+9299449D01*
X-1188165Y+9299449D02*
X-1152605Y+9299449D01*
X-1091645Y+9299449D02*
X-1056085Y+9299449D01*
X-1950165Y+9304529D02*
X-1934925Y+9304529D01*
X-1873965Y+9304529D02*
X-1858725Y+9304529D01*
X-1807925Y+9304529D02*
X-1792685Y+9304529D01*
X-1746965Y+9304529D02*
X-1731725Y+9304529D01*
X-1706325Y+9304529D02*
X-1691085Y+9304529D01*
X-1650445Y+9304529D02*
X-1614885Y+9304529D01*
X-1589485Y+9304529D02*
X-1533605Y+9304529D01*
X-1442165Y+9304529D02*
X-1426925Y+9304529D01*
X-1381205Y+9304529D02*
X-1365965Y+9304529D01*
X-1325325Y+9304529D02*
X-1274525Y+9304529D01*
X-1233885Y+9304529D02*
X-1218645Y+9304529D01*
X-1193245Y+9304529D02*
X-1142445Y+9304529D01*
X-1101805Y+9304529D02*
X-1045925Y+9304529D01*
X-1955245Y+9309609D02*
X-1929845Y+9309609D01*
X-1879045Y+9309609D02*
X-1853645Y+9309609D01*
X-1807925Y+9309609D02*
X-1792685Y+9309609D01*
X-1746965Y+9309609D02*
X-1731725Y+9309609D01*
X-1706325Y+9309609D02*
X-1691085Y+9309609D01*
X-1655525Y+9309609D02*
X-1635205Y+9309609D01*
X-1619965Y+9309609D02*
X-1614885Y+9309609D01*
X-1594565Y+9309609D02*
X-1569165Y+9309609D01*
X-1543765Y+9309609D02*
X-1528525Y+9309609D01*
X-1442165Y+9309609D02*
X-1426925Y+9309609D01*
X-1381205Y+9309609D02*
X-1365965Y+9309609D01*
X-1335485Y+9309609D02*
X-1310085Y+9309609D01*
X-1284685Y+9309609D02*
X-1264365Y+9309609D01*
X-1233885Y+9309609D02*
X-1218645Y+9309609D01*
X-1193245Y+9309609D02*
X-1188165Y+9309609D01*
X-1152605Y+9309609D02*
X-1137365Y+9309609D01*
X-1106885Y+9309609D02*
X-1081485Y+9309609D01*
X-1056085Y+9309609D02*
X-1040845Y+9309609D01*
X-1955245Y+9314689D02*
X-1945085Y+9314689D01*
X-1940005Y+9314689D02*
X-1929845Y+9314689D01*
X-1879045Y+9314689D02*
X-1868885Y+9314689D01*
X-1863805Y+9314689D02*
X-1853645Y+9314689D01*
X-1807925Y+9314689D02*
X-1792685Y+9314689D01*
X-1746965Y+9314689D02*
X-1731725Y+9314689D01*
X-1706325Y+9314689D02*
X-1691085Y+9314689D01*
X-1655525Y+9314689D02*
X-1640285Y+9314689D01*
X-1599645Y+9314689D02*
X-1579325Y+9314689D01*
X-1533605Y+9314689D02*
X-1528525Y+9314689D01*
X-1442165Y+9314689D02*
X-1426925Y+9314689D01*
X-1381205Y+9314689D02*
X-1365965Y+9314689D01*
X-1335485Y+9314689D02*
X-1320245Y+9314689D01*
X-1279605Y+9314689D02*
X-1264365Y+9314689D01*
X-1233885Y+9314689D02*
X-1218645Y+9314689D01*
X-1147525Y+9314689D02*
X-1132285Y+9314689D01*
X-1111965Y+9314689D02*
X-1091645Y+9314689D01*
X-1045925Y+9314689D02*
X-1040845Y+9314689D01*
X-1955245Y+9319769D02*
X-1945085Y+9319769D01*
X-1940005Y+9319769D02*
X-1929845Y+9319769D01*
X-1879045Y+9319769D02*
X-1868885Y+9319769D01*
X-1863805Y+9319769D02*
X-1853645Y+9319769D01*
X-1807925Y+9319769D02*
X-1792685Y+9319769D01*
X-1746965Y+9319769D02*
X-1731725Y+9319769D01*
X-1706325Y+9319769D02*
X-1691085Y+9319769D01*
X-1655525Y+9319769D02*
X-1640285Y+9319769D01*
X-1599645Y+9319769D02*
X-1584405Y+9319769D01*
X-1442165Y+9319769D02*
X-1426925Y+9319769D01*
X-1381205Y+9319769D02*
X-1365965Y+9319769D01*
X-1340565Y+9319769D02*
X-1325325Y+9319769D01*
X-1274525Y+9319769D02*
X-1259285Y+9319769D01*
X-1233885Y+9319769D02*
X-1218645Y+9319769D01*
X-1147525Y+9319769D02*
X-1132285Y+9319769D01*
X-1111965Y+9319769D02*
X-1096725Y+9319769D01*
X-1960325Y+9324849D02*
X-1945085Y+9324849D01*
X-1940005Y+9324849D02*
X-1929845Y+9324849D01*
X-1884125Y+9324849D02*
X-1868885Y+9324849D01*
X-1863805Y+9324849D02*
X-1853645Y+9324849D01*
X-1807925Y+9324849D02*
X-1792685Y+9324849D01*
X-1746965Y+9324849D02*
X-1731725Y+9324849D01*
X-1706325Y+9324849D02*
X-1691085Y+9324849D01*
X-1655525Y+9324849D02*
X-1640285Y+9324849D01*
X-1604725Y+9324849D02*
X-1584405Y+9324849D01*
X-1442165Y+9324849D02*
X-1426925Y+9324849D01*
X-1381205Y+9324849D02*
X-1365965Y+9324849D01*
X-1340565Y+9324849D02*
X-1325325Y+9324849D01*
X-1274525Y+9324849D02*
X-1259285Y+9324849D01*
X-1233885Y+9324849D02*
X-1218645Y+9324849D01*
X-1147525Y+9324849D02*
X-1132285Y+9324849D01*
X-1117045Y+9324849D02*
X-1096725Y+9324849D01*
X-1960325Y+9329929D02*
X-1945085Y+9329929D01*
X-1940005Y+9329929D02*
X-1924765Y+9329929D01*
X-1884125Y+9329929D02*
X-1868885Y+9329929D01*
X-1863805Y+9329929D02*
X-1848565Y+9329929D01*
X-1807925Y+9329929D02*
X-1792685Y+9329929D01*
X-1746965Y+9329929D02*
X-1731725Y+9329929D01*
X-1706325Y+9329929D02*
X-1691085Y+9329929D01*
X-1655525Y+9329929D02*
X-1640285Y+9329929D01*
X-1604725Y+9329929D02*
X-1589485Y+9329929D01*
X-1442165Y+9329929D02*
X-1426925Y+9329929D01*
X-1381205Y+9329929D02*
X-1365965Y+9329929D01*
X-1345645Y+9329929D02*
X-1330405Y+9329929D01*
X-1269445Y+9329929D02*
X-1254205Y+9329929D01*
X-1233885Y+9329929D02*
X-1218645Y+9329929D01*
X-1152605Y+9329929D02*
X-1132285Y+9329929D01*
X-1117045Y+9329929D02*
X-1101805Y+9329929D01*
X-1960325Y+9335009D02*
X-1950165Y+9335009D01*
X-1940005Y+9335009D02*
X-1924765Y+9335009D01*
X-1884125Y+9335009D02*
X-1873965Y+9335009D01*
X-1863805Y+9335009D02*
X-1848565Y+9335009D01*
X-1807925Y+9335009D02*
X-1792685Y+9335009D01*
X-1746965Y+9335009D02*
X-1731725Y+9335009D01*
X-1706325Y+9335009D02*
X-1691085Y+9335009D01*
X-1655525Y+9335009D02*
X-1640285Y+9335009D01*
X-1604725Y+9335009D02*
X-1589485Y+9335009D01*
X-1442165Y+9335009D02*
X-1426925Y+9335009D01*
X-1381205Y+9335009D02*
X-1365965Y+9335009D01*
X-1345645Y+9335009D02*
X-1330405Y+9335009D01*
X-1269445Y+9335009D02*
X-1254205Y+9335009D01*
X-1233885Y+9335009D02*
X-1218645Y+9335009D01*
X-1162765Y+9335009D02*
X-1137365Y+9335009D01*
X-1117045Y+9335009D02*
X-1101805Y+9335009D01*
X-1965405Y+9340089D02*
X-1950165Y+9340089D01*
X-1934925Y+9340089D02*
X-1924765Y+9340089D01*
X-1889205Y+9340089D02*
X-1873965Y+9340089D01*
X-1858725Y+9340089D02*
X-1848565Y+9340089D01*
X-1807925Y+9340089D02*
X-1792685Y+9340089D01*
X-1746965Y+9340089D02*
X-1731725Y+9340089D01*
X-1706325Y+9340089D02*
X-1691085Y+9340089D01*
X-1655525Y+9340089D02*
X-1640285Y+9340089D01*
X-1604725Y+9340089D02*
X-1589485Y+9340089D01*
X-1442165Y+9340089D02*
X-1426925Y+9340089D01*
X-1381205Y+9340089D02*
X-1365965Y+9340089D01*
X-1345645Y+9340089D02*
X-1330405Y+9340089D01*
X-1269445Y+9340089D02*
X-1254205Y+9340089D01*
X-1233885Y+9340089D02*
X-1218645Y+9340089D01*
X-1172925Y+9340089D02*
X-1142445Y+9340089D01*
X-1117045Y+9340089D02*
X-1101805Y+9340089D01*
X-1965405Y+9345169D02*
X-1950165Y+9345169D01*
X-1934925Y+9345169D02*
X-1924765Y+9345169D01*
X-1889205Y+9345169D02*
X-1873965Y+9345169D01*
X-1858725Y+9345169D02*
X-1843485Y+9345169D01*
X-1807925Y+9345169D02*
X-1792685Y+9345169D01*
X-1746965Y+9345169D02*
X-1731725Y+9345169D01*
X-1706325Y+9345169D02*
X-1691085Y+9345169D01*
X-1655525Y+9345169D02*
X-1640285Y+9345169D01*
X-1604725Y+9345169D02*
X-1523445Y+9345169D01*
X-1442165Y+9345169D02*
X-1426925Y+9345169D01*
X-1381205Y+9345169D02*
X-1365965Y+9345169D01*
X-1345645Y+9345169D02*
X-1330405Y+9345169D01*
X-1269445Y+9345169D02*
X-1254205Y+9345169D01*
X-1233885Y+9345169D02*
X-1218645Y+9345169D01*
X-1183085Y+9345169D02*
X-1152605Y+9345169D01*
X-1117045Y+9345169D02*
X-1035765Y+9345169D01*
X-1965405Y+9350249D02*
X-1950165Y+9350249D01*
X-1934925Y+9350249D02*
X-1919685Y+9350249D01*
X-1889205Y+9350249D02*
X-1873965Y+9350249D01*
X-1858725Y+9350249D02*
X-1843485Y+9350249D01*
X-1807925Y+9350249D02*
X-1792685Y+9350249D01*
X-1746965Y+9350249D02*
X-1731725Y+9350249D01*
X-1706325Y+9350249D02*
X-1691085Y+9350249D01*
X-1655525Y+9350249D02*
X-1640285Y+9350249D01*
X-1604725Y+9350249D02*
X-1523445Y+9350249D01*
X-1442165Y+9350249D02*
X-1426925Y+9350249D01*
X-1381205Y+9350249D02*
X-1365965Y+9350249D01*
X-1345645Y+9350249D02*
X-1330405Y+9350249D01*
X-1269445Y+9350249D02*
X-1254205Y+9350249D01*
X-1233885Y+9350249D02*
X-1218645Y+9350249D01*
X-1188165Y+9350249D02*
X-1162765Y+9350249D01*
X-1117045Y+9350249D02*
X-1035765Y+9350249D01*
X-1970485Y+9355329D02*
X-1955245Y+9355329D01*
X-1934925Y+9355329D02*
X-1919685Y+9355329D01*
X-1894285Y+9355329D02*
X-1879045Y+9355329D01*
X-1858725Y+9355329D02*
X-1843485Y+9355329D01*
X-1807925Y+9355329D02*
X-1792685Y+9355329D01*
X-1746965Y+9355329D02*
X-1731725Y+9355329D01*
X-1706325Y+9355329D02*
X-1691085Y+9355329D01*
X-1655525Y+9355329D02*
X-1640285Y+9355329D01*
X-1604725Y+9355329D02*
X-1589485Y+9355329D01*
X-1538685Y+9355329D02*
X-1523445Y+9355329D01*
X-1442165Y+9355329D02*
X-1426925Y+9355329D01*
X-1381205Y+9355329D02*
X-1365965Y+9355329D01*
X-1345645Y+9355329D02*
X-1330405Y+9355329D01*
X-1269445Y+9355329D02*
X-1254205Y+9355329D01*
X-1233885Y+9355329D02*
X-1218645Y+9355329D01*
X-1193245Y+9355329D02*
X-1172925Y+9355329D01*
X-1117045Y+9355329D02*
X-1101805Y+9355329D01*
X-1051005Y+9355329D02*
X-1035765Y+9355329D01*
X-1970485Y+9360409D02*
X-1955245Y+9360409D01*
X-1929845Y+9360409D02*
X-1919685Y+9360409D01*
X-1894285Y+9360409D02*
X-1879045Y+9360409D01*
X-1853645Y+9360409D02*
X-1843485Y+9360409D01*
X-1807925Y+9360409D02*
X-1792685Y+9360409D01*
X-1746965Y+9360409D02*
X-1731725Y+9360409D01*
X-1706325Y+9360409D02*
X-1691085Y+9360409D01*
X-1655525Y+9360409D02*
X-1640285Y+9360409D01*
X-1599645Y+9360409D02*
X-1589485Y+9360409D01*
X-1538685Y+9360409D02*
X-1523445Y+9360409D01*
X-1442165Y+9360409D02*
X-1426925Y+9360409D01*
X-1381205Y+9360409D02*
X-1365965Y+9360409D01*
X-1340565Y+9360409D02*
X-1325325Y+9360409D01*
X-1274525Y+9360409D02*
X-1254205Y+9360409D01*
X-1233885Y+9360409D02*
X-1218645Y+9360409D01*
X-1193245Y+9360409D02*
X-1178005Y+9360409D01*
X-1111965Y+9360409D02*
X-1101805Y+9360409D01*
X-1051005Y+9360409D02*
X-1035765Y+9360409D01*
X-1970485Y+9365489D02*
X-1955245Y+9365489D01*
X-1929845Y+9365489D02*
X-1919685Y+9365489D01*
X-1894285Y+9365489D02*
X-1879045Y+9365489D01*
X-1853645Y+9365489D02*
X-1838405Y+9365489D01*
X-1807925Y+9365489D02*
X-1787605Y+9365489D01*
X-1746965Y+9365489D02*
X-1731725Y+9365489D01*
X-1706325Y+9365489D02*
X-1691085Y+9365489D01*
X-1655525Y+9365489D02*
X-1640285Y+9365489D01*
X-1599645Y+9365489D02*
X-1584405Y+9365489D01*
X-1538685Y+9365489D02*
X-1523445Y+9365489D01*
X-1442165Y+9365489D02*
X-1421845Y+9365489D01*
X-1381205Y+9365489D02*
X-1365965Y+9365489D01*
X-1340565Y+9365489D02*
X-1325325Y+9365489D01*
X-1274525Y+9365489D02*
X-1259285Y+9365489D01*
X-1233885Y+9365489D02*
X-1218645Y+9365489D01*
X-1193245Y+9365489D02*
X-1178005Y+9365489D01*
X-1111965Y+9365489D02*
X-1096725Y+9365489D01*
X-1051005Y+9365489D02*
X-1035765Y+9365489D01*
X-1970485Y+9370569D02*
X-1960325Y+9370569D01*
X-1929845Y+9370569D02*
X-1914605Y+9370569D01*
X-1899365Y+9370569D02*
X-1884125Y+9370569D01*
X-1853645Y+9370569D02*
X-1838405Y+9370569D01*
X-1807925Y+9370569D02*
X-1782525Y+9370569D01*
X-1752045Y+9370569D02*
X-1736805Y+9370569D01*
X-1706325Y+9370569D02*
X-1691085Y+9370569D01*
X-1655525Y+9370569D02*
X-1640285Y+9370569D01*
X-1594565Y+9370569D02*
X-1579325Y+9370569D01*
X-1543765Y+9370569D02*
X-1528525Y+9370569D01*
X-1442165Y+9370569D02*
X-1416765Y+9370569D01*
X-1386285Y+9370569D02*
X-1371045Y+9370569D01*
X-1335485Y+9370569D02*
X-1320245Y+9370569D01*
X-1279605Y+9370569D02*
X-1259285Y+9370569D01*
X-1233885Y+9370569D02*
X-1218645Y+9370569D01*
X-1193245Y+9370569D02*
X-1178005Y+9370569D01*
X-1106885Y+9370569D02*
X-1091645Y+9370569D01*
X-1056085Y+9370569D02*
X-1040845Y+9370569D01*
X-1975565Y+9375649D02*
X-1960325Y+9375649D01*
X-1929845Y+9375649D02*
X-1914605Y+9375649D01*
X-1899365Y+9375649D02*
X-1884125Y+9375649D01*
X-1853645Y+9375649D02*
X-1838405Y+9375649D01*
X-1807925Y+9375649D02*
X-1792685Y+9375649D01*
X-1787605Y+9375649D02*
X-1777445Y+9375649D01*
X-1757125Y+9375649D02*
X-1736805Y+9375649D01*
X-1706325Y+9375649D02*
X-1691085Y+9375649D01*
X-1655525Y+9375649D02*
X-1640285Y+9375649D01*
X-1594565Y+9375649D02*
X-1574245Y+9375649D01*
X-1548845Y+9375649D02*
X-1533605Y+9375649D01*
X-1442165Y+9375649D02*
X-1426925Y+9375649D01*
X-1421845Y+9375649D02*
X-1411685Y+9375649D01*
X-1391365Y+9375649D02*
X-1371045Y+9375649D01*
X-1335485Y+9375649D02*
X-1310085Y+9375649D01*
X-1284685Y+9375649D02*
X-1264365Y+9375649D01*
X-1233885Y+9375649D02*
X-1218645Y+9375649D01*
X-1188165Y+9375649D02*
X-1172925Y+9375649D01*
X-1142445Y+9375649D02*
X-1137365Y+9375649D01*
X-1106885Y+9375649D02*
X-1086565Y+9375649D01*
X-1061165Y+9375649D02*
X-1045925Y+9375649D01*
X-1975565Y+9380729D02*
X-1960325Y+9380729D01*
X-1924765Y+9380729D02*
X-1914605Y+9380729D01*
X-1899365Y+9380729D02*
X-1884125Y+9380729D01*
X-1848565Y+9380729D02*
X-1838405Y+9380729D01*
X-1807925Y+9380729D02*
X-1792685Y+9380729D01*
X-1782525Y+9380729D02*
X-1741885Y+9380729D01*
X-1706325Y+9380729D02*
X-1691085Y+9380729D01*
X-1670765Y+9380729D02*
X-1614885Y+9380729D01*
X-1584405Y+9380729D02*
X-1538685Y+9380729D01*
X-1442165Y+9380729D02*
X-1426925Y+9380729D01*
X-1416765Y+9380729D02*
X-1376125Y+9380729D01*
X-1325325Y+9380729D02*
X-1269445Y+9380729D01*
X-1233885Y+9380729D02*
X-1218645Y+9380729D01*
X-1183085Y+9380729D02*
X-1137365Y+9380729D01*
X-1096725Y+9380729D02*
X-1051005Y+9380729D01*
X-1975565Y+9385809D02*
X-1965405Y+9385809D01*
X-1924765Y+9385809D02*
X-1914605Y+9385809D01*
X-1904445Y+9385809D02*
X-1889205Y+9385809D01*
X-1848565Y+9385809D02*
X-1833325Y+9385809D01*
X-1807925Y+9385809D02*
X-1792685Y+9385809D01*
X-1777445Y+9385809D02*
X-1746965Y+9385809D01*
X-1706325Y+9385809D02*
X-1691085Y+9385809D01*
X-1670765Y+9385809D02*
X-1614885Y+9385809D01*
X-1574245Y+9385809D02*
X-1543765Y+9385809D01*
X-1442165Y+9385809D02*
X-1426925Y+9385809D01*
X-1411685Y+9385809D02*
X-1381205Y+9385809D01*
X-1315165Y+9385809D02*
X-1279605Y+9385809D01*
X-1233885Y+9385809D02*
X-1218645Y+9385809D01*
X-1172925Y+9385809D02*
X-1142445Y+9385809D01*
X-1086565Y+9385809D02*
X-1056085Y+9385809D01*
X-1980645Y+9390889D02*
X-1965405Y+9390889D01*
X-1924765Y+9390889D02*
X-1909525Y+9390889D01*
X-1904445Y+9390889D02*
X-1889205Y+9390889D01*
X-1848565Y+9390889D02*
X-1833325Y+9390889D01*
X-1807925Y+9390889D02*
X-1792685Y+9390889D01*
X-1655525Y+9390889D02*
X-1640285Y+9390889D01*
X-1980645Y+9395969D02*
X-1965405Y+9395969D01*
X-1924765Y+9395969D02*
X-1909525Y+9395969D01*
X-1904445Y+9395969D02*
X-1889205Y+9395969D01*
X-1848565Y+9395969D02*
X-1833325Y+9395969D01*
X-1807925Y+9395969D02*
X-1792685Y+9395969D01*
X-1655525Y+9395969D02*
X-1640285Y+9395969D01*
X-1980645Y+9401049D02*
X-1965405Y+9401049D01*
X-1919685Y+9401049D02*
X-1909525Y+9401049D01*
X-1904445Y+9401049D02*
X-1889205Y+9401049D01*
X-1843485Y+9401049D02*
X-1828245Y+9401049D01*
X-1807925Y+9401049D02*
X-1792685Y+9401049D01*
X-1655525Y+9401049D02*
X-1640285Y+9401049D01*
X-1985725Y+9406129D02*
X-1970485Y+9406129D01*
X-1919685Y+9406129D02*
X-1894285Y+9406129D01*
X-1843485Y+9406129D02*
X-1828245Y+9406129D01*
X-1807925Y+9406129D02*
X-1792685Y+9406129D01*
X-1655525Y+9406129D02*
X-1640285Y+9406129D01*
X-1985725Y+9411209D02*
X-1970485Y+9411209D01*
X-1919685Y+9411209D02*
X-1894285Y+9411209D01*
X-1843485Y+9411209D02*
X-1828245Y+9411209D01*
X-1807925Y+9411209D02*
X-1792685Y+9411209D01*
X-1701245Y+9411209D02*
X-1691085Y+9411209D01*
X-1650445Y+9411209D02*
X-1640285Y+9411209D01*
X-1228805Y+9411209D02*
X-1218645Y+9411209D01*
X-1985725Y+9416289D02*
X-1970485Y+9416289D01*
X-1919685Y+9416289D02*
X-1894285Y+9416289D01*
X-1843485Y+9416289D02*
X-1828245Y+9416289D01*
X-1807925Y+9416289D02*
X-1792685Y+9416289D01*
X-1706325Y+9416289D02*
X-1686005Y+9416289D01*
X-1233885Y+9416289D02*
X-1213565Y+9416289D01*
X-1990805Y+9421369D02*
X-1975565Y+9421369D01*
X-1914605Y+9421369D02*
X-1899365Y+9421369D01*
X-1838405Y+9421369D02*
X-1823165Y+9421369D01*
X-1807925Y+9421369D02*
X-1792685Y+9421369D01*
X-1706325Y+9421369D02*
X-1686005Y+9421369D01*
X-1233885Y+9421369D02*
X-1213565Y+9421369D01*
X-1990805Y+9426449D02*
X-1975565Y+9426449D01*
X-1914605Y+9426449D02*
X-1899365Y+9426449D01*
X-1838405Y+9426449D02*
X-1823165Y+9426449D01*
X-1807925Y+9426449D02*
X-1792685Y+9426449D01*
X-1701245Y+9426449D02*
X-1691085Y+9426449D01*
X-1228805Y+9426449D02*
X-1218645Y+9426449D01*
X-1807925Y+9431529D02*
X-1792685Y+9431529D01*
D70*
X+1500000Y+6500000D02*
X+5000000Y+6500000D01*
X+5000000Y+9750000D01*
X+1500000Y+9750000D01*
X+1500000Y+6500000D01*
D71*
X+2765240Y+9305575D02*
X+2821120Y+9305575D01*
X+2912560Y+9305575D02*
X+2948120Y+9305575D01*
X+2988760Y+9305575D02*
X+3004000Y+9305575D01*
X+3049720Y+9305575D02*
X+3064960Y+9305575D01*
X+3105600Y+9305575D02*
X+3120840Y+9305575D01*
X+3171640Y+9305575D02*
X+3202120Y+9305575D01*
X+3268160Y+9305575D02*
X+3298640Y+9305575D01*
X+3313880Y+9305575D02*
X+3329120Y+9305575D01*
X+3379920Y+9305575D02*
X+3405320Y+9305575D01*
X+3420560Y+9305575D02*
X+3435800Y+9305575D01*
X+3461200Y+9305575D02*
X+3476440Y+9305575D01*
X+3517080Y+9305575D02*
X+3542480Y+9305575D01*
X+3557720Y+9305575D02*
X+3572960Y+9305575D01*
X+3613600Y+9305575D02*
X+3639000Y+9305575D01*
X+3659320Y+9305575D02*
X+3674560Y+9305575D01*
X+3730440Y+9305575D02*
X+3760920Y+9305575D01*
X+3806640Y+9305575D02*
X+3821880Y+9305575D01*
X+3867600Y+9305575D02*
X+3882840Y+9305575D01*
X+2765240Y+9310655D02*
X+2831280Y+9310655D01*
X+2902400Y+9310655D02*
X+2958280Y+9310655D01*
X+2988760Y+9310655D02*
X+3004000Y+9310655D01*
X+3049720Y+9310655D02*
X+3064960Y+9310655D01*
X+3105600Y+9310655D02*
X+3120840Y+9310655D01*
X+3161480Y+9310655D02*
X+3212280Y+9310655D01*
X+3263080Y+9310655D02*
X+3303720Y+9310655D01*
X+3313880Y+9310655D02*
X+3329120Y+9310655D01*
X+3369760Y+9310655D02*
X+3415480Y+9310655D01*
X+3420560Y+9310655D02*
X+3435800Y+9310655D01*
X+3461200Y+9310655D02*
X+3476440Y+9310655D01*
X+3506920Y+9310655D02*
X+3552640Y+9310655D01*
X+3557720Y+9310655D02*
X+3572960Y+9310655D01*
X+3608520Y+9310655D02*
X+3644080Y+9310655D01*
X+3659320Y+9310655D02*
X+3674560Y+9310655D01*
X+3720280Y+9310655D02*
X+3771080Y+9310655D01*
X+3806640Y+9310655D02*
X+3821880Y+9310655D01*
X+3867600Y+9310655D02*
X+3882840Y+9310655D01*
X+2765240Y+9315735D02*
X+2780480Y+9315735D01*
X+2816040Y+9315735D02*
X+2841440Y+9315735D01*
X+2897320Y+9315735D02*
X+2922720Y+9315735D01*
X+2948120Y+9315735D02*
X+2963360Y+9315735D01*
X+2988760Y+9315735D02*
X+3004000Y+9315735D01*
X+3049720Y+9315735D02*
X+3064960Y+9315735D01*
X+3105600Y+9315735D02*
X+3120840Y+9315735D01*
X+3151320Y+9315735D02*
X+3176720Y+9315735D01*
X+3202120Y+9315735D02*
X+3222440Y+9315735D01*
X+3258000Y+9315735D02*
X+3278320Y+9315735D01*
X+3298640Y+9315735D02*
X+3308800Y+9315735D01*
X+3313880Y+9315735D02*
X+3329120Y+9315735D01*
X+3364680Y+9315735D02*
X+3385000Y+9315735D01*
X+3405320Y+9315735D02*
X+3415480Y+9315735D01*
X+3420560Y+9315735D02*
X+3435800Y+9315735D01*
X+3461200Y+9315735D02*
X+3476440Y+9315735D01*
X+3506920Y+9315735D02*
X+3522160Y+9315735D01*
X+3542480Y+9315735D02*
X+3572960Y+9315735D01*
X+3603440Y+9315735D02*
X+3623760Y+9315735D01*
X+3639000Y+9315735D02*
X+3644080Y+9315735D01*
X+3659320Y+9315735D02*
X+3674560Y+9315735D01*
X+3710120Y+9315735D02*
X+3735520Y+9315735D01*
X+3760920Y+9315735D02*
X+3781240Y+9315735D01*
X+3806640Y+9315735D02*
X+3821880Y+9315735D01*
X+3867600Y+9315735D02*
X+3882840Y+9315735D01*
X+2765240Y+9320815D02*
X+2780480Y+9320815D01*
X+2831280Y+9320815D02*
X+2846520Y+9320815D01*
X+2892240Y+9320815D02*
X+2912560Y+9320815D01*
X+2958280Y+9320815D02*
X+2963360Y+9320815D01*
X+2988760Y+9320815D02*
X+3004000Y+9320815D01*
X+3049720Y+9320815D02*
X+3064960Y+9320815D01*
X+3105600Y+9320815D02*
X+3120840Y+9320815D01*
X+3151320Y+9320815D02*
X+3166560Y+9320815D01*
X+3207200Y+9320815D02*
X+3222440Y+9320815D01*
X+3252920Y+9320815D02*
X+3273240Y+9320815D01*
X+3303720Y+9320815D02*
X+3329120Y+9320815D01*
X+3364680Y+9320815D02*
X+3379920Y+9320815D01*
X+3415480Y+9320815D02*
X+3435800Y+9320815D01*
X+3461200Y+9320815D02*
X+3476440Y+9320815D01*
X+3501840Y+9320815D02*
X+3517080Y+9320815D01*
X+3552640Y+9320815D02*
X+3572960Y+9320815D01*
X+3603440Y+9320815D02*
X+3618680Y+9320815D01*
X+3659320Y+9320815D02*
X+3674560Y+9320815D01*
X+3710120Y+9320815D02*
X+3725360Y+9320815D01*
X+3766000Y+9320815D02*
X+3781240Y+9320815D01*
X+3806640Y+9320815D02*
X+3821880Y+9320815D01*
X+3867600Y+9320815D02*
X+3882840Y+9320815D01*
X+2765240Y+9325895D02*
X+2780480Y+9325895D01*
X+2836360Y+9325895D02*
X+2851600Y+9325895D01*
X+2892240Y+9325895D02*
X+2907480Y+9325895D01*
X+2988760Y+9325895D02*
X+3004000Y+9325895D01*
X+3049720Y+9325895D02*
X+3064960Y+9325895D01*
X+3105600Y+9325895D02*
X+3120840Y+9325895D01*
X+3146240Y+9325895D02*
X+3161480Y+9325895D01*
X+3212280Y+9325895D02*
X+3227520Y+9325895D01*
X+3252920Y+9325895D02*
X+3268160Y+9325895D01*
X+3308800Y+9325895D02*
X+3329120Y+9325895D01*
X+3359600Y+9325895D02*
X+3374840Y+9325895D01*
X+3415480Y+9325895D02*
X+3435800Y+9325895D01*
X+3461200Y+9325895D02*
X+3476440Y+9325895D01*
X+3501840Y+9325895D02*
X+3517080Y+9325895D01*
X+3552640Y+9325895D02*
X+3572960Y+9325895D01*
X+3603440Y+9325895D02*
X+3618680Y+9325895D01*
X+3659320Y+9325895D02*
X+3674560Y+9325895D01*
X+3705040Y+9325895D02*
X+3720280Y+9325895D01*
X+3771080Y+9325895D02*
X+3786320Y+9325895D01*
X+3806640Y+9325895D02*
X+3821880Y+9325895D01*
X+3867600Y+9325895D02*
X+3882840Y+9325895D01*
X+2765240Y+9330975D02*
X+2780480Y+9330975D01*
X+2841440Y+9330975D02*
X+2856680Y+9330975D01*
X+2887160Y+9330975D02*
X+2907480Y+9330975D01*
X+2988760Y+9330975D02*
X+3004000Y+9330975D01*
X+3049720Y+9330975D02*
X+3064960Y+9330975D01*
X+3105600Y+9330975D02*
X+3120840Y+9330975D01*
X+3146240Y+9330975D02*
X+3161480Y+9330975D01*
X+3212280Y+9330975D02*
X+3227520Y+9330975D01*
X+3247840Y+9330975D02*
X+3263080Y+9330975D01*
X+3313880Y+9330975D02*
X+3329120Y+9330975D01*
X+3359600Y+9330975D02*
X+3374840Y+9330975D01*
X+3420560Y+9330975D02*
X+3435800Y+9330975D01*
X+3461200Y+9330975D02*
X+3476440Y+9330975D01*
X+3501840Y+9330975D02*
X+3517080Y+9330975D01*
X+3557720Y+9330975D02*
X+3572960Y+9330975D01*
X+3603440Y+9330975D02*
X+3618680Y+9330975D01*
X+3659320Y+9330975D02*
X+3674560Y+9330975D01*
X+3705040Y+9330975D02*
X+3720280Y+9330975D01*
X+3771080Y+9330975D02*
X+3786320Y+9330975D01*
X+3806640Y+9330975D02*
X+3821880Y+9330975D01*
X+3867600Y+9330975D02*
X+3882840Y+9330975D01*
X+2765240Y+9336055D02*
X+2780480Y+9336055D01*
X+2841440Y+9336055D02*
X+2856680Y+9336055D01*
X+2887160Y+9336055D02*
X+2902400Y+9336055D01*
X+2988760Y+9336055D02*
X+3004000Y+9336055D01*
X+3049720Y+9336055D02*
X+3064960Y+9336055D01*
X+3105600Y+9336055D02*
X+3120840Y+9336055D01*
X+3141160Y+9336055D02*
X+3156400Y+9336055D01*
X+3217360Y+9336055D02*
X+3232600Y+9336055D01*
X+3247840Y+9336055D02*
X+3263080Y+9336055D01*
X+3313880Y+9336055D02*
X+3329120Y+9336055D01*
X+3359600Y+9336055D02*
X+3374840Y+9336055D01*
X+3420560Y+9336055D02*
X+3435800Y+9336055D01*
X+3461200Y+9336055D02*
X+3476440Y+9336055D01*
X+3501840Y+9336055D02*
X+3517080Y+9336055D01*
X+3557720Y+9336055D02*
X+3572960Y+9336055D01*
X+3603440Y+9336055D02*
X+3618680Y+9336055D01*
X+3659320Y+9336055D02*
X+3674560Y+9336055D01*
X+3699960Y+9336055D02*
X+3715200Y+9336055D01*
X+3776160Y+9336055D02*
X+3791400Y+9336055D01*
X+3806640Y+9336055D02*
X+3821880Y+9336055D01*
X+3867600Y+9336055D02*
X+3882840Y+9336055D01*
X+2765240Y+9341135D02*
X+2780480Y+9341135D01*
X+2846520Y+9341135D02*
X+2861760Y+9341135D01*
X+2887160Y+9341135D02*
X+2902400Y+9341135D01*
X+2988760Y+9341135D02*
X+3004000Y+9341135D01*
X+3049720Y+9341135D02*
X+3064960Y+9341135D01*
X+3105600Y+9341135D02*
X+3120840Y+9341135D01*
X+3141160Y+9341135D02*
X+3156400Y+9341135D01*
X+3217360Y+9341135D02*
X+3232600Y+9341135D01*
X+3247840Y+9341135D02*
X+3263080Y+9341135D01*
X+3313880Y+9341135D02*
X+3329120Y+9341135D01*
X+3359600Y+9341135D02*
X+3374840Y+9341135D01*
X+3420560Y+9341135D02*
X+3435800Y+9341135D01*
X+3461200Y+9341135D02*
X+3476440Y+9341135D01*
X+3506920Y+9341135D02*
X+3522160Y+9341135D01*
X+3557720Y+9341135D02*
X+3572960Y+9341135D01*
X+3603440Y+9341135D02*
X+3618680Y+9341135D01*
X+3659320Y+9341135D02*
X+3674560Y+9341135D01*
X+3699960Y+9341135D02*
X+3715200Y+9341135D01*
X+3776160Y+9341135D02*
X+3791400Y+9341135D01*
X+3806640Y+9341135D02*
X+3821880Y+9341135D01*
X+3867600Y+9341135D02*
X+3882840Y+9341135D01*
X+2765240Y+9346215D02*
X+2780480Y+9346215D01*
X+2846520Y+9346215D02*
X+2861760Y+9346215D01*
X+2887160Y+9346215D02*
X+2902400Y+9346215D01*
X+2988760Y+9346215D02*
X+3004000Y+9346215D01*
X+3049720Y+9346215D02*
X+3064960Y+9346215D01*
X+3105600Y+9346215D02*
X+3120840Y+9346215D01*
X+3141160Y+9346215D02*
X+3156400Y+9346215D01*
X+3217360Y+9346215D02*
X+3232600Y+9346215D01*
X+3247840Y+9346215D02*
X+3263080Y+9346215D01*
X+3313880Y+9346215D02*
X+3329120Y+9346215D01*
X+3359600Y+9346215D02*
X+3374840Y+9346215D01*
X+3420560Y+9346215D02*
X+3435800Y+9346215D01*
X+3461200Y+9346215D02*
X+3476440Y+9346215D01*
X+3506920Y+9346215D02*
X+3537400Y+9346215D01*
X+3557720Y+9346215D02*
X+3572960Y+9346215D01*
X+3603440Y+9346215D02*
X+3618680Y+9346215D01*
X+3659320Y+9346215D02*
X+3674560Y+9346215D01*
X+3699960Y+9346215D02*
X+3715200Y+9346215D01*
X+3776160Y+9346215D02*
X+3791400Y+9346215D01*
X+3806640Y+9346215D02*
X+3821880Y+9346215D01*
X+3867600Y+9346215D02*
X+3882840Y+9346215D01*
X+2765240Y+9351295D02*
X+2780480Y+9351295D01*
X+2851600Y+9351295D02*
X+2866840Y+9351295D01*
X+2887160Y+9351295D02*
X+2968440Y+9351295D01*
X+2988760Y+9351295D02*
X+3004000Y+9351295D01*
X+3049720Y+9351295D02*
X+3064960Y+9351295D01*
X+3105600Y+9351295D02*
X+3120840Y+9351295D01*
X+3141160Y+9351295D02*
X+3156400Y+9351295D01*
X+3217360Y+9351295D02*
X+3232600Y+9351295D01*
X+3247840Y+9351295D02*
X+3263080Y+9351295D01*
X+3313880Y+9351295D02*
X+3329120Y+9351295D01*
X+3359600Y+9351295D02*
X+3374840Y+9351295D01*
X+3420560Y+9351295D02*
X+3435800Y+9351295D01*
X+3461200Y+9351295D02*
X+3476440Y+9351295D01*
X+3517080Y+9351295D02*
X+3572960Y+9351295D01*
X+3603440Y+9351295D02*
X+3618680Y+9351295D01*
X+3659320Y+9351295D02*
X+3674560Y+9351295D01*
X+3699960Y+9351295D02*
X+3715200Y+9351295D01*
X+3776160Y+9351295D02*
X+3791400Y+9351295D01*
X+3806640Y+9351295D02*
X+3821880Y+9351295D01*
X+3867600Y+9351295D02*
X+3882840Y+9351295D01*
X+2765240Y+9356375D02*
X+2780480Y+9356375D01*
X+2851600Y+9356375D02*
X+2866840Y+9356375D01*
X+2887160Y+9356375D02*
X+2968440Y+9356375D01*
X+2988760Y+9356375D02*
X+3004000Y+9356375D01*
X+3049720Y+9356375D02*
X+3064960Y+9356375D01*
X+3105600Y+9356375D02*
X+3120840Y+9356375D01*
X+3141160Y+9356375D02*
X+3156400Y+9356375D01*
X+3217360Y+9356375D02*
X+3232600Y+9356375D01*
X+3247840Y+9356375D02*
X+3263080Y+9356375D01*
X+3313880Y+9356375D02*
X+3329120Y+9356375D01*
X+3359600Y+9356375D02*
X+3374840Y+9356375D01*
X+3420560Y+9356375D02*
X+3435800Y+9356375D01*
X+3461200Y+9356375D02*
X+3476440Y+9356375D01*
X+3537400Y+9356375D02*
X+3572960Y+9356375D01*
X+3603440Y+9356375D02*
X+3618680Y+9356375D01*
X+3659320Y+9356375D02*
X+3674560Y+9356375D01*
X+3699960Y+9356375D02*
X+3715200Y+9356375D01*
X+3776160Y+9356375D02*
X+3791400Y+9356375D01*
X+3806640Y+9356375D02*
X+3821880Y+9356375D01*
X+3867600Y+9356375D02*
X+3882840Y+9356375D01*
X+2765240Y+9361455D02*
X+2780480Y+9361455D01*
X+2851600Y+9361455D02*
X+2866840Y+9361455D01*
X+2887160Y+9361455D02*
X+2902400Y+9361455D01*
X+2953200Y+9361455D02*
X+2968440Y+9361455D01*
X+2988760Y+9361455D02*
X+3004000Y+9361455D01*
X+3049720Y+9361455D02*
X+3064960Y+9361455D01*
X+3105600Y+9361455D02*
X+3120840Y+9361455D01*
X+3141160Y+9361455D02*
X+3156400Y+9361455D01*
X+3217360Y+9361455D02*
X+3232600Y+9361455D01*
X+3247840Y+9361455D02*
X+3263080Y+9361455D01*
X+3313880Y+9361455D02*
X+3329120Y+9361455D01*
X+3359600Y+9361455D02*
X+3374840Y+9361455D01*
X+3420560Y+9361455D02*
X+3435800Y+9361455D01*
X+3461200Y+9361455D02*
X+3476440Y+9361455D01*
X+3557720Y+9361455D02*
X+3572960Y+9361455D01*
X+3603440Y+9361455D02*
X+3618680Y+9361455D01*
X+3659320Y+9361455D02*
X+3674560Y+9361455D01*
X+3699960Y+9361455D02*
X+3715200Y+9361455D01*
X+3776160Y+9361455D02*
X+3791400Y+9361455D01*
X+3806640Y+9361455D02*
X+3821880Y+9361455D01*
X+3867600Y+9361455D02*
X+3882840Y+9361455D01*
X+2765240Y+9366535D02*
X+2780480Y+9366535D01*
X+2851600Y+9366535D02*
X+2866840Y+9366535D01*
X+2892240Y+9366535D02*
X+2902400Y+9366535D01*
X+2953200Y+9366535D02*
X+2968440Y+9366535D01*
X+2988760Y+9366535D02*
X+3004000Y+9366535D01*
X+3049720Y+9366535D02*
X+3064960Y+9366535D01*
X+3105600Y+9366535D02*
X+3120840Y+9366535D01*
X+3146240Y+9366535D02*
X+3161480Y+9366535D01*
X+3212280Y+9366535D02*
X+3232600Y+9366535D01*
X+3252920Y+9366535D02*
X+3268160Y+9366535D01*
X+3313880Y+9366535D02*
X+3329120Y+9366535D01*
X+3359600Y+9366535D02*
X+3374840Y+9366535D01*
X+3420560Y+9366535D02*
X+3435800Y+9366535D01*
X+3461200Y+9366535D02*
X+3476440Y+9366535D01*
X+3557720Y+9366535D02*
X+3572960Y+9366535D01*
X+3603440Y+9366535D02*
X+3618680Y+9366535D01*
X+3659320Y+9366535D02*
X+3674560Y+9366535D01*
X+3705040Y+9366535D02*
X+3720280Y+9366535D01*
X+3771080Y+9366535D02*
X+3791400Y+9366535D01*
X+3806640Y+9366535D02*
X+3821880Y+9366535D01*
X+3867600Y+9366535D02*
X+3882840Y+9366535D01*
X+2765240Y+9371615D02*
X+2780480Y+9371615D01*
X+2851600Y+9371615D02*
X+2866840Y+9371615D01*
X+2892240Y+9371615D02*
X+2907480Y+9371615D01*
X+2953200Y+9371615D02*
X+2968440Y+9371615D01*
X+2988760Y+9371615D02*
X+3009080Y+9371615D01*
X+3049720Y+9371615D02*
X+3070040Y+9371615D01*
X+3105600Y+9371615D02*
X+3120840Y+9371615D01*
X+3146240Y+9371615D02*
X+3161480Y+9371615D01*
X+3212280Y+9371615D02*
X+3227520Y+9371615D01*
X+3252920Y+9371615D02*
X+3268160Y+9371615D01*
X+3308800Y+9371615D02*
X+3329120Y+9371615D01*
X+3359600Y+9371615D02*
X+3374840Y+9371615D01*
X+3420560Y+9371615D02*
X+3435800Y+9371615D01*
X+3461200Y+9371615D02*
X+3476440Y+9371615D01*
X+3557720Y+9371615D02*
X+3572960Y+9371615D01*
X+3603440Y+9371615D02*
X+3618680Y+9371615D01*
X+3659320Y+9371615D02*
X+3674560Y+9371615D01*
X+3705040Y+9371615D02*
X+3720280Y+9371615D01*
X+3771080Y+9371615D02*
X+3786320Y+9371615D01*
X+3806640Y+9371615D02*
X+3826960Y+9371615D01*
X+3867600Y+9371615D02*
X+3882840Y+9371615D01*
X+2765240Y+9376695D02*
X+2780480Y+9376695D01*
X+2851600Y+9376695D02*
X+2866840Y+9376695D01*
X+2897320Y+9376695D02*
X+2912560Y+9376695D01*
X+2948120Y+9376695D02*
X+2963360Y+9376695D01*
X+2988760Y+9376695D02*
X+3009080Y+9376695D01*
X+3044640Y+9376695D02*
X+3070040Y+9376695D01*
X+3100520Y+9376695D02*
X+3115760Y+9376695D01*
X+3151320Y+9376695D02*
X+3166560Y+9376695D01*
X+3207200Y+9376695D02*
X+3227520Y+9376695D01*
X+3252920Y+9376695D02*
X+3273240Y+9376695D01*
X+3308800Y+9376695D02*
X+3329120Y+9376695D01*
X+3359600Y+9376695D02*
X+3374840Y+9376695D01*
X+3420560Y+9376695D02*
X+3435800Y+9376695D01*
X+3461200Y+9376695D02*
X+3476440Y+9376695D01*
X+3552640Y+9376695D02*
X+3572960Y+9376695D01*
X+3603440Y+9376695D02*
X+3618680Y+9376695D01*
X+3659320Y+9376695D02*
X+3674560Y+9376695D01*
X+3710120Y+9376695D02*
X+3725360Y+9376695D01*
X+3766000Y+9376695D02*
X+3786320Y+9376695D01*
X+3806640Y+9376695D02*
X+3832040Y+9376695D01*
X+3862520Y+9376695D02*
X+3877760Y+9376695D01*
X+2765240Y+9381775D02*
X+2780480Y+9381775D01*
X+2851600Y+9381775D02*
X+2866840Y+9381775D01*
X+2897320Y+9381775D02*
X+2917640Y+9381775D01*
X+2943040Y+9381775D02*
X+2958280Y+9381775D01*
X+2988760Y+9381775D02*
X+3004000Y+9381775D01*
X+3009080Y+9381775D02*
X+3019240Y+9381775D01*
X+3039560Y+9381775D02*
X+3059880Y+9381775D01*
X+3064960Y+9381775D02*
X+3075120Y+9381775D01*
X+3095440Y+9381775D02*
X+3115760Y+9381775D01*
X+3151320Y+9381775D02*
X+3176720Y+9381775D01*
X+3202120Y+9381775D02*
X+3222440Y+9381775D01*
X+3258000Y+9381775D02*
X+3278320Y+9381775D01*
X+3298640Y+9381775D02*
X+3329120Y+9381775D01*
X+3359600Y+9381775D02*
X+3374840Y+9381775D01*
X+3420560Y+9381775D02*
X+3435800Y+9381775D01*
X+3461200Y+9381775D02*
X+3476440Y+9381775D01*
X+3512000Y+9381775D02*
X+3522160Y+9381775D01*
X+3547560Y+9381775D02*
X+3567880Y+9381775D01*
X+3603440Y+9381775D02*
X+3618680Y+9381775D01*
X+3659320Y+9381775D02*
X+3674560Y+9381775D01*
X+3710120Y+9381775D02*
X+3735520Y+9381775D01*
X+3760920Y+9381775D02*
X+3781240Y+9381775D01*
X+3806640Y+9381775D02*
X+3821880Y+9381775D01*
X+3826960Y+9381775D02*
X+3837120Y+9381775D01*
X+3857440Y+9381775D02*
X+3877760Y+9381775D01*
X+2765240Y+9386855D02*
X+2780480Y+9386855D01*
X+2851600Y+9386855D02*
X+2866840Y+9386855D01*
X+2907480Y+9386855D02*
X+2953200Y+9386855D01*
X+2988760Y+9386855D02*
X+3004000Y+9386855D01*
X+3014160Y+9386855D02*
X+3054800Y+9386855D01*
X+3070040Y+9386855D02*
X+3110680Y+9386855D01*
X+3161480Y+9386855D02*
X+3217360Y+9386855D01*
X+3263080Y+9386855D02*
X+3308800Y+9386855D01*
X+3313880Y+9386855D02*
X+3329120Y+9386855D01*
X+3359600Y+9386855D02*
X+3374840Y+9386855D01*
X+3420560Y+9386855D02*
X+3435800Y+9386855D01*
X+3461200Y+9386855D02*
X+3476440Y+9386855D01*
X+3512000Y+9386855D02*
X+3562800Y+9386855D01*
X+3588200Y+9386855D02*
X+3644080Y+9386855D01*
X+3659320Y+9386855D02*
X+3674560Y+9386855D01*
X+3720280Y+9386855D02*
X+3776160Y+9386855D01*
X+3806640Y+9386855D02*
X+3821880Y+9386855D01*
X+3832040Y+9386855D02*
X+3872680Y+9386855D01*
X+2765240Y+9391935D02*
X+2780480Y+9391935D01*
X+2846520Y+9391935D02*
X+2866840Y+9391935D01*
X+2917640Y+9391935D02*
X+2948120Y+9391935D01*
X+2988760Y+9391935D02*
X+3004000Y+9391935D01*
X+3019240Y+9391935D02*
X+3044640Y+9391935D01*
X+3080200Y+9391935D02*
X+3105600Y+9391935D01*
X+3171640Y+9391935D02*
X+3207200Y+9391935D01*
X+3273240Y+9391935D02*
X+3298640Y+9391935D01*
X+3313880Y+9391935D02*
X+3329120Y+9391935D01*
X+3359600Y+9391935D02*
X+3374840Y+9391935D01*
X+3420560Y+9391935D02*
X+3435800Y+9391935D01*
X+3461200Y+9391935D02*
X+3476440Y+9391935D01*
X+3527240Y+9391935D02*
X+3557720Y+9391935D01*
X+3588200Y+9391935D02*
X+3644080Y+9391935D01*
X+3659320Y+9391935D02*
X+3674560Y+9391935D01*
X+3730440Y+9391935D02*
X+3766000Y+9391935D01*
X+3806640Y+9391935D02*
X+3821880Y+9391935D01*
X+3837120Y+9391935D02*
X+3867600Y+9391935D01*
X+2765240Y+9397015D02*
X+2780480Y+9397015D01*
X+2846520Y+9397015D02*
X+2861760Y+9397015D01*
X+3313880Y+9397015D02*
X+3329120Y+9397015D01*
X+3461200Y+9397015D02*
X+3476440Y+9397015D01*
X+3603440Y+9397015D02*
X+3618680Y+9397015D01*
X+2765240Y+9402095D02*
X+2780480Y+9402095D01*
X+2846520Y+9402095D02*
X+2861760Y+9402095D01*
X+3313880Y+9402095D02*
X+3329120Y+9402095D01*
X+3461200Y+9402095D02*
X+3476440Y+9402095D01*
X+3603440Y+9402095D02*
X+3618680Y+9402095D01*
X+2765240Y+9407175D02*
X+2780480Y+9407175D01*
X+2841440Y+9407175D02*
X+2856680Y+9407175D01*
X+3313880Y+9407175D02*
X+3329120Y+9407175D01*
X+3461200Y+9407175D02*
X+3476440Y+9407175D01*
X+3603440Y+9407175D02*
X+3618680Y+9407175D01*
X+2765240Y+9412255D02*
X+2780480Y+9412255D01*
X+2836360Y+9412255D02*
X+2856680Y+9412255D01*
X+3313880Y+9412255D02*
X+3329120Y+9412255D01*
X+3461200Y+9412255D02*
X+3476440Y+9412255D01*
X+3603440Y+9412255D02*
X+3618680Y+9412255D01*
X+2765240Y+9417335D02*
X+2780480Y+9417335D01*
X+2831280Y+9417335D02*
X+2851600Y+9417335D01*
X+3313880Y+9417335D02*
X+3329120Y+9417335D01*
X+3461200Y+9417335D02*
X+3476440Y+9417335D01*
X+3608520Y+9417335D02*
X+3618680Y+9417335D01*
X+3664400Y+9417335D02*
X+3674560Y+9417335D01*
X+2765240Y+9422415D02*
X+2780480Y+9422415D01*
X+2821120Y+9422415D02*
X+2846520Y+9422415D01*
X+3313880Y+9422415D02*
X+3329120Y+9422415D01*
X+3461200Y+9422415D02*
X+3476440Y+9422415D01*
X+3659320Y+9422415D02*
X+3679640Y+9422415D01*
X+2765240Y+9427495D02*
X+2836360Y+9427495D01*
X+3313880Y+9427495D02*
X+3329120Y+9427495D01*
X+3461200Y+9427495D02*
X+3476440Y+9427495D01*
X+3659320Y+9427495D02*
X+3679640Y+9427495D01*
X+2765240Y+9432575D02*
X+2826200Y+9432575D01*
X+3313880Y+9432575D02*
X+3329120Y+9432575D01*
X+3461200Y+9432575D02*
X+3476440Y+9432575D01*
X+3664400Y+9432575D02*
X+3674560Y+9432575D01*
X+3313880Y+9437655D02*
X+3329120Y+9437655D01*
X+3461200Y+9437655D02*
X+3476440Y+9437655D01*
X-5237300Y+8150247D02*
X-5232220Y+8150247D01*
X-5206820Y+8150247D02*
X-5201740Y+8150247D01*
X-5181420Y+8150247D02*
X-5176340Y+8150247D01*
X-5150940Y+8150247D02*
X-5140780Y+8150247D01*
X-5130620Y+8150247D02*
X-5125540Y+8150247D01*
X-5100140Y+8150247D02*
X-5095060Y+8150247D01*
X-5049340Y+8150247D02*
X-5044260Y+8150247D01*
X-5018860Y+8150247D02*
X-5013780Y+8150247D01*
X-4988380Y+8150247D02*
X-4968060Y+8150247D01*
X-4947740Y+8150247D02*
X-4942660Y+8150247D01*
X-4922340Y+8150247D02*
X-4907100Y+8150247D01*
X-4881700Y+8150247D02*
X-4861380Y+8150247D01*
X-5242380Y+8155327D02*
X-5227140Y+8155327D01*
X-5211900Y+8155327D02*
X-5196660Y+8155327D01*
X-5181420Y+8155327D02*
X-5176340Y+8155327D01*
X-5156020Y+8155327D02*
X-5150940Y+8155327D01*
X-5130620Y+8155327D02*
X-5125540Y+8155327D01*
X-5100140Y+8155327D02*
X-5095060Y+8155327D01*
X-5049340Y+8155327D02*
X-5044260Y+8155327D01*
X-5018860Y+8155327D02*
X-5013780Y+8155327D01*
X-4993460Y+8155327D02*
X-4988380Y+8155327D01*
X-4968060Y+8155327D02*
X-4962980Y+8155327D01*
X-4947740Y+8155327D02*
X-4942660Y+8155327D01*
X-4927420Y+8155327D02*
X-4922340Y+8155327D01*
X-4907100Y+8155327D02*
X-4902020Y+8155327D01*
X-4886780Y+8155327D02*
X-4881700Y+8155327D01*
X-4861380Y+8155327D02*
X-4856300Y+8155327D01*
X-5242380Y+8160407D02*
X-5237300Y+8160407D01*
X-5232220Y+8160407D02*
X-5227140Y+8160407D01*
X-5211900Y+8160407D02*
X-5206820Y+8160407D01*
X-5201740Y+8160407D02*
X-5196660Y+8160407D01*
X-5181420Y+8160407D02*
X-5176340Y+8160407D01*
X-5156020Y+8160407D02*
X-5150940Y+8160407D01*
X-5130620Y+8160407D02*
X-5125540Y+8160407D01*
X-5100140Y+8160407D02*
X-5095060Y+8160407D01*
X-5049340Y+8160407D02*
X-5044260Y+8160407D01*
X-5018860Y+8160407D02*
X-5013780Y+8160407D01*
X-4998540Y+8160407D02*
X-4993460Y+8160407D01*
X-4962980Y+8160407D02*
X-4957900Y+8160407D01*
X-4947740Y+8160407D02*
X-4942660Y+8160407D01*
X-4907100Y+8160407D02*
X-4902020Y+8160407D01*
X-4891860Y+8160407D02*
X-4886780Y+8160407D01*
X-5242380Y+8165487D02*
X-5237300Y+8165487D01*
X-5227140Y+8165487D02*
X-5222060Y+8165487D01*
X-5211900Y+8165487D02*
X-5206820Y+8165487D01*
X-5201740Y+8165487D02*
X-5196660Y+8165487D01*
X-5181420Y+8165487D02*
X-5176340Y+8165487D01*
X-5156020Y+8165487D02*
X-5150940Y+8165487D01*
X-5130620Y+8165487D02*
X-5125540Y+8165487D01*
X-5100140Y+8165487D02*
X-5095060Y+8165487D01*
X-5049340Y+8165487D02*
X-5044260Y+8165487D01*
X-5018860Y+8165487D02*
X-5013780Y+8165487D01*
X-4998540Y+8165487D02*
X-4993460Y+8165487D01*
X-4962980Y+8165487D02*
X-4957900Y+8165487D01*
X-4947740Y+8165487D02*
X-4942660Y+8165487D01*
X-4917260Y+8165487D02*
X-4907100Y+8165487D01*
X-4891860Y+8165487D02*
X-4886780Y+8165487D01*
X-5247460Y+8170567D02*
X-5237300Y+8170567D01*
X-5227140Y+8170567D02*
X-5222060Y+8170567D01*
X-5216980Y+8170567D02*
X-5206820Y+8170567D01*
X-5196660Y+8170567D02*
X-5191580Y+8170567D01*
X-5181420Y+8170567D02*
X-5176340Y+8170567D01*
X-5156020Y+8170567D02*
X-5150940Y+8170567D01*
X-5130620Y+8170567D02*
X-5125540Y+8170567D01*
X-5100140Y+8170567D02*
X-5095060Y+8170567D01*
X-5049340Y+8170567D02*
X-5044260Y+8170567D01*
X-5018860Y+8170567D02*
X-5013780Y+8170567D01*
X-4998540Y+8170567D02*
X-4993460Y+8170567D01*
X-4962980Y+8170567D02*
X-4957900Y+8170567D01*
X-4947740Y+8170567D02*
X-4942660Y+8170567D01*
X-4927420Y+8170567D02*
X-4912180Y+8170567D01*
X-4891860Y+8170567D02*
X-4856300Y+8170567D01*
X-5247460Y+8175647D02*
X-5242380Y+8175647D01*
X-5227140Y+8175647D02*
X-5222060Y+8175647D01*
X-5216980Y+8175647D02*
X-5211900Y+8175647D01*
X-5196660Y+8175647D02*
X-5191580Y+8175647D01*
X-5181420Y+8175647D02*
X-5176340Y+8175647D01*
X-5156020Y+8175647D02*
X-5150940Y+8175647D01*
X-5130620Y+8175647D02*
X-5125540Y+8175647D01*
X-5100140Y+8175647D02*
X-5095060Y+8175647D01*
X-5049340Y+8175647D02*
X-5044260Y+8175647D01*
X-5018860Y+8175647D02*
X-5013780Y+8175647D01*
X-4998540Y+8175647D02*
X-4993460Y+8175647D01*
X-4962980Y+8175647D02*
X-4957900Y+8175647D01*
X-4947740Y+8175647D02*
X-4942660Y+8175647D01*
X-4927420Y+8175647D02*
X-4922340Y+8175647D01*
X-4891860Y+8175647D02*
X-4886780Y+8175647D01*
X-4861380Y+8175647D02*
X-4856300Y+8175647D01*
X-5247460Y+8180727D02*
X-5242380Y+8180727D01*
X-5222060Y+8180727D02*
X-5211900Y+8180727D01*
X-5196660Y+8180727D02*
X-5191580Y+8180727D01*
X-5181420Y+8180727D02*
X-5176340Y+8180727D01*
X-5156020Y+8180727D02*
X-5150940Y+8180727D01*
X-5130620Y+8180727D02*
X-5120460Y+8180727D01*
X-5105220Y+8180727D02*
X-5095060Y+8180727D01*
X-5049340Y+8180727D02*
X-5039180Y+8180727D01*
X-5023940Y+8180727D02*
X-5013780Y+8180727D01*
X-4993460Y+8180727D02*
X-4988380Y+8180727D01*
X-4968060Y+8180727D02*
X-4962980Y+8180727D01*
X-4947740Y+8180727D02*
X-4942660Y+8180727D01*
X-4927420Y+8180727D02*
X-4922340Y+8180727D01*
X-4907100Y+8180727D02*
X-4902020Y+8180727D01*
X-4886780Y+8180727D02*
X-4881700Y+8180727D01*
X-4866460Y+8180727D02*
X-4856300Y+8180727D01*
X-5252540Y+8185807D02*
X-5247460Y+8185807D01*
X-5222060Y+8185807D02*
X-5216980Y+8185807D01*
X-5191580Y+8185807D02*
X-5186500Y+8185807D01*
X-5181420Y+8185807D02*
X-5176340Y+8185807D01*
X-5166180Y+8185807D02*
X-5140780Y+8185807D01*
X-5130620Y+8185807D02*
X-5125540Y+8185807D01*
X-5120460Y+8185807D02*
X-5100140Y+8185807D01*
X-5049340Y+8185807D02*
X-5044260Y+8185807D01*
X-5039180Y+8185807D02*
X-5018860Y+8185807D01*
X-4988380Y+8185807D02*
X-4968060Y+8185807D01*
X-4947740Y+8185807D02*
X-4942660Y+8185807D01*
X-4922340Y+8185807D02*
X-4907100Y+8185807D01*
X-4881700Y+8185807D02*
X-4861380Y+8185807D01*
X-5156020Y+8190887D02*
X-5150940Y+8190887D01*
X-5130620Y+8190887D02*
X-5125540Y+8190887D01*
X-5156020Y+8195967D02*
X-5150940Y+8195967D01*
X-5130620Y+8195967D02*
X-5125540Y+8195967D01*
X-5156020Y+8201047D02*
X-5150940Y+8201047D01*
X-5130620Y+8201047D02*
X-5125540Y+8201047D01*
X-5181420Y+8206127D02*
X-5171260Y+8206127D01*
X-5130620Y+8206127D02*
X-5125540Y+8206127D01*
X-4947740Y+8206127D02*
X-4937580Y+8206127D01*
X-5181420Y+8211207D02*
X-5171260Y+8211207D01*
X-5130620Y+8211207D02*
X-5125540Y+8211207D01*
X-4947740Y+8211207D02*
X-4937580Y+8211207D01*
X-5237300Y+7400247D02*
X-5232220Y+7400247D01*
X-5206820Y+7400247D02*
X-5201740Y+7400247D01*
X-5181420Y+7400247D02*
X-5176340Y+7400247D01*
X-5150940Y+7400247D02*
X-5140780Y+7400247D01*
X-5130620Y+7400247D02*
X-5125540Y+7400247D01*
X-5100140Y+7400247D02*
X-5095060Y+7400247D01*
X-5069660Y+7400247D02*
X-5049340Y+7400247D01*
X-5023940Y+7400247D02*
X-5003620Y+7400247D01*
X-4998540Y+7400247D02*
X-4993460Y+7400247D01*
X-4968060Y+7400247D02*
X-4957900Y+7400247D01*
X-4917260Y+7400247D02*
X-4912180Y+7400247D01*
X-4886780Y+7400247D02*
X-4881700Y+7400247D01*
X-4856300Y+7400247D02*
X-4835980Y+7400247D01*
X-4815660Y+7400247D02*
X-4810580Y+7400247D01*
X-4790260Y+7400247D02*
X-4775020Y+7400247D01*
X-4749620Y+7400247D02*
X-4729300Y+7400247D01*
X-5242380Y+7405327D02*
X-5227140Y+7405327D01*
X-5211900Y+7405327D02*
X-5196660Y+7405327D01*
X-5181420Y+7405327D02*
X-5176340Y+7405327D01*
X-5156020Y+7405327D02*
X-5150940Y+7405327D01*
X-5130620Y+7405327D02*
X-5125540Y+7405327D01*
X-5100140Y+7405327D02*
X-5095060Y+7405327D01*
X-5074740Y+7405327D02*
X-5069660Y+7405327D01*
X-5049340Y+7405327D02*
X-5044260Y+7405327D01*
X-5029020Y+7405327D02*
X-5018860Y+7405327D01*
X-5003620Y+7405327D02*
X-4993460Y+7405327D01*
X-4973140Y+7405327D02*
X-4968060Y+7405327D01*
X-4917260Y+7405327D02*
X-4912180Y+7405327D01*
X-4886780Y+7405327D02*
X-4881700Y+7405327D01*
X-4861380Y+7405327D02*
X-4856300Y+7405327D01*
X-4835980Y+7405327D02*
X-4830900Y+7405327D01*
X-4815660Y+7405327D02*
X-4810580Y+7405327D01*
X-4795340Y+7405327D02*
X-4790260Y+7405327D01*
X-4775020Y+7405327D02*
X-4769940Y+7405327D01*
X-4754700Y+7405327D02*
X-4749620Y+7405327D01*
X-4729300Y+7405327D02*
X-4724220Y+7405327D01*
X-5242380Y+7410407D02*
X-5237300Y+7410407D01*
X-5232220Y+7410407D02*
X-5227140Y+7410407D01*
X-5211900Y+7410407D02*
X-5206820Y+7410407D01*
X-5201740Y+7410407D02*
X-5196660Y+7410407D01*
X-5181420Y+7410407D02*
X-5176340Y+7410407D01*
X-5156020Y+7410407D02*
X-5150940Y+7410407D01*
X-5130620Y+7410407D02*
X-5125540Y+7410407D01*
X-5100140Y+7410407D02*
X-5095060Y+7410407D01*
X-5079820Y+7410407D02*
X-5074740Y+7410407D01*
X-5044260Y+7410407D02*
X-5039180Y+7410407D01*
X-5029020Y+7410407D02*
X-5023940Y+7410407D01*
X-4998540Y+7410407D02*
X-4993460Y+7410407D01*
X-4973140Y+7410407D02*
X-4968060Y+7410407D01*
X-4917260Y+7410407D02*
X-4912180Y+7410407D01*
X-4886780Y+7410407D02*
X-4881700Y+7410407D01*
X-4866460Y+7410407D02*
X-4861380Y+7410407D01*
X-4830900Y+7410407D02*
X-4825820Y+7410407D01*
X-4815660Y+7410407D02*
X-4810580Y+7410407D01*
X-4775020Y+7410407D02*
X-4769940Y+7410407D01*
X-4759780Y+7410407D02*
X-4754700Y+7410407D01*
X-5242380Y+7415487D02*
X-5237300Y+7415487D01*
X-5227140Y+7415487D02*
X-5222060Y+7415487D01*
X-5211900Y+7415487D02*
X-5206820Y+7415487D01*
X-5201740Y+7415487D02*
X-5196660Y+7415487D01*
X-5181420Y+7415487D02*
X-5176340Y+7415487D01*
X-5156020Y+7415487D02*
X-5150940Y+7415487D01*
X-5130620Y+7415487D02*
X-5125540Y+7415487D01*
X-5100140Y+7415487D02*
X-5095060Y+7415487D01*
X-5079820Y+7415487D02*
X-5074740Y+7415487D01*
X-5044260Y+7415487D02*
X-5039180Y+7415487D01*
X-5029020Y+7415487D02*
X-5023940Y+7415487D01*
X-4998540Y+7415487D02*
X-4993460Y+7415487D01*
X-4973140Y+7415487D02*
X-4968060Y+7415487D01*
X-4917260Y+7415487D02*
X-4912180Y+7415487D01*
X-4886780Y+7415487D02*
X-4881700Y+7415487D01*
X-4866460Y+7415487D02*
X-4861380Y+7415487D01*
X-4830900Y+7415487D02*
X-4825820Y+7415487D01*
X-4815660Y+7415487D02*
X-4810580Y+7415487D01*
X-4785180Y+7415487D02*
X-4775020Y+7415487D01*
X-4759780Y+7415487D02*
X-4754700Y+7415487D01*
X-5247460Y+7420567D02*
X-5237300Y+7420567D01*
X-5227140Y+7420567D02*
X-5222060Y+7420567D01*
X-5216980Y+7420567D02*
X-5206820Y+7420567D01*
X-5196660Y+7420567D02*
X-5191580Y+7420567D01*
X-5181420Y+7420567D02*
X-5176340Y+7420567D01*
X-5156020Y+7420567D02*
X-5150940Y+7420567D01*
X-5130620Y+7420567D02*
X-5125540Y+7420567D01*
X-5100140Y+7420567D02*
X-5095060Y+7420567D01*
X-5079820Y+7420567D02*
X-5074740Y+7420567D01*
X-5044260Y+7420567D02*
X-5039180Y+7420567D01*
X-5029020Y+7420567D02*
X-5023940Y+7420567D01*
X-4998540Y+7420567D02*
X-4993460Y+7420567D01*
X-4973140Y+7420567D02*
X-4968060Y+7420567D01*
X-4917260Y+7420567D02*
X-4912180Y+7420567D01*
X-4886780Y+7420567D02*
X-4881700Y+7420567D01*
X-4866460Y+7420567D02*
X-4861380Y+7420567D01*
X-4830900Y+7420567D02*
X-4825820Y+7420567D01*
X-4815660Y+7420567D02*
X-4810580Y+7420567D01*
X-4795340Y+7420567D02*
X-4780100Y+7420567D01*
X-4759780Y+7420567D02*
X-4724220Y+7420567D01*
X-5247460Y+7425647D02*
X-5242380Y+7425647D01*
X-5227140Y+7425647D02*
X-5222060Y+7425647D01*
X-5216980Y+7425647D02*
X-5211900Y+7425647D01*
X-5196660Y+7425647D02*
X-5191580Y+7425647D01*
X-5181420Y+7425647D02*
X-5176340Y+7425647D01*
X-5156020Y+7425647D02*
X-5150940Y+7425647D01*
X-5130620Y+7425647D02*
X-5125540Y+7425647D01*
X-5100140Y+7425647D02*
X-5095060Y+7425647D01*
X-5079820Y+7425647D02*
X-5074740Y+7425647D01*
X-5044260Y+7425647D02*
X-5039180Y+7425647D01*
X-5029020Y+7425647D02*
X-5023940Y+7425647D01*
X-4998540Y+7425647D02*
X-4993460Y+7425647D01*
X-4973140Y+7425647D02*
X-4968060Y+7425647D01*
X-4917260Y+7425647D02*
X-4912180Y+7425647D01*
X-4886780Y+7425647D02*
X-4881700Y+7425647D01*
X-4866460Y+7425647D02*
X-4861380Y+7425647D01*
X-4830900Y+7425647D02*
X-4825820Y+7425647D01*
X-4815660Y+7425647D02*
X-4810580Y+7425647D01*
X-4795340Y+7425647D02*
X-4790260Y+7425647D01*
X-4759780Y+7425647D02*
X-4754700Y+7425647D01*
X-4729300Y+7425647D02*
X-4724220Y+7425647D01*
X-5247460Y+7430727D02*
X-5242380Y+7430727D01*
X-5222060Y+7430727D02*
X-5211900Y+7430727D01*
X-5196660Y+7430727D02*
X-5191580Y+7430727D01*
X-5181420Y+7430727D02*
X-5176340Y+7430727D01*
X-5156020Y+7430727D02*
X-5150940Y+7430727D01*
X-5130620Y+7430727D02*
X-5120460Y+7430727D01*
X-5105220Y+7430727D02*
X-5095060Y+7430727D01*
X-5074740Y+7430727D02*
X-5069660Y+7430727D01*
X-5049340Y+7430727D02*
X-5044260Y+7430727D01*
X-5029020Y+7430727D02*
X-5023940Y+7430727D01*
X-4998540Y+7430727D02*
X-4993460Y+7430727D01*
X-4973140Y+7430727D02*
X-4968060Y+7430727D01*
X-4917260Y+7430727D02*
X-4907100Y+7430727D01*
X-4891860Y+7430727D02*
X-4881700Y+7430727D01*
X-4861380Y+7430727D02*
X-4856300Y+7430727D01*
X-4835980Y+7430727D02*
X-4830900Y+7430727D01*
X-4815660Y+7430727D02*
X-4810580Y+7430727D01*
X-4795340Y+7430727D02*
X-4790260Y+7430727D01*
X-4775020Y+7430727D02*
X-4769940Y+7430727D01*
X-4754700Y+7430727D02*
X-4749620Y+7430727D01*
X-4734380Y+7430727D02*
X-4724220Y+7430727D01*
X-5252540Y+7435807D02*
X-5247460Y+7435807D01*
X-5222060Y+7435807D02*
X-5216980Y+7435807D01*
X-5191580Y+7435807D02*
X-5186500Y+7435807D01*
X-5181420Y+7435807D02*
X-5176340Y+7435807D01*
X-5166180Y+7435807D02*
X-5140780Y+7435807D01*
X-5130620Y+7435807D02*
X-5125540Y+7435807D01*
X-5120460Y+7435807D02*
X-5100140Y+7435807D01*
X-5069660Y+7435807D02*
X-5049340Y+7435807D01*
X-5029020Y+7435807D02*
X-5023940Y+7435807D01*
X-4998540Y+7435807D02*
X-4993460Y+7435807D01*
X-4983300Y+7435807D02*
X-4957900Y+7435807D01*
X-4917260Y+7435807D02*
X-4912180Y+7435807D01*
X-4907100Y+7435807D02*
X-4886780Y+7435807D01*
X-4856300Y+7435807D02*
X-4835980Y+7435807D01*
X-4815660Y+7435807D02*
X-4810580Y+7435807D01*
X-4790260Y+7435807D02*
X-4775020Y+7435807D01*
X-4749620Y+7435807D02*
X-4729300Y+7435807D01*
X-5156020Y+7440887D02*
X-5150940Y+7440887D01*
X-5130620Y+7440887D02*
X-5125540Y+7440887D01*
X-4973140Y+7440887D02*
X-4968060Y+7440887D01*
X-5156020Y+7445967D02*
X-5150940Y+7445967D01*
X-5130620Y+7445967D02*
X-5125540Y+7445967D01*
X-4973140Y+7445967D02*
X-4968060Y+7445967D01*
X-5156020Y+7451047D02*
X-5150940Y+7451047D01*
X-5130620Y+7451047D02*
X-5125540Y+7451047D01*
X-4973140Y+7451047D02*
X-4968060Y+7451047D01*
X-5181420Y+7456127D02*
X-5171260Y+7456127D01*
X-5130620Y+7456127D02*
X-5125540Y+7456127D01*
X-4815660Y+7456127D02*
X-4805500Y+7456127D01*
X-5181420Y+7461207D02*
X-5171260Y+7461207D01*
X-5130620Y+7461207D02*
X-5125540Y+7461207D01*
X-4815660Y+7461207D02*
X-4805500Y+7461207D01*
X+4678466Y+7856375D02*
X+4678466Y+7866535D01*
X+4683546Y+7856375D02*
X+4683546Y+7866535D01*
X+4688626Y+7856375D02*
X+4688626Y+7866535D01*
X+4693706Y+7856375D02*
X+4693706Y+7866535D01*
X+4698786Y+7856375D02*
X+4698786Y+7866535D01*
X+4703866Y+7856375D02*
X+4703866Y+7866535D01*
X+4708946Y+7856375D02*
X+4708946Y+7866535D01*
X+4714026Y+7820815D02*
X+4714026Y+7902095D01*
X+4719106Y+7820815D02*
X+4719106Y+7902095D01*
X+4724186Y+7856375D02*
X+4724186Y+7866535D01*
X+4729266Y+7856375D02*
X+4729266Y+7866535D01*
X+4734346Y+7856375D02*
X+4734346Y+7866535D01*
X+4739426Y+7856375D02*
X+4739426Y+7866535D01*
X+4744506Y+7856375D02*
X+4744506Y+7866535D01*
X+4749586Y+7856375D02*
X+4749586Y+7866535D01*
X+4754666Y+7856375D02*
X+4754666Y+7866535D01*
X+4728988Y+8718828D02*
X+4728988Y+8728988D01*
X+4734068Y+8718828D02*
X+4734068Y+8728988D01*
X+4739148Y+8718828D02*
X+4739148Y+8728988D01*
X+4744228Y+8718828D02*
X+4744228Y+8728988D01*
X+4749308Y+8718828D02*
X+4749308Y+8728988D01*
X+4754388Y+8718828D02*
X+4754388Y+8728988D01*
X+4759468Y+8718828D02*
X+4759468Y+8728988D01*
X+4764548Y+8718828D02*
X+4764548Y+8728988D01*
X+4769628Y+8718828D02*
X+4769628Y+8728988D01*
M02*
