G04 PROTEUS GERBER X2 FILE*
%TF.GenerationSoftware,Labcenter,Proteus,8.11-SP0-Build30052*%
%TF.CreationDate,2022-05-23T09:32:02+00:00*%
%TF.FileFunction,Copper,L2,Bot*%
%TF.FilePolarity,Positive*%
%TF.Part,Single*%
%TF.SameCoordinates,{dbbd143d-ed61-4da2-b447-6c1ffff0ded6}*%
%FSLAX45Y45*%
%MOMM*%
G01*
%TA.AperFunction,Conductor*%
%ADD16C,1.016000*%
%ADD17C,0.254000*%
%TA.AperFunction,WasherPad*%
%ADD10C,1.397000*%
%TA.AperFunction,ComponentPad*%
%ADD11C,1.778000*%
%TA.AperFunction,ComponentPad*%
%ADD12R,1.270000X1.270000*%
%ADD13C,1.270000*%
%TA.AperFunction,ComponentPad*%
%ADD14C,1.524000*%
%TA.AperFunction,ComponentPad*%
%ADD15C,2.286000*%
%TD.AperFunction*%
G36*
X+5250000Y+6099060D02*
X-10301880Y+6099060D01*
X-10301880Y+10000000D01*
X+5250000Y+10000000D01*
X+5250000Y+6099060D01*
G37*
%LPC*%
G36*
X-7233913Y+9163515D02*
X-7217792Y+9161928D01*
X-7186820Y+9152533D01*
X-7158276Y+9137276D01*
X-7133257Y+9116744D01*
X-7112725Y+9091725D01*
X-7097468Y+9063181D01*
X-7088073Y+9032209D01*
X-7084901Y+9000000D01*
X-7088072Y+8967792D01*
X-7097467Y+8936820D01*
X-7112724Y+8908276D01*
X-7133256Y+8883257D01*
X-7158275Y+8862725D01*
X-7186819Y+8847468D01*
X-7217791Y+8838073D01*
X-7250000Y+8834901D01*
X-7282208Y+8838072D01*
X-7313180Y+8847467D01*
X-7341724Y+8862724D01*
X-7366743Y+8883256D01*
X-7387275Y+8908275D01*
X-7402532Y+8936819D01*
X-7411927Y+8967791D01*
X-7413515Y+8983913D01*
X-7641642Y+9212040D01*
X-9241162Y+9212040D01*
X-9373002Y+9080200D01*
X-9373001Y+8520733D01*
X-9365068Y+8505891D01*
X-9356757Y+8478493D01*
X-9353951Y+8450000D01*
X-9356757Y+8421507D01*
X-9365068Y+8394109D01*
X-9378564Y+8368859D01*
X-9394041Y+8350000D01*
X-9378564Y+8331141D01*
X-9365068Y+8305891D01*
X-9356757Y+8278493D01*
X-9353951Y+8250000D01*
X-9356757Y+8221507D01*
X-9365068Y+8194109D01*
X-9378564Y+8168859D01*
X-9396727Y+8146727D01*
X-9418859Y+8128564D01*
X-9439579Y+8117489D01*
X-9435342Y+8114658D01*
X-9415520Y+8084993D01*
X-9408560Y+8050000D01*
X-9415520Y+8015007D01*
X-9435342Y+7985342D01*
X-9465007Y+7965520D01*
X-9500000Y+7958560D01*
X-9534993Y+7965520D01*
X-9564658Y+7985342D01*
X-9584480Y+8015007D01*
X-9591440Y+8050000D01*
X-9584480Y+8084993D01*
X-9564658Y+8114658D01*
X-9560421Y+8117489D01*
X-9581141Y+8128564D01*
X-9603273Y+8146727D01*
X-9621436Y+8168859D01*
X-9634932Y+8194109D01*
X-9643243Y+8221507D01*
X-9646049Y+8250000D01*
X-9643243Y+8278493D01*
X-9634932Y+8305891D01*
X-9621436Y+8331141D01*
X-9605959Y+8350000D01*
X-9621436Y+8368859D01*
X-9634932Y+8394109D01*
X-9643243Y+8421507D01*
X-9646049Y+8450000D01*
X-9643243Y+8478493D01*
X-9634932Y+8505891D01*
X-9626999Y+8520733D01*
X-9626998Y+9185408D01*
X-9346368Y+9466038D01*
X-7536436Y+9466038D01*
X-7233913Y+9163515D01*
G37*
G36*
X-6455792Y+9161928D02*
X-6424820Y+9152533D01*
X-6396276Y+9137276D01*
X-6371257Y+9116744D01*
X-6350725Y+9091725D01*
X-6335468Y+9063181D01*
X-6326073Y+9032209D01*
X-6322901Y+9000000D01*
X-6326072Y+8967792D01*
X-6335467Y+8936820D01*
X-6350724Y+8908276D01*
X-6371256Y+8883257D01*
X-6396275Y+8862725D01*
X-6424819Y+8847468D01*
X-6455791Y+8838073D01*
X-6488000Y+8834901D01*
X-6520208Y+8838072D01*
X-6551180Y+8847467D01*
X-6579724Y+8862724D01*
X-6592247Y+8873001D01*
X-6646133Y+8873001D01*
X-6873001Y+8646133D01*
X-6873001Y+8354247D01*
X-6873000Y+8354246D01*
X-6862744Y+8366743D01*
X-6837725Y+8387275D01*
X-6809181Y+8402532D01*
X-6778209Y+8411927D01*
X-6746000Y+8415099D01*
X-6713792Y+8411928D01*
X-6682820Y+8402533D01*
X-6654276Y+8387276D01*
X-6629257Y+8366744D01*
X-6608725Y+8341725D01*
X-6593468Y+8313181D01*
X-6584073Y+8282209D01*
X-6580901Y+8250000D01*
X-6584072Y+8217792D01*
X-6593467Y+8186820D01*
X-6608724Y+8158276D01*
X-6621097Y+8143199D01*
X-6621097Y+8064380D01*
X-6808478Y+7876999D01*
X-5888998Y+7876999D01*
X-5888998Y+7877000D01*
X-5888999Y+7946673D01*
X-5891065Y+7950539D01*
X-5899015Y+7976746D01*
X-5901699Y+8004000D01*
X-5899015Y+8031254D01*
X-5891065Y+8057461D01*
X-5888999Y+8061326D01*
X-5888999Y+8977151D01*
X-5729517Y+9136633D01*
X-5550283Y+9136633D01*
X-5528493Y+9143243D01*
X-5500000Y+9146049D01*
X-5471507Y+9143243D01*
X-5444109Y+9134932D01*
X-5418859Y+9121436D01*
X-5396727Y+9103273D01*
X-5378564Y+9081141D01*
X-5367489Y+9060421D01*
X-5364658Y+9064658D01*
X-5334993Y+9084480D01*
X-5300000Y+9091440D01*
X-5265007Y+9084480D01*
X-5235342Y+9064658D01*
X-5215520Y+9034993D01*
X-5208560Y+9000000D01*
X-5215520Y+8965007D01*
X-5235342Y+8935342D01*
X-5265007Y+8915520D01*
X-5300000Y+8908560D01*
X-5334993Y+8915520D01*
X-5364658Y+8935342D01*
X-5367489Y+8939579D01*
X-5378564Y+8918859D01*
X-5396727Y+8896727D01*
X-5418859Y+8878564D01*
X-5444109Y+8865068D01*
X-5471507Y+8856757D01*
X-5500000Y+8853951D01*
X-5528493Y+8856757D01*
X-5555891Y+8865068D01*
X-5581141Y+8878564D01*
X-5586102Y+8882635D01*
X-5624311Y+8882635D01*
X-5635001Y+8871945D01*
X-5635001Y+8061326D01*
X-5632935Y+8057461D01*
X-5624985Y+8031254D01*
X-5622301Y+8004000D01*
X-5624985Y+7976746D01*
X-5632935Y+7950539D01*
X-5635001Y+7946673D01*
X-5635002Y+7877000D01*
X-5635001Y+7807327D01*
X-5632935Y+7803461D01*
X-5624985Y+7777254D01*
X-5622301Y+7750000D01*
X-5624985Y+7722746D01*
X-5632935Y+7696539D01*
X-5645845Y+7672387D01*
X-5663218Y+7651218D01*
X-5684387Y+7633845D01*
X-5708539Y+7620935D01*
X-5734746Y+7612985D01*
X-5762000Y+7610301D01*
X-5789254Y+7612985D01*
X-5815461Y+7620935D01*
X-5819326Y+7623001D01*
X-6851486Y+7623001D01*
X-6876151Y+7598336D01*
X-6870725Y+7591725D01*
X-6855468Y+7563181D01*
X-6846073Y+7532209D01*
X-6842901Y+7500000D01*
X-6846072Y+7467792D01*
X-6855467Y+7436820D01*
X-6870724Y+7408276D01*
X-6891256Y+7383257D01*
X-6916275Y+7362725D01*
X-6944819Y+7347468D01*
X-6975791Y+7338073D01*
X-6991913Y+7336485D01*
X-7202663Y+7125735D01*
X-9243319Y+7125735D01*
X-9455670Y+7338086D01*
X-9455670Y+7723932D01*
X-9142999Y+8036603D01*
X-9142999Y+8145753D01*
X-9153275Y+8158275D01*
X-9168532Y+8186819D01*
X-9177927Y+8217791D01*
X-9181099Y+8250000D01*
X-9177928Y+8282208D01*
X-9168533Y+8313180D01*
X-9153276Y+8341724D01*
X-9132744Y+8366743D01*
X-9107725Y+8387275D01*
X-9079181Y+8402532D01*
X-9048209Y+8411927D01*
X-9016000Y+8415099D01*
X-8983792Y+8411928D01*
X-8952820Y+8402533D01*
X-8924276Y+8387276D01*
X-8899257Y+8366744D01*
X-8878725Y+8341725D01*
X-8863468Y+8313181D01*
X-8854073Y+8282209D01*
X-8850901Y+8250000D01*
X-8854072Y+8217792D01*
X-8863467Y+8186820D01*
X-8878724Y+8158276D01*
X-8889001Y+8145753D01*
X-8889001Y+7931397D01*
X-9201672Y+7618726D01*
X-9201672Y+7443292D01*
X-9138113Y+7379733D01*
X-8096450Y+7379733D01*
X-8100743Y+7383256D01*
X-8121275Y+7408275D01*
X-8136532Y+7436819D01*
X-8145927Y+7467791D01*
X-8149099Y+7500000D01*
X-8145928Y+7532208D01*
X-8136533Y+7563180D01*
X-8126999Y+7581017D01*
X-8126999Y+8145753D01*
X-8137275Y+8158275D01*
X-8152532Y+8186819D01*
X-8161927Y+8217791D01*
X-8165099Y+8250000D01*
X-8161928Y+8282208D01*
X-8152533Y+8313180D01*
X-8137276Y+8341724D01*
X-8116744Y+8366743D01*
X-8091725Y+8387275D01*
X-8063181Y+8402532D01*
X-8032209Y+8411927D01*
X-8000000Y+8415099D01*
X-7967792Y+8411928D01*
X-7936820Y+8402533D01*
X-7908276Y+8387276D01*
X-7895753Y+8376999D01*
X-7595378Y+8376999D01*
X-7312233Y+8093854D01*
X-7206594Y+8093854D01*
X-7206594Y+8093855D01*
X-7051273Y+8093855D01*
X-7063180Y+8097467D01*
X-7091724Y+8112724D01*
X-7113772Y+8130818D01*
X-7277352Y+8130818D01*
X-7576025Y+8429491D01*
X-7576025Y+8718618D01*
X-7730408Y+8873001D01*
X-7895753Y+8873001D01*
X-7908275Y+8862725D01*
X-7936819Y+8847468D01*
X-7967791Y+8838073D01*
X-8000000Y+8834901D01*
X-8032208Y+8838072D01*
X-8063180Y+8847467D01*
X-8091724Y+8862724D01*
X-8116743Y+8883256D01*
X-8137275Y+8908275D01*
X-8152532Y+8936819D01*
X-8161927Y+8967791D01*
X-8165099Y+9000000D01*
X-8161928Y+9032208D01*
X-8152533Y+9063180D01*
X-8137276Y+9091724D01*
X-8116744Y+9116743D01*
X-8091725Y+9137275D01*
X-8063181Y+9152532D01*
X-8032209Y+9161927D01*
X-8000000Y+9165099D01*
X-7967792Y+9161928D01*
X-7936820Y+9152533D01*
X-7908276Y+9137276D01*
X-7895753Y+9126999D01*
X-7625202Y+9126999D01*
X-7322027Y+8823824D01*
X-7322027Y+8534697D01*
X-7172146Y+8384816D01*
X-7126999Y+8384816D01*
X-7126999Y+8751339D01*
X-6751339Y+9126999D01*
X-6592247Y+9126999D01*
X-6579725Y+9137275D01*
X-6551181Y+9152532D01*
X-6520209Y+9161927D01*
X-6488000Y+9165099D01*
X-6455792Y+9161928D01*
G37*
G36*
X-8933867Y+8965979D02*
X-8953138Y+8937138D01*
X-8981979Y+8917867D01*
X-9016000Y+8911100D01*
X-9050021Y+8917867D01*
X-9078862Y+8937138D01*
X-9098133Y+8965979D01*
X-9104900Y+9000000D01*
X-9098133Y+9034021D01*
X-9078862Y+9062862D01*
X-9050021Y+9082133D01*
X-9016000Y+9088900D01*
X-8981979Y+9082133D01*
X-8953138Y+9062862D01*
X-8933867Y+9034021D01*
X-8927100Y+9000000D01*
X-8933867Y+8965979D01*
G37*
G36*
X-8917867Y+7465979D02*
X-8937138Y+7437138D01*
X-8965979Y+7417867D01*
X-9000000Y+7411100D01*
X-9034021Y+7417867D01*
X-9062862Y+7437138D01*
X-9082133Y+7465979D01*
X-9088900Y+7500000D01*
X-9082133Y+7534021D01*
X-9062862Y+7562862D01*
X-9034021Y+7582133D01*
X-9000000Y+7588900D01*
X-8965979Y+7582133D01*
X-8937138Y+7562862D01*
X-8917867Y+7534021D01*
X-8911100Y+7500000D01*
X-8917867Y+7465979D01*
G37*
G36*
X-6671867Y+7465979D02*
X-6691138Y+7437138D01*
X-6719979Y+7417867D01*
X-6754000Y+7411100D01*
X-6788021Y+7417867D01*
X-6816862Y+7437138D01*
X-6836133Y+7465979D01*
X-6842900Y+7500000D01*
X-6836133Y+7534021D01*
X-6816862Y+7562862D01*
X-6788021Y+7582133D01*
X-6754000Y+7588900D01*
X-6719979Y+7582133D01*
X-6691138Y+7562862D01*
X-6671867Y+7534021D01*
X-6665100Y+7500000D01*
X-6671867Y+7465979D01*
G37*
G36*
X-41666Y+9221268D02*
X+89458Y+9352392D01*
X+1344413Y+9352392D01*
X+1569807Y+9126998D01*
X+1737607Y+9126999D01*
X+1750129Y+9137275D01*
X+1778673Y+9152532D01*
X+1809645Y+9161927D01*
X+1841854Y+9165099D01*
X+1874062Y+9161928D01*
X+1905034Y+9152533D01*
X+1933578Y+9137276D01*
X+1958597Y+9116744D01*
X+1979129Y+9091725D01*
X+1994386Y+9063181D01*
X+2003781Y+9032209D01*
X+2006953Y+9000000D01*
X+2003782Y+8967792D01*
X+1994387Y+8936820D01*
X+1979130Y+8908276D01*
X+1958598Y+8883257D01*
X+1933579Y+8862725D01*
X+1905035Y+8847468D01*
X+1874063Y+8838073D01*
X+1841854Y+8834901D01*
X+1809646Y+8838072D01*
X+1778674Y+8847467D01*
X+1750130Y+8862724D01*
X+1737607Y+8873001D01*
X+1464599Y+8873002D01*
X+1239205Y+9098396D01*
X+307275Y+9098396D01*
X+321436Y+9081141D01*
X+334932Y+9055891D01*
X+343243Y+9028493D01*
X+346049Y+9000000D01*
X+343243Y+8971507D01*
X+334932Y+8944109D01*
X+326999Y+8929267D01*
X+326999Y+8791579D01*
X+104650Y+8569230D01*
X-368454Y+8569230D01*
X-680913Y+8881689D01*
X-1256032Y+8881689D01*
X-1257211Y+8880722D01*
X-817726Y+8880722D01*
X-572076Y+8635072D01*
X-572076Y+7622374D01*
X-680807Y+7513643D01*
X-679830Y+7503723D01*
X-683490Y+7466559D01*
X-694330Y+7430823D01*
X-711934Y+7397888D01*
X-735625Y+7369020D01*
X-764493Y+7345329D01*
X-797428Y+7327725D01*
X-833164Y+7316884D01*
X-870329Y+7313224D01*
X-880249Y+7314201D01*
X-1173634Y+7020816D01*
X-954457Y+7020816D01*
X+401726Y+8376999D01*
X+1737607Y+8376999D01*
X+1750129Y+8387275D01*
X+1778673Y+8402532D01*
X+1809645Y+8411927D01*
X+1841854Y+8415099D01*
X+1874062Y+8411928D01*
X+1905034Y+8402533D01*
X+1933578Y+8387276D01*
X+1958597Y+8366744D01*
X+1979129Y+8341725D01*
X+1994386Y+8313181D01*
X+2003781Y+8282209D01*
X+2006953Y+8250000D01*
X+2003782Y+8217792D01*
X+1994387Y+8186820D01*
X+1979130Y+8158276D01*
X+1958598Y+8133257D01*
X+1933579Y+8112725D01*
X+1905035Y+8097468D01*
X+1874063Y+8088073D01*
X+1841854Y+8084901D01*
X+1809646Y+8088072D01*
X+1778674Y+8097467D01*
X+1750130Y+8112724D01*
X+1737607Y+8123001D01*
X+506932Y+8123001D01*
X-849251Y+6766818D01*
X-4696420Y+6766818D01*
X-5498853Y+7569251D01*
X-5498853Y+7901420D01*
X-5269274Y+8130999D01*
X-5057326Y+8130999D01*
X-5053461Y+8133065D01*
X-5027254Y+8141015D01*
X-5000000Y+8143699D01*
X-4972746Y+8141015D01*
X-4946539Y+8133065D01*
X-4922387Y+8120155D01*
X-4901218Y+8102782D01*
X-4883845Y+8081613D01*
X-4870935Y+8057461D01*
X-4862985Y+8031254D01*
X-4860301Y+8004000D01*
X-4862985Y+7976746D01*
X-4870935Y+7950539D01*
X-4883845Y+7926387D01*
X-4901218Y+7905218D01*
X-4920128Y+7889699D01*
X-4860301Y+7889699D01*
X-4860301Y+7793626D01*
X-4697397Y+7630722D01*
X-3763328Y+7630722D01*
X-3763328Y+8172707D01*
X-3772861Y+8190542D01*
X-3782256Y+8221514D01*
X-3785428Y+8253723D01*
X-3782257Y+8285931D01*
X-3772862Y+8316903D01*
X-3757605Y+8345447D01*
X-3748879Y+8356080D01*
X-3748879Y+9136886D01*
X-3258766Y+9626999D01*
X-447397Y+9626999D01*
X-41666Y+9221268D01*
G37*
G36*
X+2636062Y+9161928D02*
X+2667034Y+9152533D01*
X+2695578Y+9137276D01*
X+2709542Y+9125816D01*
X+3512603Y+9125816D01*
X+3722853Y+8915566D01*
X+3722853Y+8854247D01*
X+3733129Y+8841725D01*
X+3748386Y+8813181D01*
X+3757781Y+8782209D01*
X+3760953Y+8750000D01*
X+3757782Y+8717792D01*
X+3748387Y+8686820D01*
X+3733130Y+8658276D01*
X+3722853Y+8645753D01*
X+3722853Y+7854247D01*
X+3733129Y+7841725D01*
X+3748386Y+7813181D01*
X+3757781Y+7782209D01*
X+3760953Y+7750000D01*
X+3757782Y+7717792D01*
X+3748387Y+7686820D01*
X+3733130Y+7658276D01*
X+3712598Y+7633257D01*
X+3687579Y+7612725D01*
X+3659035Y+7597468D01*
X+3628063Y+7588073D01*
X+3595854Y+7584901D01*
X+3563646Y+7588072D01*
X+3532674Y+7597467D01*
X+3504130Y+7612724D01*
X+3479111Y+7633256D01*
X+3468854Y+7645754D01*
X+3468853Y+7645753D01*
X+3468853Y+7624566D01*
X+3552603Y+7540816D01*
X+4203068Y+7540816D01*
X+4464855Y+7802603D01*
X+4464855Y+8179267D01*
X+4456922Y+8194109D01*
X+4448611Y+8221507D01*
X+4445805Y+8250000D01*
X+4448611Y+8278493D01*
X+4456922Y+8305891D01*
X+4470418Y+8331141D01*
X+4488581Y+8353273D01*
X+4510713Y+8371436D01*
X+4531433Y+8382511D01*
X+4527196Y+8385342D01*
X+4507374Y+8415007D01*
X+4500414Y+8450000D01*
X+4507374Y+8484993D01*
X+4527196Y+8514658D01*
X+4556861Y+8534480D01*
X+4591854Y+8541440D01*
X+4626847Y+8534480D01*
X+4656512Y+8514658D01*
X+4676334Y+8484993D01*
X+4683294Y+8450000D01*
X+4676334Y+8415007D01*
X+4656512Y+8385342D01*
X+4652275Y+8382511D01*
X+4672995Y+8371436D01*
X+4695127Y+8353273D01*
X+4713290Y+8331141D01*
X+4726786Y+8305891D01*
X+4735097Y+8278493D01*
X+4737903Y+8250000D01*
X+4735097Y+8221507D01*
X+4726786Y+8194109D01*
X+4718853Y+8179267D01*
X+4718853Y+7697397D01*
X+4308274Y+7286818D01*
X+3447397Y+7286818D01*
X+3214855Y+7519360D01*
X+3214855Y+7645753D01*
X+3204579Y+7658275D01*
X+3189322Y+7686819D01*
X+3179927Y+7717791D01*
X+3176755Y+7750000D01*
X+3179926Y+7782208D01*
X+3189321Y+7813180D01*
X+3204578Y+7841724D01*
X+3225110Y+7866743D01*
X+3250129Y+7887275D01*
X+3278673Y+7902532D01*
X+3309645Y+7911927D01*
X+3341854Y+7915099D01*
X+3374062Y+7911928D01*
X+3405034Y+7902533D01*
X+3433578Y+7887276D01*
X+3458597Y+7866744D01*
X+3468854Y+7854246D01*
X+3468855Y+7854247D01*
X+3468855Y+8645753D01*
X+3458579Y+8658275D01*
X+3443322Y+8686819D01*
X+3433927Y+8717791D01*
X+3430755Y+8750000D01*
X+3433926Y+8782208D01*
X+3443321Y+8813180D01*
X+3451233Y+8827982D01*
X+3407397Y+8871818D01*
X+2730853Y+8871818D01*
X+2730853Y+8354247D01*
X+2741129Y+8341725D01*
X+2756386Y+8313181D01*
X+2765781Y+8282209D01*
X+2768953Y+8250000D01*
X+2765782Y+8217792D01*
X+2756387Y+8186820D01*
X+2750544Y+8175888D01*
X+2750544Y+7763574D01*
X+2849811Y+7664307D01*
X+2857854Y+7665099D01*
X+2890062Y+7661928D01*
X+2921034Y+7652533D01*
X+2949578Y+7637276D01*
X+2974597Y+7616744D01*
X+2995129Y+7591725D01*
X+3010386Y+7563181D01*
X+3019781Y+7532209D01*
X+3022953Y+7500000D01*
X+3019782Y+7467792D01*
X+3010387Y+7436820D01*
X+2995130Y+7408276D01*
X+2974598Y+7383257D01*
X+2949579Y+7362725D01*
X+2921035Y+7347468D01*
X+2890063Y+7338073D01*
X+2857854Y+7334901D01*
X+2825646Y+7338072D01*
X+2794674Y+7347467D01*
X+2766130Y+7362724D01*
X+2741111Y+7383256D01*
X+2720579Y+7408275D01*
X+2705322Y+7436819D01*
X+2699760Y+7455154D01*
X+2496548Y+7658366D01*
X+2496548Y+8125511D01*
X+2487111Y+8133256D01*
X+2466579Y+8158275D01*
X+2451322Y+8186819D01*
X+2441927Y+8217791D01*
X+2438755Y+8250000D01*
X+2441926Y+8282208D01*
X+2451321Y+8313180D01*
X+2466578Y+8341724D01*
X+2476855Y+8354247D01*
X+2476855Y+8895753D01*
X+2466579Y+8908275D01*
X+2451322Y+8936819D01*
X+2441927Y+8967791D01*
X+2438755Y+9000000D01*
X+2441926Y+9032208D01*
X+2451321Y+9063180D01*
X+2466578Y+9091724D01*
X+2487110Y+9116743D01*
X+2512129Y+9137275D01*
X+2540673Y+9152532D01*
X+2571645Y+9161927D01*
X+2603854Y+9165099D01*
X+2636062Y+9161928D01*
G37*
G36*
X+1923987Y+7465979D02*
X+1904716Y+7437138D01*
X+1875875Y+7417867D01*
X+1841854Y+7411100D01*
X+1807833Y+7417867D01*
X+1778992Y+7437138D01*
X+1759721Y+7465979D01*
X+1752954Y+7500000D01*
X+1759721Y+7534021D01*
X+1778992Y+7562862D01*
X+1807833Y+7582133D01*
X+1841854Y+7588900D01*
X+1875875Y+7582133D01*
X+1904716Y+7562862D01*
X+1923987Y+7534021D01*
X+1930754Y+7500000D01*
X+1923987Y+7465979D01*
G37*
G36*
X+3423987Y+8715979D02*
X+3404716Y+8687138D01*
X+3375875Y+8667867D01*
X+3341854Y+8661100D01*
X+3307833Y+8667867D01*
X+3278992Y+8687138D01*
X+3259721Y+8715979D01*
X+3252954Y+8750000D01*
X+3259721Y+8784021D01*
X+3278992Y+8812862D01*
X+3307833Y+8832133D01*
X+3341854Y+8838900D01*
X+3375875Y+8832133D01*
X+3404716Y+8812862D01*
X+3423987Y+8784021D01*
X+3430754Y+8750000D01*
X+3423987Y+8715979D01*
G37*
%LPD*%
D16*
X-9500000Y+8450000D02*
X-9500000Y+9132804D01*
X-9293765Y+9339039D01*
X-7589039Y+9339039D01*
X-7250000Y+9000000D01*
X-6488000Y+9000000D02*
X-6698736Y+9000000D01*
X-6873473Y+8825263D01*
X-7000000Y+8698736D01*
X-7000000Y+8250000D01*
X-8000000Y+9000000D02*
X-7677805Y+9000000D01*
X-7449026Y+8771221D01*
X-7449026Y+8482094D01*
X-7224749Y+8257817D01*
X-7007817Y+8257817D01*
X-7000000Y+8250000D01*
X-8000000Y+8250000D02*
X-7647981Y+8250000D01*
X-7474389Y+8076408D01*
X-7364837Y+7966856D01*
X-7206594Y+7966856D01*
X-6898223Y+7966856D01*
X-6748096Y+8116983D01*
X-6748096Y+8247904D01*
X-6746000Y+8250000D01*
X-7008000Y+7500000D02*
X-7255266Y+7252734D01*
X-9190716Y+7252734D01*
X-9328671Y+7390689D01*
X-9328671Y+7671329D01*
X-9016000Y+7984000D01*
X-9016000Y+8250000D01*
X-8000000Y+8250000D02*
X-8000000Y+7516000D01*
X-7984000Y+7500000D01*
X-5762000Y+8004000D02*
X-5762000Y+7750000D01*
X-6904089Y+7750000D01*
X-7003719Y+7650370D01*
X-7003719Y+7504281D01*
X-7008000Y+7500000D01*
X-5762000Y+8004000D02*
X-5762000Y+8924548D01*
X-5676914Y+9009634D01*
X-5509634Y+9009634D01*
X-5500000Y+9000000D01*
X-2604329Y+8253723D02*
X-2870329Y+8253723D01*
X-3120329Y+8503723D01*
X-3120329Y+9003723D01*
X-1620329Y+8253723D02*
X-1620329Y+8127775D01*
X-1740658Y+8007446D01*
X-3124052Y+8007446D01*
X-3370329Y+8253723D01*
X-3620329Y+8253723D01*
X-1417129Y+8253723D02*
X-1417129Y+7630494D01*
X-1539650Y+7507973D01*
X-1882079Y+7507973D01*
X-1886329Y+7503723D01*
X-870329Y+7503723D02*
X-1237638Y+7136414D01*
X-1265550Y+7136414D01*
X-2503020Y+7136414D01*
X-2620329Y+7253723D01*
X-2620329Y+7503723D01*
X-1213929Y+8253723D02*
X-1213929Y+8406567D01*
X-1326461Y+8519099D01*
X-2385705Y+8519099D01*
X-2620329Y+8753723D01*
X-2840221Y+8753723D01*
X-2904062Y+8817564D01*
X-2904062Y+8987456D01*
X-2920329Y+9003723D01*
X-870329Y+7503723D02*
X-699075Y+7674977D01*
X-699075Y+8050083D01*
X-699075Y+8582469D01*
X-870329Y+8753723D01*
X-1506265Y+8753723D01*
X-1606653Y+8854111D01*
X-1606653Y+8990047D01*
X-1620329Y+9003723D01*
X-4516000Y+7500000D02*
X-4516000Y+7503723D01*
X-5000000Y+7753723D02*
X-5000000Y+7750000D01*
X-5000000Y+7753723D02*
X-4750000Y+7503723D01*
X-4516000Y+7503723D01*
X-1369099Y+9092623D02*
X-1366329Y+9003723D01*
X-1459009Y+9205940D02*
X-1369099Y+9116030D01*
X-1369099Y+9092623D01*
X-2920329Y+9003723D02*
X-2784907Y+9003723D01*
X-2532504Y+9256126D01*
X-1509195Y+9256126D01*
X-1459009Y+9205940D01*
X-1369099Y+9092623D02*
X-1369099Y+9006493D01*
X-1366329Y+9003723D01*
X+2603854Y+8250000D02*
X+2603854Y+9000000D01*
X+3595854Y+7750000D02*
X+3595854Y+8750000D01*
X+3341854Y+7750000D02*
X+3341854Y+7571963D01*
X+3500000Y+7413817D01*
X+4255671Y+7413817D01*
X+4591854Y+7750000D01*
X+4591854Y+8250000D01*
X+3595854Y+8750000D02*
X+3595854Y+8862963D01*
X+3460000Y+8998817D01*
X+2605037Y+8998817D01*
X+2603854Y+9000000D01*
X-4516000Y+7503723D02*
X-4136329Y+7503723D01*
X-3636329Y+7503723D01*
X+1841854Y+8250000D02*
X+454329Y+8250000D01*
X-901854Y+6893817D01*
X-1171854Y+6893817D01*
X-4643817Y+6893817D01*
X-5250000Y+7500000D01*
X-5371854Y+7621854D01*
X-5371854Y+7848817D01*
X-5216671Y+8004000D01*
X-5000000Y+8004000D01*
X-3626920Y+8247132D02*
X-3636329Y+8237723D01*
X-3620329Y+8253723D01*
X-3636329Y+7503723D02*
X-3636329Y+8237723D01*
X-3626920Y+8247132D02*
X-3620329Y+8253723D01*
X+0Y+9000000D02*
X-500000Y+9500000D01*
X-1000000Y+9500000D01*
X-3206163Y+9500000D01*
X-3621880Y+9084283D01*
X-3621880Y+8255274D01*
X-3620329Y+8253723D01*
X+200000Y+9000000D02*
X+200000Y+8844182D01*
X+52047Y+8696229D01*
X-315851Y+8696229D01*
X-628310Y+9008688D01*
X-1361364Y+9008688D01*
X-1366329Y+9003723D01*
X+1841854Y+9000000D02*
X+1517203Y+9000000D01*
X+1291809Y+9225394D01*
X+142062Y+9225394D01*
X+0Y+9083332D01*
X+0Y+9000000D01*
X+2857854Y+7500000D02*
X+2834516Y+7500000D01*
X+2623546Y+7710970D01*
X+2623546Y+8230308D01*
X+2603854Y+8250000D01*
X+5250000Y+6099060D02*
X-10301880Y+6099060D01*
X-10301880Y+10000000D01*
X+5250000Y+10000000D01*
X+5250000Y+6099060D01*
X-7233913Y+9163515D02*
X-7217792Y+9161928D01*
X-7186820Y+9152533D01*
X-7158276Y+9137276D01*
X-7133257Y+9116744D01*
X-7112725Y+9091725D01*
X-7097468Y+9063181D01*
X-7088073Y+9032209D01*
X-7084901Y+9000000D01*
X-7088072Y+8967792D01*
X-7097467Y+8936820D01*
X-7112724Y+8908276D01*
X-7133256Y+8883257D01*
X-7158275Y+8862725D01*
X-7186819Y+8847468D01*
X-7217791Y+8838073D01*
X-7250000Y+8834901D01*
X-7282208Y+8838072D01*
X-7313180Y+8847467D01*
X-7341724Y+8862724D01*
X-7366743Y+8883256D01*
X-7387275Y+8908275D01*
X-7402532Y+8936819D01*
X-7411927Y+8967791D01*
X-7413515Y+8983913D01*
X-7641642Y+9212040D01*
X-9241162Y+9212040D01*
X-9373002Y+9080200D01*
X-9373001Y+8520733D01*
X-9365068Y+8505891D01*
X-9356757Y+8478493D01*
X-9353951Y+8450000D01*
X-9356757Y+8421507D01*
X-9365068Y+8394109D01*
X-9378564Y+8368859D01*
X-9394041Y+8350000D01*
X-9378564Y+8331141D01*
X-9365068Y+8305891D01*
X-9356757Y+8278493D01*
X-9353951Y+8250000D01*
X-9356757Y+8221507D01*
X-9365068Y+8194109D01*
X-9378564Y+8168859D01*
X-9396727Y+8146727D01*
X-9418859Y+8128564D01*
X-9439579Y+8117489D01*
X-9435342Y+8114658D01*
X-9415520Y+8084993D01*
X-9408560Y+8050000D01*
X-9415520Y+8015007D01*
X-9435342Y+7985342D01*
X-9465007Y+7965520D01*
X-9500000Y+7958560D01*
X-9534993Y+7965520D01*
X-9564658Y+7985342D01*
X-9584480Y+8015007D01*
X-9591440Y+8050000D01*
X-9584480Y+8084993D01*
X-9564658Y+8114658D01*
X-9560421Y+8117489D01*
X-9581141Y+8128564D01*
X-9603273Y+8146727D01*
X-9621436Y+8168859D01*
X-9634932Y+8194109D01*
X-9643243Y+8221507D01*
X-9646049Y+8250000D01*
X-9643243Y+8278493D01*
X-9634932Y+8305891D01*
X-9621436Y+8331141D01*
X-9605959Y+8350000D01*
X-9621436Y+8368859D01*
X-9634932Y+8394109D01*
X-9643243Y+8421507D01*
X-9646049Y+8450000D01*
X-9643243Y+8478493D01*
X-9634932Y+8505891D01*
X-9626999Y+8520733D01*
X-9626998Y+9185408D01*
X-9346368Y+9466038D01*
X-7536436Y+9466038D01*
X-7233913Y+9163515D01*
X-6455792Y+9161928D02*
X-6424820Y+9152533D01*
X-6396276Y+9137276D01*
X-6371257Y+9116744D01*
X-6350725Y+9091725D01*
X-6335468Y+9063181D01*
X-6326073Y+9032209D01*
X-6322901Y+9000000D01*
X-6326072Y+8967792D01*
X-6335467Y+8936820D01*
X-6350724Y+8908276D01*
X-6371256Y+8883257D01*
X-6396275Y+8862725D01*
X-6424819Y+8847468D01*
X-6455791Y+8838073D01*
X-6488000Y+8834901D01*
X-6520208Y+8838072D01*
X-6551180Y+8847467D01*
X-6579724Y+8862724D01*
X-6592247Y+8873001D01*
X-6646133Y+8873001D01*
X-6873001Y+8646133D01*
X-6873001Y+8354247D01*
X-6873000Y+8354246D01*
X-6862744Y+8366743D01*
X-6837725Y+8387275D01*
X-6809181Y+8402532D01*
X-6778209Y+8411927D01*
X-6746000Y+8415099D01*
X-6713792Y+8411928D01*
X-6682820Y+8402533D01*
X-6654276Y+8387276D01*
X-6629257Y+8366744D01*
X-6608725Y+8341725D01*
X-6593468Y+8313181D01*
X-6584073Y+8282209D01*
X-6580901Y+8250000D01*
X-6584072Y+8217792D01*
X-6593467Y+8186820D01*
X-6608724Y+8158276D01*
X-6621097Y+8143199D01*
X-6621097Y+8064380D01*
X-6808478Y+7876999D01*
X-5888998Y+7876999D01*
X-5888998Y+7877000D01*
X-5888999Y+7946673D01*
X-5891065Y+7950539D01*
X-5899015Y+7976746D01*
X-5901699Y+8004000D01*
X-5899015Y+8031254D01*
X-5891065Y+8057461D01*
X-5888999Y+8061326D01*
X-5888999Y+8977151D01*
X-5729517Y+9136633D01*
X-5550283Y+9136633D01*
X-5528493Y+9143243D01*
X-5500000Y+9146049D01*
X-5471507Y+9143243D01*
X-5444109Y+9134932D01*
X-5418859Y+9121436D01*
X-5396727Y+9103273D01*
X-5378564Y+9081141D01*
X-5367489Y+9060421D01*
X-5364658Y+9064658D01*
X-5334993Y+9084480D01*
X-5300000Y+9091440D01*
X-5265007Y+9084480D01*
X-5235342Y+9064658D01*
X-5215520Y+9034993D01*
X-5208560Y+9000000D01*
X-5215520Y+8965007D01*
X-5235342Y+8935342D01*
X-5265007Y+8915520D01*
X-5300000Y+8908560D01*
X-5334993Y+8915520D01*
X-5364658Y+8935342D01*
X-5367489Y+8939579D01*
X-5378564Y+8918859D01*
X-5396727Y+8896727D01*
X-5418859Y+8878564D01*
X-5444109Y+8865068D01*
X-5471507Y+8856757D01*
X-5500000Y+8853951D01*
X-5528493Y+8856757D01*
X-5555891Y+8865068D01*
X-5581141Y+8878564D01*
X-5586102Y+8882635D01*
X-5624311Y+8882635D01*
X-5635001Y+8871945D01*
X-5635001Y+8061326D01*
X-5632935Y+8057461D01*
X-5624985Y+8031254D01*
X-5622301Y+8004000D01*
X-5624985Y+7976746D01*
X-5632935Y+7950539D01*
X-5635001Y+7946673D01*
X-5635002Y+7877000D01*
X-5635001Y+7807327D01*
X-5632935Y+7803461D01*
X-5624985Y+7777254D01*
X-5622301Y+7750000D01*
X-5624985Y+7722746D01*
X-5632935Y+7696539D01*
X-5645845Y+7672387D01*
X-5663218Y+7651218D01*
X-5684387Y+7633845D01*
X-5708539Y+7620935D01*
X-5734746Y+7612985D01*
X-5762000Y+7610301D01*
X-5789254Y+7612985D01*
X-5815461Y+7620935D01*
X-5819326Y+7623001D01*
X-6851486Y+7623001D01*
X-6876151Y+7598336D01*
X-6870725Y+7591725D01*
X-6855468Y+7563181D01*
X-6846073Y+7532209D01*
X-6842901Y+7500000D01*
X-6846072Y+7467792D01*
X-6855467Y+7436820D01*
X-6870724Y+7408276D01*
X-6891256Y+7383257D01*
X-6916275Y+7362725D01*
X-6944819Y+7347468D01*
X-6975791Y+7338073D01*
X-6991913Y+7336485D01*
X-7202663Y+7125735D01*
X-9243319Y+7125735D01*
X-9455670Y+7338086D01*
X-9455670Y+7723932D01*
X-9142999Y+8036603D01*
X-9142999Y+8145753D01*
X-9153275Y+8158275D01*
X-9168532Y+8186819D01*
X-9177927Y+8217791D01*
X-9181099Y+8250000D01*
X-9177928Y+8282208D01*
X-9168533Y+8313180D01*
X-9153276Y+8341724D01*
X-9132744Y+8366743D01*
X-9107725Y+8387275D01*
X-9079181Y+8402532D01*
X-9048209Y+8411927D01*
X-9016000Y+8415099D01*
X-8983792Y+8411928D01*
X-8952820Y+8402533D01*
X-8924276Y+8387276D01*
X-8899257Y+8366744D01*
X-8878725Y+8341725D01*
X-8863468Y+8313181D01*
X-8854073Y+8282209D01*
X-8850901Y+8250000D01*
X-8854072Y+8217792D01*
X-8863467Y+8186820D01*
X-8878724Y+8158276D01*
X-8889001Y+8145753D01*
X-8889001Y+7931397D01*
X-9201672Y+7618726D01*
X-9201672Y+7443292D01*
X-9138113Y+7379733D01*
X-8096450Y+7379733D01*
X-8100743Y+7383256D01*
X-8121275Y+7408275D01*
X-8136532Y+7436819D01*
X-8145927Y+7467791D01*
X-8149099Y+7500000D01*
X-8145928Y+7532208D01*
X-8136533Y+7563180D01*
X-8126999Y+7581017D01*
X-8126999Y+8145753D01*
X-8137275Y+8158275D01*
X-8152532Y+8186819D01*
X-8161927Y+8217791D01*
X-8165099Y+8250000D01*
X-8161928Y+8282208D01*
X-8152533Y+8313180D01*
X-8137276Y+8341724D01*
X-8116744Y+8366743D01*
X-8091725Y+8387275D01*
X-8063181Y+8402532D01*
X-8032209Y+8411927D01*
X-8000000Y+8415099D01*
X-7967792Y+8411928D01*
X-7936820Y+8402533D01*
X-7908276Y+8387276D01*
X-7895753Y+8376999D01*
X-7595378Y+8376999D01*
X-7312233Y+8093854D01*
X-7206594Y+8093854D01*
X-7206594Y+8093855D01*
X-7051273Y+8093855D01*
X-7063180Y+8097467D01*
X-7091724Y+8112724D01*
X-7113772Y+8130818D01*
X-7277352Y+8130818D01*
X-7576025Y+8429491D01*
X-7576025Y+8718618D01*
X-7730408Y+8873001D01*
X-7895753Y+8873001D01*
X-7908275Y+8862725D01*
X-7936819Y+8847468D01*
X-7967791Y+8838073D01*
X-8000000Y+8834901D01*
X-8032208Y+8838072D01*
X-8063180Y+8847467D01*
X-8091724Y+8862724D01*
X-8116743Y+8883256D01*
X-8137275Y+8908275D01*
X-8152532Y+8936819D01*
X-8161927Y+8967791D01*
X-8165099Y+9000000D01*
X-8161928Y+9032208D01*
X-8152533Y+9063180D01*
X-8137276Y+9091724D01*
X-8116744Y+9116743D01*
X-8091725Y+9137275D01*
X-8063181Y+9152532D01*
X-8032209Y+9161927D01*
X-8000000Y+9165099D01*
X-7967792Y+9161928D01*
X-7936820Y+9152533D01*
X-7908276Y+9137276D01*
X-7895753Y+9126999D01*
X-7625202Y+9126999D01*
X-7322027Y+8823824D01*
X-7322027Y+8534697D01*
X-7172146Y+8384816D01*
X-7126999Y+8384816D01*
X-7126999Y+8751339D01*
X-6751339Y+9126999D01*
X-6592247Y+9126999D01*
X-6579725Y+9137275D01*
X-6551181Y+9152532D01*
X-6520209Y+9161927D01*
X-6488000Y+9165099D01*
X-6455792Y+9161928D01*
X-8933867Y+8965979D02*
X-8953138Y+8937138D01*
X-8981979Y+8917867D01*
X-9016000Y+8911100D01*
X-9050021Y+8917867D01*
X-9078862Y+8937138D01*
X-9098133Y+8965979D01*
X-9104900Y+9000000D01*
X-9098133Y+9034021D01*
X-9078862Y+9062862D01*
X-9050021Y+9082133D01*
X-9016000Y+9088900D01*
X-8981979Y+9082133D01*
X-8953138Y+9062862D01*
X-8933867Y+9034021D01*
X-8927100Y+9000000D01*
X-8933867Y+8965979D01*
X-8917867Y+7465979D02*
X-8937138Y+7437138D01*
X-8965979Y+7417867D01*
X-9000000Y+7411100D01*
X-9034021Y+7417867D01*
X-9062862Y+7437138D01*
X-9082133Y+7465979D01*
X-9088900Y+7500000D01*
X-9082133Y+7534021D01*
X-9062862Y+7562862D01*
X-9034021Y+7582133D01*
X-9000000Y+7588900D01*
X-8965979Y+7582133D01*
X-8937138Y+7562862D01*
X-8917867Y+7534021D01*
X-8911100Y+7500000D01*
X-8917867Y+7465979D01*
X-6671867Y+7465979D02*
X-6691138Y+7437138D01*
X-6719979Y+7417867D01*
X-6754000Y+7411100D01*
X-6788021Y+7417867D01*
X-6816862Y+7437138D01*
X-6836133Y+7465979D01*
X-6842900Y+7500000D01*
X-6836133Y+7534021D01*
X-6816862Y+7562862D01*
X-6788021Y+7582133D01*
X-6754000Y+7588900D01*
X-6719979Y+7582133D01*
X-6691138Y+7562862D01*
X-6671867Y+7534021D01*
X-6665100Y+7500000D01*
X-6671867Y+7465979D01*
X-41666Y+9221268D02*
X+89458Y+9352392D01*
X+1344413Y+9352392D01*
X+1569807Y+9126998D01*
X+1737607Y+9126999D01*
X+1750129Y+9137275D01*
X+1778673Y+9152532D01*
X+1809645Y+9161927D01*
X+1841854Y+9165099D01*
X+1874062Y+9161928D01*
X+1905034Y+9152533D01*
X+1933578Y+9137276D01*
X+1958597Y+9116744D01*
X+1979129Y+9091725D01*
X+1994386Y+9063181D01*
X+2003781Y+9032209D01*
X+2006953Y+9000000D01*
X+2003782Y+8967792D01*
X+1994387Y+8936820D01*
X+1979130Y+8908276D01*
X+1958598Y+8883257D01*
X+1933579Y+8862725D01*
X+1905035Y+8847468D01*
X+1874063Y+8838073D01*
X+1841854Y+8834901D01*
X+1809646Y+8838072D01*
X+1778674Y+8847467D01*
X+1750130Y+8862724D01*
X+1737607Y+8873001D01*
X+1464599Y+8873002D01*
X+1239205Y+9098396D01*
X+307275Y+9098396D01*
X+321436Y+9081141D01*
X+334932Y+9055891D01*
X+343243Y+9028493D01*
X+346049Y+9000000D01*
X+343243Y+8971507D01*
X+334932Y+8944109D01*
X+326999Y+8929267D01*
X+326999Y+8791579D01*
X+104650Y+8569230D01*
X-368454Y+8569230D01*
X-680913Y+8881689D01*
X-1256032Y+8881689D01*
X-1257211Y+8880722D01*
X-817726Y+8880722D01*
X-572076Y+8635072D01*
X-572076Y+7622374D01*
X-680807Y+7513643D01*
X-679830Y+7503723D01*
X-683490Y+7466559D01*
X-694330Y+7430823D01*
X-711934Y+7397888D01*
X-735625Y+7369020D01*
X-764493Y+7345329D01*
X-797428Y+7327725D01*
X-833164Y+7316884D01*
X-870329Y+7313224D01*
X-880249Y+7314201D01*
X-1173634Y+7020816D01*
X-954457Y+7020816D01*
X+401726Y+8376999D01*
X+1737607Y+8376999D01*
X+1750129Y+8387275D01*
X+1778673Y+8402532D01*
X+1809645Y+8411927D01*
X+1841854Y+8415099D01*
X+1874062Y+8411928D01*
X+1905034Y+8402533D01*
X+1933578Y+8387276D01*
X+1958597Y+8366744D01*
X+1979129Y+8341725D01*
X+1994386Y+8313181D01*
X+2003781Y+8282209D01*
X+2006953Y+8250000D01*
X+2003782Y+8217792D01*
X+1994387Y+8186820D01*
X+1979130Y+8158276D01*
X+1958598Y+8133257D01*
X+1933579Y+8112725D01*
X+1905035Y+8097468D01*
X+1874063Y+8088073D01*
X+1841854Y+8084901D01*
X+1809646Y+8088072D01*
X+1778674Y+8097467D01*
X+1750130Y+8112724D01*
X+1737607Y+8123001D01*
X+506932Y+8123001D01*
X-849251Y+6766818D01*
X-4696420Y+6766818D01*
X-5498853Y+7569251D01*
X-5498853Y+7901420D01*
X-5269274Y+8130999D01*
X-5057326Y+8130999D01*
X-5053461Y+8133065D01*
X-5027254Y+8141015D01*
X-5000000Y+8143699D01*
X-4972746Y+8141015D01*
X-4946539Y+8133065D01*
X-4922387Y+8120155D01*
X-4901218Y+8102782D01*
X-4883845Y+8081613D01*
X-4870935Y+8057461D01*
X-4862985Y+8031254D01*
X-4860301Y+8004000D01*
X-4862985Y+7976746D01*
X-4870935Y+7950539D01*
X-4883845Y+7926387D01*
X-4901218Y+7905218D01*
X-4920128Y+7889699D01*
X-4860301Y+7889699D01*
X-4860301Y+7793626D01*
X-4697397Y+7630722D01*
X-3763328Y+7630722D01*
X-3763328Y+8172707D01*
X-3772861Y+8190542D01*
X-3782256Y+8221514D01*
X-3785428Y+8253723D01*
X-3782257Y+8285931D01*
X-3772862Y+8316903D01*
X-3757605Y+8345447D01*
X-3748879Y+8356080D01*
X-3748879Y+9136886D01*
X-3258766Y+9626999D01*
X-447397Y+9626999D01*
X-41666Y+9221268D01*
X+2636062Y+9161928D02*
X+2667034Y+9152533D01*
X+2695578Y+9137276D01*
X+2709542Y+9125816D01*
X+3512603Y+9125816D01*
X+3722853Y+8915566D01*
X+3722853Y+8854247D01*
X+3733129Y+8841725D01*
X+3748386Y+8813181D01*
X+3757781Y+8782209D01*
X+3760953Y+8750000D01*
X+3757782Y+8717792D01*
X+3748387Y+8686820D01*
X+3733130Y+8658276D01*
X+3722853Y+8645753D01*
X+3722853Y+7854247D01*
X+3733129Y+7841725D01*
X+3748386Y+7813181D01*
X+3757781Y+7782209D01*
X+3760953Y+7750000D01*
X+3757782Y+7717792D01*
X+3748387Y+7686820D01*
X+3733130Y+7658276D01*
X+3712598Y+7633257D01*
X+3687579Y+7612725D01*
X+3659035Y+7597468D01*
X+3628063Y+7588073D01*
X+3595854Y+7584901D01*
X+3563646Y+7588072D01*
X+3532674Y+7597467D01*
X+3504130Y+7612724D01*
X+3479111Y+7633256D01*
X+3468854Y+7645754D01*
X+3468853Y+7645753D01*
X+3468853Y+7624566D01*
X+3552603Y+7540816D01*
X+4203068Y+7540816D01*
X+4464855Y+7802603D01*
X+4464855Y+8179267D01*
X+4456922Y+8194109D01*
X+4448611Y+8221507D01*
X+4445805Y+8250000D01*
X+4448611Y+8278493D01*
X+4456922Y+8305891D01*
X+4470418Y+8331141D01*
X+4488581Y+8353273D01*
X+4510713Y+8371436D01*
X+4531433Y+8382511D01*
X+4527196Y+8385342D01*
X+4507374Y+8415007D01*
X+4500414Y+8450000D01*
X+4507374Y+8484993D01*
X+4527196Y+8514658D01*
X+4556861Y+8534480D01*
X+4591854Y+8541440D01*
X+4626847Y+8534480D01*
X+4656512Y+8514658D01*
X+4676334Y+8484993D01*
X+4683294Y+8450000D01*
X+4676334Y+8415007D01*
X+4656512Y+8385342D01*
X+4652275Y+8382511D01*
X+4672995Y+8371436D01*
X+4695127Y+8353273D01*
X+4713290Y+8331141D01*
X+4726786Y+8305891D01*
X+4735097Y+8278493D01*
X+4737903Y+8250000D01*
X+4735097Y+8221507D01*
X+4726786Y+8194109D01*
X+4718853Y+8179267D01*
X+4718853Y+7697397D01*
X+4308274Y+7286818D01*
X+3447397Y+7286818D01*
X+3214855Y+7519360D01*
X+3214855Y+7645753D01*
X+3204579Y+7658275D01*
X+3189322Y+7686819D01*
X+3179927Y+7717791D01*
X+3176755Y+7750000D01*
X+3179926Y+7782208D01*
X+3189321Y+7813180D01*
X+3204578Y+7841724D01*
X+3225110Y+7866743D01*
X+3250129Y+7887275D01*
X+3278673Y+7902532D01*
X+3309645Y+7911927D01*
X+3341854Y+7915099D01*
X+3374062Y+7911928D01*
X+3405034Y+7902533D01*
X+3433578Y+7887276D01*
X+3458597Y+7866744D01*
X+3468854Y+7854246D01*
X+3468855Y+7854247D01*
X+3468855Y+8645753D01*
X+3458579Y+8658275D01*
X+3443322Y+8686819D01*
X+3433927Y+8717791D01*
X+3430755Y+8750000D01*
X+3433926Y+8782208D01*
X+3443321Y+8813180D01*
X+3451233Y+8827982D01*
X+3407397Y+8871818D01*
X+2730853Y+8871818D01*
X+2730853Y+8354247D01*
X+2741129Y+8341725D01*
X+2756386Y+8313181D01*
X+2765781Y+8282209D01*
X+2768953Y+8250000D01*
X+2765782Y+8217792D01*
X+2756387Y+8186820D01*
X+2750544Y+8175888D01*
X+2750544Y+7763574D01*
X+2849811Y+7664307D01*
X+2857854Y+7665099D01*
X+2890062Y+7661928D01*
X+2921034Y+7652533D01*
X+2949578Y+7637276D01*
X+2974597Y+7616744D01*
X+2995129Y+7591725D01*
X+3010386Y+7563181D01*
X+3019781Y+7532209D01*
X+3022953Y+7500000D01*
X+3019782Y+7467792D01*
X+3010387Y+7436820D01*
X+2995130Y+7408276D01*
X+2974598Y+7383257D01*
X+2949579Y+7362725D01*
X+2921035Y+7347468D01*
X+2890063Y+7338073D01*
X+2857854Y+7334901D01*
X+2825646Y+7338072D01*
X+2794674Y+7347467D01*
X+2766130Y+7362724D01*
X+2741111Y+7383256D01*
X+2720579Y+7408275D01*
X+2705322Y+7436819D01*
X+2699760Y+7455154D01*
X+2496548Y+7658366D01*
X+2496548Y+8125511D01*
X+2487111Y+8133256D01*
X+2466579Y+8158275D01*
X+2451322Y+8186819D01*
X+2441927Y+8217791D01*
X+2438755Y+8250000D01*
X+2441926Y+8282208D01*
X+2451321Y+8313180D01*
X+2466578Y+8341724D01*
X+2476855Y+8354247D01*
X+2476855Y+8895753D01*
X+2466579Y+8908275D01*
X+2451322Y+8936819D01*
X+2441927Y+8967791D01*
X+2438755Y+9000000D01*
X+2441926Y+9032208D01*
X+2451321Y+9063180D01*
X+2466578Y+9091724D01*
X+2487110Y+9116743D01*
X+2512129Y+9137275D01*
X+2540673Y+9152532D01*
X+2571645Y+9161927D01*
X+2603854Y+9165099D01*
X+2636062Y+9161928D01*
X+1923987Y+7465979D02*
X+1904716Y+7437138D01*
X+1875875Y+7417867D01*
X+1841854Y+7411100D01*
X+1807833Y+7417867D01*
X+1778992Y+7437138D01*
X+1759721Y+7465979D01*
X+1752954Y+7500000D01*
X+1759721Y+7534021D01*
X+1778992Y+7562862D01*
X+1807833Y+7582133D01*
X+1841854Y+7588900D01*
X+1875875Y+7582133D01*
X+1904716Y+7562862D01*
X+1923987Y+7534021D01*
X+1930754Y+7500000D01*
X+1923987Y+7465979D01*
X+3423987Y+8715979D02*
X+3404716Y+8687138D01*
X+3375875Y+8667867D01*
X+3341854Y+8661100D01*
X+3307833Y+8667867D01*
X+3278992Y+8687138D01*
X+3259721Y+8715979D01*
X+3252954Y+8750000D01*
X+3259721Y+8784021D01*
X+3278992Y+8812862D01*
X+3307833Y+8832133D01*
X+3341854Y+8838900D01*
X+3375875Y+8832133D01*
X+3404716Y+8812862D01*
X+3423987Y+8784021D01*
X+3430754Y+8750000D01*
X+3423987Y+8715979D01*
D17*
X-9500000Y+7958560D02*
X-9500000Y+8050000D01*
X-9408560Y+8050000D02*
X-9500000Y+8050000D01*
X-9591440Y+8050000D02*
X-9500000Y+8050000D01*
X-8927100Y+9000000D02*
X-9016000Y+9000000D01*
X-9104900Y+9000000D02*
X-9016000Y+9000000D01*
X-9016000Y+9088900D02*
X-9016000Y+9000000D01*
X-9016000Y+8911100D02*
X-9016000Y+9000000D01*
X-9088900Y+7500000D02*
X-9000000Y+7500000D01*
X-8911100Y+7500000D02*
X-9000000Y+7500000D01*
X-9000000Y+7411100D02*
X-9000000Y+7500000D01*
X-9000000Y+7588900D02*
X-9000000Y+7500000D01*
X-6665100Y+7500000D02*
X-6754000Y+7500000D01*
X-6842900Y+7500000D02*
X-6754000Y+7500000D01*
X-6754000Y+7588900D02*
X-6754000Y+7500000D01*
X-6754000Y+7411100D02*
X-6754000Y+7500000D01*
X-5208560Y+9000000D02*
X-5300000Y+9000000D01*
X-5300000Y+8908560D02*
X-5300000Y+9000000D01*
X-5300000Y+9091440D02*
X-5300000Y+9000000D01*
X+1752954Y+7500000D02*
X+1841854Y+7500000D01*
X+1930754Y+7500000D02*
X+1841854Y+7500000D01*
X+1841854Y+7411100D02*
X+1841854Y+7500000D01*
X+1841854Y+7588900D02*
X+1841854Y+7500000D01*
X+3252954Y+8750000D02*
X+3341854Y+8750000D01*
X+3430754Y+8750000D02*
X+3341854Y+8750000D01*
X+3341854Y+8661100D02*
X+3341854Y+8750000D01*
X+3341854Y+8838900D02*
X+3341854Y+8750000D01*
X+4591854Y+8541440D02*
X+4591854Y+8450000D01*
X+4683294Y+8450000D02*
X+4591854Y+8450000D01*
X+4500414Y+8450000D02*
X+4591854Y+8450000D01*
D10*
X-9500000Y+8450000D03*
X-9500000Y+8250000D03*
X-9500000Y+8050000D03*
D11*
X-7250000Y+9000000D03*
X-6488000Y+9000000D03*
X-7000000Y+8250000D03*
X-6746000Y+8250000D03*
X-8000000Y+9000000D03*
X-9016000Y+9000000D03*
X-8000000Y+8250000D03*
X-9016000Y+8250000D03*
X-9000000Y+7500000D03*
X-7984000Y+7500000D03*
X-6754000Y+7500000D03*
X-7008000Y+7500000D03*
D10*
X-5500000Y+9000000D03*
X-5300000Y+9000000D03*
D12*
X-5000000Y+7750000D03*
D13*
X-5000000Y+8004000D03*
X-5762000Y+8004000D03*
X-5762000Y+7750000D03*
D10*
X-3120329Y+9003723D03*
X-2920329Y+9003723D03*
D11*
X-3620329Y+8253723D03*
X-2604329Y+8253723D03*
X-2620329Y+7503723D03*
X-3636329Y+7503723D03*
X-1620329Y+9003723D03*
X-1366329Y+9003723D03*
D14*
X-1620329Y+8253723D03*
X-1417129Y+8253723D03*
X-1213929Y+8253723D03*
D15*
X-1886329Y+7503723D03*
X-870329Y+7503723D03*
D10*
X+0Y+9000000D03*
X+200000Y+9000000D03*
D11*
X+1841854Y+9000000D03*
X+2603854Y+9000000D03*
X+1841854Y+8250000D03*
X+2603854Y+8250000D03*
X+1841854Y+7500000D03*
X+2857854Y+7500000D03*
X+3341854Y+8750000D03*
X+3595854Y+8750000D03*
X+3341854Y+7750000D03*
X+3595854Y+7750000D03*
D10*
X+4591854Y+8250000D03*
X+4591854Y+8450000D03*
M02*
